<svg width="233" height="200" viewBox="0 0 233 200" fill="none" xmlns="http://www.w3.org/2000/svg">
<g clip-path="url(#clip0_3098_4106)">
<path d="M158.03 8.74822C158.03 8.74822 126.068 49.2337 74.9292 25.0848C23.7905 0.935936 -27.3485 66.28 16.6878 106.055C60.7241 145.829 17.6313 167.685 47.5477 192.062C81.5498 219.768 111.153 163.586 138.142 176.37C197.71 204.587 241.84 193.417 231.897 160.745C214.442 103.393 192.123 99.6627 209.169 69.8312C226.214 39.9997 188.594 -22.0257 158.03 8.74822Z" fill="#FAE7C7"/>
<path d="M116.111 95.2856V180.223L50.1641 151.739L50.4786 67.1084L116.111 95.2856Z" fill="#D36519"/>
<path d="M116.112 95.3364V180.274L181.739 152.774V67.3794L116.112 95.3364Z" fill="#FA8E44"/>
<path d="M116.111 95.2855L182.058 67.6636L116.629 38.6606L50.1641 66.9731L116.111 95.2855Z" fill="#222222"/>
<path d="M32.1548 82.1252L98.522 114.339C98.7004 114.426 98.9022 114.451 99.0965 114.412C99.2909 114.373 99.4669 114.271 99.5976 114.122L116.111 95.2855L50.1639 66.9731L32.0071 80.587C31.883 80.6801 31.7848 80.8035 31.7221 80.9455C31.6595 81.0874 31.6343 81.2431 31.6492 81.3976C31.664 81.552 31.7183 81.7001 31.8068 81.8275C31.8954 81.9549 32.0152 82.0574 32.1548 82.1252Z" fill="#FF802A"/>
<path d="M182.059 67.6636L200.374 84.2224C200.486 84.3234 200.571 84.4507 200.621 84.5927C200.671 84.7348 200.685 84.8871 200.661 85.0359C200.637 85.1847 200.577 85.3252 200.485 85.4447C200.394 85.5643 200.274 85.659 200.136 85.7204L134.587 114.975C134.412 115.053 134.217 115.073 134.029 115.033C133.842 114.993 133.672 114.895 133.544 114.752L116.111 95.2855L182.059 67.6636Z" fill="#FF802A"/>
<path d="M116.629 38.6607L182.242 67.6636L191.678 65.4765C191.863 65.4335 192.031 65.3331 192.156 65.1895C192.281 65.0459 192.357 64.8665 192.375 64.6768C192.392 64.4872 192.349 64.2969 192.252 64.1331C192.155 63.9693 192.008 63.8404 191.833 63.7646L131.921 37.8046C131.79 37.7477 131.647 37.7228 131.505 37.7318L116.629 38.6607Z" fill="#FF802A"/>
<path d="M116.629 38.6605L51.3838 67.1081L43.136 65.7221C42.945 65.6865 42.7706 65.5904 42.6385 65.448C42.5064 65.3055 42.4236 65.1244 42.4024 64.9313C42.3812 64.7382 42.4227 64.5434 42.5207 64.3757C42.6188 64.208 42.7682 64.0763 42.9468 64.0001L104.34 37.5419C104.476 37.4843 104.623 37.4606 104.77 37.4729L116.629 38.6605Z" fill="#FF802A"/>
<path d="M104.929 57.4242C105.563 57.1238 106.056 56.5901 106.305 55.9347C106.554 55.2793 106.541 54.5529 106.267 53.9073L96.1661 30.0894C96.023 29.752 95.8132 29.4471 95.5493 29.1929C95.2853 28.9387 94.9727 28.7405 94.6302 28.6102C94.2877 28.4799 93.9224 28.4202 93.5562 28.4348C93.19 28.4493 92.8306 28.5377 92.4995 28.6947L90.5535 29.6175C90.2224 29.7745 89.9264 29.9968 89.6834 30.2711C89.4405 30.5454 89.2555 30.866 89.1395 31.2136C89.0236 31.5612 88.9792 31.9287 89.009 32.294C89.0387 32.6592 89.142 33.0146 89.3126 33.3389L101.359 56.234C101.686 56.8546 102.24 57.3249 102.905 57.5468C103.57 57.7686 104.295 57.7247 104.929 57.4242Z" fill="#887BB1"/>
<path d="M117.593 55.1154C118.051 55.0827 118.479 54.8741 118.788 54.5331C119.096 54.1922 119.261 53.7453 119.248 53.2857L118.749 36.3295C118.742 36.0893 118.686 35.853 118.585 35.6349C118.484 35.4167 118.341 35.2212 118.162 35.06C117.984 34.8988 117.775 34.7754 117.548 34.697C117.321 34.6187 117.08 34.5871 116.841 34.6041L115.432 34.7045C115.192 34.7215 114.959 34.7869 114.745 34.8965C114.531 35.0062 114.342 35.1579 114.188 35.3426C114.035 35.5273 113.92 35.7411 113.851 35.9712C113.782 36.2013 113.761 36.443 113.788 36.6817L115.695 53.5377C115.747 53.9947 115.973 54.414 116.327 54.708C116.68 55.0021 117.134 55.148 117.593 55.1154Z" fill="#887BB1"/>
<path d="M127.369 61.3835C128.63 62.1128 130.401 61.4436 131.383 59.8662L148.822 31.8588C149.864 30.1857 149.617 28.1464 148.279 27.3729L146.415 26.2949C145.077 25.5213 143.186 26.3246 142.256 28.0622L126.682 57.1474C125.804 58.7855 126.108 60.6541 127.369 61.3835Z" fill="#887BB1"/>
</g>
<defs>
<clipPath id="clip0_3098_4106">
<rect width="233" height="200" fill="white"/>
</clipPath>
</defs>
</svg>
