<svg width="546" height="405" viewBox="0 0 546 405" fill="none" xmlns="http://www.w3.org/2000/svg">
<g clip-path="url(#clip0_3013_3749)">
<path d="M158.84 65.9661C158.84 65.9661 220.389 112.673 313.959 25.3392C397.058 -52.2199 464.911 70.1511 465.384 128.753C466 204.665 382.286 265.404 422.913 315.264C463.537 365.125 342.344 447.461 277.026 376.205C195.773 287.565 173.761 359.585 127.447 359.585C94.207 359.585 25.9621 276.991 72.0471 215.544C110.827 163.839 89.6771 146.679 79.4351 128.753C64.6606 102.899 99.7471 32.7264 158.84 65.9661Z" fill="#FFFAFF"/>
<path d="M405.938 169.182C409.247 170.412 412.861 170.494 416.301 169.703C430.713 166.396 480.267 157.636 471.657 196.037C469.782 203.655 440.76 246.323 482.09 261.897C485.12 263.053 488.322 263.685 491.563 263.763C504.289 264.025 529.506 261.02 540.06 250.278C552.811 237.299 538.881 243.453 538.881 243.453C538.881 243.453 490.411 264.605 473.289 242.164C471.385 239.667 470.171 236.041 469.825 232.918C469.222 227.506 471.625 220.354 474.782 214.126C479.056 205.698 499.57 167.788 455.028 156.744C444.768 154.301 429.864 152.107 410.649 160.197C399.44 164.916 401.923 167.689 405.938 169.182Z" fill="#EEEEEE"/>
<path d="M415.857 155.028L402.956 159.858C398.503 161.525 396.244 166.486 397.911 170.939L398.55 172.648C400.217 177.101 405.178 179.36 409.631 177.693L422.533 172.866C426.986 171.199 429.245 166.238 427.578 161.783L426.939 160.076C425.272 155.621 420.311 153.362 415.857 155.028Z" fill="#222222"/>
<path d="M336.665 169.001L294.119 184.926C291.891 185.758 290.761 188.239 291.596 190.465L291.764 190.914C292.596 193.14 295.077 194.27 297.305 193.437L339.851 177.513C342.079 176.679 343.209 174.198 342.374 171.972L342.206 171.523C341.374 169.297 338.893 168.167 336.665 169.001Z" fill="#BFBFBF"/>
<path d="M348.541 200.729L305.993 216.651C303.767 217.486 302.637 219.966 303.472 222.192L303.638 222.641C304.472 224.868 306.952 225.997 309.179 225.163L351.727 209.241C353.953 208.406 355.082 205.926 354.25 203.699L354.082 203.25C353.25 201.024 350.767 199.895 348.541 200.729Z" fill="#BFBFBF"/>
<path d="M387.823 147.349L353.34 160.254C348.885 161.921 346.626 166.884 348.293 171.336L360.068 202.794C361.734 207.246 366.695 209.505 371.148 207.839L405.633 194.934C410.086 193.267 412.345 188.306 410.678 183.852L398.905 152.394C397.238 147.942 392.277 145.683 387.823 147.349Z" fill="#FA8E44"/>
<path d="M356.903 155.6L322.418 168.507C317.965 170.174 315.706 175.135 317.373 179.589L331.419 217.119C333.086 221.571 338.047 223.83 342.499 222.164L376.984 209.259C381.437 207.592 383.696 202.631 382.03 198.177L367.983 160.647C366.316 156.193 361.355 153.934 356.903 155.6Z" fill="#FA8E44"/>
<path d="M362.3 147.985L362.03 148.085C359.061 149.196 357.555 152.505 358.666 155.473L378.344 208.05C379.455 211.018 382.761 212.525 385.73 211.414L386 211.311C388.971 210.2 390.476 206.894 389.364 203.925L369.689 151.349C368.577 148.38 365.269 146.874 362.3 147.985Z" fill="#222222"/>
<path d="M10.6773 181.599C10.6773 181.599 79.9326 162.136 69.878 206.978C68.1318 214.073 42.9966 250.604 72.9364 268.144C79.3652 271.91 86.7842 273.578 94.2345 273.539C107.592 273.47 128.769 270.899 138.282 261.217C151.031 248.238 137.103 254.392 137.103 254.392C137.103 254.392 97.3283 270.753 76.8659 257.711C69.8788 253.259 66.7118 244.636 68.6091 236.57C69.5789 232.564 71.0555 228.698 73.0037 225.065C77.4538 216.73 97.7925 178.727 53.2501 167.683C42.9892 165.24 28.0861 163.046 8.87002 171.136C-10.346 179.227 10.6773 181.599 10.6773 181.599Z" fill="#EEEEEE"/>
<path d="M147.594 244.357L134.693 249.187C130.239 250.854 127.98 255.815 129.647 260.269L130.287 261.977C131.954 266.432 136.915 268.691 141.369 267.022L154.27 262.194C158.723 260.527 160.982 255.567 159.315 251.112L158.676 249.404C157.009 244.95 152.048 242.69 147.594 244.357Z" fill="#222222"/>
<path d="M169.391 223.132L150.271 230.288C145.818 231.955 143.559 236.916 145.225 241.37L154.445 266.003C156.112 270.458 161.073 272.717 165.527 271.05L184.647 263.894C189.1 262.227 191.359 257.266 189.693 252.811L180.473 228.179C178.806 223.724 173.845 221.465 169.391 223.132Z" fill="#FA8E44"/>
<path d="M201.222 204.165L172.709 214.837C168.255 216.504 165.996 221.465 167.663 225.919L181.709 263.449C183.376 267.903 188.337 270.162 192.79 268.496L221.303 257.823C225.758 256.157 228.017 251.196 226.35 246.741L212.304 209.212C210.637 204.757 205.676 202.498 201.222 204.165Z" fill="#FA8E44"/>
<path d="M207.263 196.393L206.992 196.494C204.022 197.605 202.517 200.914 203.628 203.882L223.304 256.459C224.415 259.427 227.724 260.934 230.692 259.823L230.963 259.72C233.931 258.609 235.438 255.302 234.327 252.332L214.649 199.757C213.538 196.789 210.231 195.282 207.263 196.393Z" fill="#222222"/>
<path d="M280.073 162.898C279.046 162.784 278.103 162.277 277.443 161.482C276.785 160.687 276.459 159.668 276.534 158.637L278.662 119.777C278.789 117.456 280.749 115.692 282.974 115.897L286.073 116.184C288.297 116.389 289.89 118.48 289.579 120.785L284.351 159.358C284.232 160.385 283.72 161.326 282.922 161.986C282.125 162.646 281.104 162.972 280.073 162.898Z" fill="#887BB1"/>
<path d="M261.703 166.248C261.383 166.342 261.049 166.373 260.717 166.338C260.387 166.301 260.065 166.201 259.774 166.041C259.48 165.883 259.224 165.668 259.015 165.408C258.806 165.149 258.65 164.85 258.556 164.532L250.959 140.359C250.737 139.672 250.799 138.924 251.127 138.282C251.457 137.638 252.027 137.152 252.715 136.931L254.681 136.337C255.02 136.238 255.374 136.212 255.723 136.257C256.071 136.302 256.405 136.419 256.707 136.601C257.008 136.781 257.269 137.023 257.471 137.31C257.674 137.597 257.816 137.923 257.886 138.268L263.517 163.036C263.675 163.7 263.574 164.401 263.238 164.998C262.902 165.592 262.355 166.039 261.703 166.248Z" fill="#887BB1"/>
<path d="M251.45 180.188C250.089 181.876 247.351 181.855 245.243 180.143L207.829 149.744C205.592 147.928 204.934 144.922 206.377 143.135L208.39 140.642C209.836 138.852 212.8 139 214.915 140.964L250.319 173.858C252.314 175.709 252.812 178.503 251.45 180.188Z" fill="#887BB1"/>
<path d="M268.747 258.707C269.71 259.08 270.491 259.812 270.926 260.749C271.362 261.686 271.416 262.756 271.079 263.732L259.097 300.759C258.382 302.971 256.037 304.174 253.937 303.407L251.012 302.339C248.915 301.573 247.908 299.143 248.798 296.997L263.704 261.038C264.083 260.075 264.817 259.296 265.758 258.861C266.697 258.426 267.767 258.371 268.747 258.707Z" fill="#887BB1"/>
<path d="M287.362 260.161C287.695 260.151 288.027 260.208 288.338 260.327C288.648 260.446 288.933 260.624 289.175 260.854C289.417 261.081 289.611 261.356 289.747 261.659C289.882 261.963 289.958 262.291 289.966 262.625L291.139 287.936C291.175 288.658 290.927 289.363 290.444 289.9C289.962 290.439 289.285 290.763 288.566 290.802L286.512 290.874C286.159 290.882 285.811 290.819 285.485 290.685C285.159 290.552 284.866 290.353 284.62 290.101C284.376 289.849 284.185 289.55 284.062 289.22C283.941 288.889 283.888 288.539 283.906 288.188L284.788 262.805C284.806 262.121 285.083 261.469 285.558 260.979C286.036 260.489 286.68 260.198 287.362 260.161Z" fill="#887BB1"/>
<path d="M300.835 249.3C302.582 248.017 305.224 248.736 306.823 250.93L335.236 289.875C336.932 292.202 336.802 295.275 334.949 296.636L332.366 298.533C330.513 299.894 327.682 298.994 326.138 296.554L300.308 255.71C298.857 253.412 299.089 250.583 300.835 249.3Z" fill="#887BB1"/>
</g>
<defs>
<clipPath id="clip0_3013_3749">
<rect width="545" height="404" fill="white" transform="translate(0.5 0.5)"/>
</clipPath>
</defs>
</svg>
