<svg width="510" height="488" viewBox="0 0 510 488" fill="none" xmlns="http://www.w3.org/2000/svg">
<g clip-path="url(#clip0_2633_1884)">
<path d="M414.743 26.0469C363.122 -12.7145 252.276 32.864 162.007 49.9099C71.7369 66.9559 -56.5706 162.101 27.1773 319.065C110.925 476.029 177.574 496.299 326.822 467.566C476.071 438.834 543.963 319.708 492.768 244.239C441.573 168.771 464.681 63.5439 414.743 26.0447V26.0469Z" fill="#FA8E44"/>
<path d="M117.797 387.507C117.546 387.506 117.305 387.407 117.128 387.231C116.951 387.055 116.851 386.816 116.851 386.567V379.232C116.851 375.181 115.232 371.295 112.348 368.431C109.465 365.566 105.554 363.957 101.477 363.957C97.399 363.957 93.4884 365.566 90.6051 368.431C87.7217 371.295 86.1019 375.181 86.1019 379.232V386.567C86.1019 386.816 86.0023 387.055 85.8249 387.231C85.6476 387.408 85.4071 387.507 85.1563 387.507C84.9055 387.507 84.665 387.408 84.4877 387.231C84.3104 387.055 84.2107 386.816 84.2107 386.567V379.232C84.1977 376.971 84.6348 374.73 85.4966 372.637C86.3585 370.545 87.6282 368.642 89.2328 367.039C90.8373 365.436 92.7451 364.164 94.8463 363.296C96.9475 362.427 99.2007 361.98 101.476 361.98C103.752 361.98 106.005 362.427 108.107 363.296C110.208 364.164 112.116 365.436 113.72 367.039C115.325 368.642 116.594 370.545 117.456 372.637C118.318 374.73 118.755 376.971 118.742 379.232V386.567C118.742 386.816 118.642 387.055 118.465 387.231C118.288 387.408 118.047 387.507 117.797 387.507Z" fill="#494945"/>
<path d="M140.191 380.228H120.296V486.903H140.191V380.228Z" fill="#887BB1"/>
<path opacity="0.21" d="M140.191 380.228H120.296V486.903H140.191V380.228Z" fill="#0A0A0A"/>
<path d="M120.296 380.228H42.8618V486.903H120.296V380.228Z" fill="#887BB1"/>
<path d="M97.9 387.507C97.6494 387.506 97.409 387.407 97.2318 387.231C97.0546 387.055 96.955 386.816 96.955 386.567V379.232C96.9673 377.218 96.5786 375.222 95.8115 373.358C95.0443 371.494 93.9137 369.799 92.4848 368.371C91.0558 366.943 89.3568 365.809 87.4853 365.036C85.6138 364.262 83.6069 363.864 81.5799 363.864C79.553 363.864 77.546 364.262 75.6746 365.036C73.8031 365.809 72.104 366.943 70.6751 368.371C69.2462 369.799 68.1156 371.494 67.3484 373.358C66.5812 375.222 66.1926 377.218 66.2048 379.232V386.567C66.2079 386.692 66.1857 386.817 66.1396 386.934C66.0935 387.05 66.0244 387.156 65.9363 387.246C65.8482 387.336 65.7429 387.407 65.6267 387.456C65.5105 387.504 65.3857 387.529 65.2595 387.529C65.1334 387.529 65.0086 387.504 64.8924 387.456C64.7762 387.407 64.6709 387.336 64.5828 387.246C64.4947 387.156 64.4256 387.05 64.3795 386.934C64.3333 386.817 64.3112 386.692 64.3142 386.567V379.232C64.3013 376.971 64.7383 374.73 65.6001 372.637C66.462 370.545 67.7317 368.642 69.3363 367.039C70.9408 365.436 72.8486 364.164 74.9498 363.296C77.051 362.427 79.3042 361.98 81.5799 361.98C83.8556 361.98 86.1089 362.427 88.2101 363.296C90.3113 364.164 92.219 365.436 93.8236 367.039C95.4281 368.642 96.6979 370.545 97.5597 372.637C98.4216 374.73 98.8586 376.971 98.8456 379.232V386.567C98.8456 386.816 98.746 387.055 98.5687 387.231C98.3913 387.408 98.1508 387.507 97.9 387.507Z" fill="#494945"/>
<path opacity="0.11" d="M120.296 380.228L130.243 390.871L140.19 380.228H120.296Z" fill="#0A0A0A"/>
<path opacity="0.11" d="M120.296 486.903L130.243 476.26L140.19 486.903H120.296Z" fill="#0A0A0A"/>
<path d="M337.856 0H173.085C159.455 0 148.405 10.9778 148.405 24.5195V409.33C148.405 422.872 159.455 433.85 173.085 433.85H337.856C351.487 433.85 362.537 422.872 362.537 409.33V24.5195C362.537 10.9778 351.487 0 337.856 0Z" fill="#292A2E"/>
<path d="M336.975 10.5513H172.36C163 10.5513 155.412 18.0894 155.412 27.3881V411.679C155.412 420.978 163 428.516 172.36 428.516H336.975C346.335 428.516 353.923 420.978 353.923 411.679V27.3881C353.923 18.0894 346.335 10.5513 336.975 10.5513Z" fill="white"/>
<path d="M214.814 4.49121H296.125V12.8499C296.125 15.2468 295.167 17.5456 293.461 19.2407C291.755 20.9358 289.441 21.8884 287.029 21.889H223.913C221.5 21.889 219.186 20.9367 217.479 19.2415C215.773 17.5463 214.814 15.2472 214.814 12.8499V4.49121Z" fill="#292A2E"/>
<g opacity="0.15">
<path opacity="0.15" d="M340.222 156.302H177.354C175.103 156.299 172.945 155.41 171.353 153.828C169.762 152.247 168.866 150.103 168.864 147.866V62.5108C168.866 60.2745 169.762 58.1304 171.353 56.5491C172.945 54.9677 175.103 54.0782 177.354 54.0757H340.222C342.473 54.0782 344.631 54.9677 346.223 56.5491C347.814 58.1304 348.71 60.2745 348.712 62.5108V147.866C348.71 150.103 347.814 152.247 346.223 153.828C344.631 155.41 342.473 156.299 340.222 156.302ZM177.354 55.192C175.401 55.1945 173.529 55.9665 172.148 57.3385C170.768 58.7105 169.991 60.5706 169.989 62.5108V147.866C169.991 149.807 170.767 151.667 172.148 153.039C173.529 154.411 175.401 155.183 177.354 155.185H340.222C342.175 155.183 344.047 154.411 345.429 153.039C346.81 151.667 347.586 149.807 347.589 147.866V62.5108C347.586 60.5704 346.809 58.7102 345.428 57.3381C344.047 55.966 342.175 55.1943 340.222 55.192H177.354Z" fill="#292A2E"/>
</g>
<g opacity="0.43">
<path opacity="0.43" d="M262.623 78.0476C265.537 78.0476 267.899 75.7008 267.899 72.8058C267.899 69.9108 265.537 67.564 262.623 67.564C259.709 67.564 257.347 69.9108 257.347 72.8058C257.347 75.7008 259.709 78.0476 262.623 78.0476Z" fill="#FFC600"/>
<path opacity="0.43" d="M279.478 78.0476C282.392 78.0476 284.755 75.7008 284.755 72.8058C284.755 69.9108 282.392 67.564 279.478 67.564C276.564 67.564 274.202 69.9108 274.202 72.8058C274.202 75.7008 276.564 78.0476 279.478 78.0476Z" fill="#FFC600"/>
<path opacity="0.43" d="M296.333 78.0476C299.247 78.0476 301.61 75.7008 301.61 72.8058C301.61 69.9108 299.247 67.564 296.333 67.564C293.419 67.564 291.057 69.9108 291.057 72.8058C291.057 75.7008 293.419 78.0476 296.333 78.0476Z" fill="#FFC600"/>
<path opacity="0.43" d="M313.189 78.0476C316.103 78.0476 318.465 75.7008 318.465 72.8058C318.465 69.9108 316.103 67.564 313.189 67.564C310.275 67.564 307.913 69.9108 307.913 72.8058C307.913 75.7008 310.275 78.0476 313.189 78.0476Z" fill="#FFC600"/>
<path opacity="0.43" d="M330.044 78.0476C332.958 78.0476 335.32 75.7008 335.32 72.8058C335.32 69.9108 332.958 67.564 330.044 67.564C327.13 67.564 324.768 69.9108 324.768 72.8058C324.768 75.7008 327.13 78.0476 330.044 78.0476Z" fill="#FFC600"/>
</g>
<g opacity="0.15">
<path opacity="0.15" d="M335.32 89.0225H258.788V90.1388H335.32V89.0225Z" fill="#292A2E"/>
</g>
<g opacity="0.15">
<path opacity="0.15" d="M335.32 100.186H258.788V101.302H335.32V100.186Z" fill="#292A2E"/>
</g>
<g opacity="0.15">
<path opacity="0.15" d="M299.444 111.35H258.788V112.466H299.444V111.35Z" fill="#292A2E"/>
</g>
<g opacity="0.15">
<path opacity="0.15" d="M335.882 141.801H309.744V133.531H335.882V141.801ZM310.868 140.684H334.758V134.647H310.868V140.684Z" fill="#292A2E"/>
</g>
<path d="M299.275 134.088H274.261V141.242H299.275V134.088Z" fill="#0CBC8B"/>
<path d="M238.777 82.3435C237.563 79.2579 233.529 77.3624 226.107 75.0448C225.872 74.9717 225.143 74.7942 224.405 74.6195C224.18 74.5662 223.946 74.5632 223.72 74.6105C223.494 74.6578 223.282 74.7544 223.098 74.8932C222.914 75.032 222.763 75.2096 222.657 75.4132C222.55 75.6169 222.49 75.8414 222.482 76.0707C222.482 76.0707 221.583 79.959 214.979 79.959C207.169 79.959 206.102 76.0707 206.102 76.0707C206.093 75.8414 206.033 75.6169 205.927 75.4132C205.82 75.2096 205.67 75.032 205.486 74.8932C205.302 74.7544 205.089 74.6578 204.863 74.6105C204.637 74.5632 204.403 74.5662 204.179 74.6195C203.44 74.7942 202.71 74.9717 202.476 75.0448C195.054 77.3624 191.02 79.2579 189.806 82.3435C185.544 93.1721 179.051 127.23 179.051 127.23L188.72 129.749L196.85 101.171C198.01 105.457 198.379 118.549 198.379 118.549H207.642H220.941H229.955C229.955 118.549 230.573 105.457 231.733 101.171L239.863 129.749L249.532 127.23C249.532 127.23 243.039 93.1721 238.777 82.3435Z" fill="#FA8E44"/>
<path opacity="0.48" d="M238.777 82.3435C237.563 79.2579 233.529 77.3624 226.107 75.0448C225.872 74.9717 225.143 74.7942 224.405 74.6195C224.18 74.5662 223.946 74.5632 223.72 74.6105C223.494 74.6578 223.282 74.7544 223.098 74.8932C222.914 75.032 222.763 75.2096 222.657 75.4132C222.55 75.6169 222.49 75.8414 222.482 76.0707C222.482 76.0707 221.583 79.959 214.979 79.959C207.169 79.959 206.102 76.0707 206.102 76.0707C206.093 75.8414 206.033 75.6169 205.927 75.4132C205.82 75.2096 205.67 75.032 205.486 74.8932C205.302 74.7544 205.089 74.6578 204.863 74.6105C204.637 74.5632 204.403 74.5662 204.179 74.6195C203.44 74.7942 202.71 74.9717 202.476 75.0448C195.054 77.3624 191.02 79.2579 189.806 82.3435C185.544 93.1721 179.051 127.23 179.051 127.23L188.72 129.749L196.85 101.171C198.01 105.457 198.379 118.549 198.379 118.549H207.642H220.941H229.955C229.955 118.549 230.573 105.457 231.733 101.171L239.863 129.749L249.532 127.23C249.532 127.23 243.039 93.1721 238.777 82.3435Z" fill="white"/>
<g opacity="0.15">
<path opacity="0.15" d="M340.222 276.494H177.354C175.103 276.492 172.945 275.602 171.354 274.021C169.762 272.44 168.866 270.296 168.864 268.06V182.703C168.867 180.467 169.762 178.323 171.354 176.742C172.945 175.161 175.103 174.272 177.354 174.269H340.222C342.473 174.272 344.63 175.161 346.222 176.742C347.814 178.323 348.709 180.467 348.712 182.703V268.06C348.71 270.296 347.814 272.44 346.222 274.021C344.631 275.602 342.473 276.492 340.222 276.494ZM177.354 175.385C175.402 175.388 173.53 176.16 172.149 177.531C170.768 178.903 169.991 180.763 169.989 182.703V268.06C169.991 270 170.768 271.86 172.148 273.232C173.529 274.604 175.401 275.376 177.354 275.378H340.222C342.175 275.376 344.047 274.604 345.428 273.232C346.809 271.86 347.586 270 347.589 268.06V182.703C347.586 180.763 346.809 178.902 345.428 177.53C344.047 176.158 342.175 175.387 340.222 175.384L177.354 175.385Z" fill="#292A2E"/>
</g>
<g opacity="0.43">
<path opacity="0.43" d="M262.623 198.241C265.537 198.241 267.899 195.894 267.899 192.999C267.899 190.104 265.537 187.757 262.623 187.757C259.709 187.757 257.347 190.104 257.347 192.999C257.347 195.894 259.709 198.241 262.623 198.241Z" fill="#FFC600"/>
<path opacity="0.43" d="M279.478 198.241C282.392 198.241 284.755 195.894 284.755 192.999C284.755 190.104 282.392 187.757 279.478 187.757C276.564 187.757 274.202 190.104 274.202 192.999C274.202 195.894 276.564 198.241 279.478 198.241Z" fill="#FFC600"/>
<path opacity="0.43" d="M296.333 198.241C299.247 198.241 301.61 195.894 301.61 192.999C301.61 190.104 299.247 187.757 296.333 187.757C293.419 187.757 291.057 190.104 291.057 192.999C291.057 195.894 293.419 198.241 296.333 198.241Z" fill="#FFC600"/>
<path opacity="0.43" d="M313.189 198.241C316.103 198.241 318.465 195.894 318.465 192.999C318.465 190.104 316.103 187.757 313.189 187.757C310.275 187.757 307.913 190.104 307.913 192.999C307.913 195.894 310.275 198.241 313.189 198.241Z" fill="#FFC600"/>
<path opacity="0.43" d="M330.044 198.241C332.958 198.241 335.32 195.894 335.32 192.999C335.32 190.104 332.958 187.757 330.044 187.757C327.13 187.757 324.768 190.104 324.768 192.999C324.768 195.894 327.13 198.241 330.044 198.241Z" fill="#FFC600"/>
</g>
<g opacity="0.15">
<path opacity="0.15" d="M335.32 209.215H258.788V210.332H335.32V209.215Z" fill="#292A2E"/>
</g>
<g opacity="0.15">
<path opacity="0.15" d="M335.32 220.379H258.788V221.495H335.32V220.379Z" fill="#292A2E"/>
</g>
<g opacity="0.15">
<path opacity="0.15" d="M299.444 231.542H258.788V232.659H299.444V231.542Z" fill="#292A2E"/>
</g>
<g opacity="0.15">
<path opacity="0.15" d="M335.882 261.994H309.744V253.724H335.882V261.994ZM310.868 260.877H334.758V254.84H310.868V260.877Z" fill="#292A2E"/>
</g>
<path d="M299.275 254.282H274.261V261.435H299.275V254.282Z" fill="#0CBC8B"/>
<path opacity="0.48" d="M238.336 207.278C236.513 205.038 232.497 203.608 227.804 202.475C225.898 202.016 224.605 201.843 224.605 201.843C223.096 205.645 218.428 208.396 214.315 208.397H214.029C209.915 208.397 205.489 205.645 203.978 201.843C203.978 201.843 202.686 202.015 200.776 202.475C196.084 203.608 192.067 205.038 190.245 207.278C187.444 210.721 183.523 223.678 183.523 223.678L194.89 228.383C194.978 228.618 195.064 228.854 195.149 229.09C195.209 229.258 195.269 229.427 195.328 229.595C195.323 229.578 195.317 229.562 195.311 229.545C195.325 229.584 195.339 229.624 195.352 229.664C197.298 235.372 198.647 241.264 199.379 247.246C199.428 247.231 229.149 247.231 229.197 247.246C229.929 241.264 231.279 235.372 233.225 229.664C233.239 229.624 233.252 229.585 233.267 229.545C233.32 229.393 233.374 229.241 233.429 229.09C233.513 228.854 233.599 228.619 233.687 228.383L245.054 223.678C245.054 223.678 241.137 210.723 238.336 207.278Z" fill="white"/>
<path d="M238.336 207.278C236.513 205.038 232.497 203.608 227.804 202.475C225.898 202.016 224.605 201.843 224.605 201.843C223.096 205.645 218.428 208.396 214.315 208.397H214.029C209.915 208.397 205.489 205.645 203.978 201.843C203.978 201.843 202.686 202.015 200.776 202.475C196.084 203.608 192.067 205.038 190.245 207.278C187.444 210.721 183.523 223.678 183.523 223.678L194.89 228.383C194.978 228.618 195.064 228.854 195.149 229.09C195.209 229.258 195.269 229.427 195.328 229.595C195.323 229.578 195.317 229.562 195.311 229.545C195.325 229.584 195.339 229.624 195.352 229.664C197.298 235.372 198.647 241.264 199.379 247.246C199.428 247.231 229.149 247.231 229.197 247.246C229.929 241.264 231.279 235.372 233.225 229.664C233.239 229.624 233.252 229.585 233.267 229.545C233.32 229.393 233.374 229.241 233.429 229.09C233.513 228.854 233.599 228.619 233.687 228.383L245.054 223.678C245.054 223.678 241.137 210.723 238.336 207.278Z" fill="#FA8E44"/>
<path opacity="0.48" d="M238.336 207.278C236.513 205.038 232.497 203.608 227.804 202.475C225.898 202.016 224.605 201.843 224.605 201.843C223.096 205.645 218.428 208.396 214.315 208.397H214.029C209.915 208.397 205.489 205.645 203.978 201.843C203.978 201.843 202.686 202.015 200.776 202.475C196.084 203.608 192.067 205.038 190.245 207.278C187.444 210.721 183.523 223.678 183.523 223.678L194.89 228.383C194.978 228.618 195.064 228.854 195.149 229.09C195.209 229.258 195.269 229.427 195.328 229.595C195.323 229.578 195.317 229.562 195.311 229.545C195.325 229.584 195.339 229.624 195.352 229.664C197.298 235.372 198.647 241.264 199.379 247.246C199.428 247.231 229.149 247.231 229.197 247.246C229.929 241.264 231.279 235.372 233.225 229.664C233.239 229.624 233.252 229.585 233.267 229.545C233.32 229.393 233.374 229.241 233.429 229.09C233.513 228.854 233.599 228.619 233.687 228.383L245.054 223.678C245.054 223.678 241.137 210.723 238.336 207.278Z" fill="white"/>
<g opacity="0.15">
<path opacity="0.15" d="M340.222 395.013H177.354C175.103 395.01 172.945 394.121 171.353 392.539C169.762 390.958 168.866 388.814 168.864 386.577V301.222C168.866 298.985 169.762 296.842 171.354 295.26C172.945 293.679 175.103 292.79 177.354 292.787H340.222C342.473 292.79 344.631 293.679 346.222 295.26C347.814 296.842 348.71 298.985 348.712 301.222V386.577C348.71 388.814 347.814 390.958 346.223 392.539C344.631 394.121 342.473 395.01 340.222 395.013ZM177.354 293.903C175.401 293.906 173.529 294.677 172.148 296.049C170.767 297.421 169.99 299.281 169.987 301.222V386.577C169.99 388.518 170.766 390.378 172.147 391.75C173.529 393.123 175.401 393.895 177.354 393.897H340.222C342.175 393.895 344.047 393.123 345.429 391.75C346.81 390.378 347.586 388.518 347.589 386.577V301.222C347.586 299.281 346.809 297.421 345.428 296.049C344.047 294.677 342.175 293.906 340.222 293.903H177.354Z" fill="#292A2E"/>
</g>
<g opacity="0.43">
<path opacity="0.43" d="M262.623 316.759C265.537 316.759 267.899 314.412 267.899 311.517C267.899 308.622 265.537 306.275 262.623 306.275C259.709 306.275 257.347 308.622 257.347 311.517C257.347 314.412 259.709 316.759 262.623 316.759Z" fill="#FFC600"/>
<path opacity="0.43" d="M279.478 316.759C282.392 316.759 284.755 314.412 284.755 311.517C284.755 308.622 282.392 306.275 279.478 306.275C276.564 306.275 274.202 308.622 274.202 311.517C274.202 314.412 276.564 316.759 279.478 316.759Z" fill="#FFC600"/>
<path opacity="0.43" d="M296.333 316.759C299.247 316.759 301.61 314.412 301.61 311.517C301.61 308.622 299.247 306.275 296.333 306.275C293.419 306.275 291.057 308.622 291.057 311.517C291.057 314.412 293.419 316.759 296.333 316.759Z" fill="#FFC600"/>
<path opacity="0.43" d="M313.189 316.759C316.103 316.759 318.465 314.412 318.465 311.517C318.465 308.622 316.103 306.275 313.189 306.275C310.275 306.275 307.913 308.622 307.913 311.517C307.913 314.412 310.275 316.759 313.189 316.759Z" fill="#FFC600"/>
<path opacity="0.43" d="M330.044 316.759C332.958 316.759 335.32 314.412 335.32 311.517C335.32 308.622 332.958 306.275 330.044 306.275C327.13 306.275 324.768 308.622 324.768 311.517C324.768 314.412 327.13 316.759 330.044 316.759Z" fill="#FFC600"/>
</g>
<g opacity="0.15">
<path opacity="0.15" d="M335.32 327.733H258.788V328.85H335.32V327.733Z" fill="#292A2E"/>
</g>
<g opacity="0.15">
<path opacity="0.15" d="M335.32 338.897H258.788V340.013H335.32V338.897Z" fill="#292A2E"/>
</g>
<g opacity="0.15">
<path opacity="0.15" d="M299.444 350.061H258.788V351.177H299.444V350.061Z" fill="#292A2E"/>
</g>
<g opacity="0.15">
<path opacity="0.15" d="M335.882 380.512H309.744V372.242H335.882V380.512ZM310.868 379.395H334.758V373.358H310.868V379.395Z" fill="#292A2E"/>
</g>
<path d="M299.275 372.799H274.261V379.953H299.275V372.799Z" fill="#0CBC8B"/>
<path opacity="0.48" d="M229.955 373.352C230.256 373.351 230.553 373.282 230.823 373.151C231.093 373.019 231.33 372.828 231.515 372.592C231.7 372.357 231.829 372.082 231.892 371.79C231.955 371.497 231.949 371.194 231.877 370.904C229.859 362.568 229.705 346.876 231.447 340.132L233.374 332.668L233.37 332.633C233.404 332.378 233.379 332.118 233.297 331.874C233.215 331.629 233.079 331.406 232.898 331.222C225.611 323.793 226.571 316.163 226.571 316.163H223.431C223.635 317.961 223.516 319.78 223.081 321.537C222.294 324.621 220.201 328.043 214.896 328.865C213.21 329.116 211.496 329.116 209.809 328.865C204.504 328.043 202.411 324.621 201.625 321.537C201.189 319.78 201.071 317.961 201.275 316.163H198.136C198.136 316.163 199.094 323.792 191.808 331.221C191.627 331.406 191.49 331.629 191.408 331.873C191.326 332.117 191.301 332.377 191.335 332.633L191.309 332.668L193.236 340.131C194.977 346.876 194.823 362.57 192.806 370.903C192.733 371.194 192.728 371.496 192.791 371.789C192.853 372.082 192.982 372.356 193.167 372.592C193.352 372.828 193.589 373.019 193.859 373.15C194.129 373.282 194.426 373.351 194.727 373.352L229.955 373.352Z" fill="white"/>
<path d="M229.955 373.352C230.256 373.351 230.553 373.282 230.823 373.151C231.093 373.019 231.33 372.828 231.515 372.592C231.7 372.357 231.829 372.082 231.892 371.79C231.955 371.497 231.949 371.194 231.877 370.904C229.859 362.568 229.705 346.876 231.447 340.132L233.374 332.668L233.37 332.633C233.404 332.378 233.379 332.118 233.297 331.874C233.215 331.629 233.079 331.406 232.898 331.222C225.611 323.793 226.571 316.163 226.571 316.163H223.431C223.635 317.961 223.516 319.78 223.081 321.537C222.294 324.621 220.201 328.043 214.896 328.865C213.21 329.116 211.496 329.116 209.809 328.865C204.504 328.043 202.411 324.621 201.625 321.537C201.189 319.78 201.071 317.961 201.275 316.163H198.136C198.136 316.163 199.094 323.792 191.808 331.221C191.627 331.406 191.49 331.629 191.408 331.873C191.326 332.117 191.301 332.377 191.335 332.633L191.309 332.668L193.236 340.131C194.977 346.876 194.823 362.57 192.806 370.903C192.733 371.194 192.728 371.496 192.791 371.789C192.853 372.082 192.982 372.356 193.167 372.592C193.352 372.828 193.589 373.019 193.859 373.15C194.129 373.282 194.426 373.351 194.727 373.352L229.955 373.352Z" fill="#FA8E44"/>
<path opacity="0.48" d="M229.955 373.352C230.256 373.351 230.553 373.282 230.823 373.151C231.093 373.019 231.33 372.828 231.515 372.592C231.7 372.357 231.829 372.082 231.892 371.79C231.955 371.497 231.949 371.194 231.877 370.904C229.859 362.568 229.705 346.876 231.447 340.132L233.374 332.668L233.37 332.633C233.404 332.378 233.379 332.118 233.297 331.874C233.215 331.629 233.079 331.406 232.898 331.222C225.611 323.793 226.571 316.163 226.571 316.163H223.431C223.635 317.961 223.516 319.78 223.081 321.537C222.294 324.621 220.201 328.043 214.896 328.865C213.21 329.116 211.496 329.116 209.809 328.865C204.504 328.043 202.411 324.621 201.625 321.537C201.189 319.78 201.071 317.961 201.275 316.163H198.136C198.136 316.163 199.094 323.792 191.808 331.221C191.627 331.406 191.49 331.629 191.408 331.873C191.326 332.117 191.301 332.377 191.335 332.633L191.309 332.668L193.236 340.131C194.977 346.876 194.823 362.57 192.806 370.903C192.733 371.194 192.728 371.496 192.791 371.789C192.853 372.082 192.982 372.356 193.167 372.592C193.352 372.828 193.589 373.019 193.859 373.15C194.129 373.282 194.426 373.351 194.727 373.352L229.955 373.352Z" fill="white"/>
<path d="M408.566 463.305C408.566 463.305 406.029 476.366 393.717 477.097C381.405 477.827 384.075 487.569 384.075 487.569H431.123V464.216L408.566 463.305Z" fill="#887BB1"/>
<path d="M423.077 225.003C423.077 225.003 422.93 221.076 422.961 229.984C423.077 263.212 423.658 301.165 425.076 323.375C427.355 359.078 433.2 471.642 433.2 471.642L402.284 471.384L372.319 223.653L423.077 225.003Z" fill="#262626"/>
<path d="M388.165 264.185C388.165 264.185 386.883 288.298 386.648 293.958C386.099 307.05 385.908 320.606 385.908 335.974L381.035 295.685C381.035 295.685 384.598 283.06 388.165 264.185Z" fill="#0A0A0A"/>
<path d="M353.527 463.305C353.527 463.305 350.99 476.366 338.679 477.097C326.367 477.827 329.037 487.569 329.037 487.569H376.085V464.216L353.527 463.305Z" fill="#887BB1"/>
<path d="M338.558 227.583C338.558 227.583 335.819 341.147 336.22 346.698L347.718 470.78L378.122 471.338L375.16 342.208C375.16 342.208 377.249 306.588 385.912 273.512C390.345 256.536 393.012 239.153 393.873 221.636L338.558 227.583Z" fill="#262626"/>
<path d="M423.414 225L423.515 225.006C423.515 225.006 423.442 223.068 423.414 225Z" fill="#333333"/>
<path d="M334.206 164.55C334.843 171.992 337.945 218.419 338.558 227.585H423.045C423.523 219.318 425.666 183.169 427.476 167.002C429.203 151.575 432.593 143.851 430.108 139.291C426.048 131.837 414.954 127.53 407.39 126.512C402.77 125.891 395.823 125.445 395.823 125.445C395.823 125.445 395.234 137.266 381.206 137.925C362.111 138.818 363.386 125.445 363.292 125.445C360.198 125.445 342.186 126.89 338.204 129.936C331.24 135.262 332.852 148.778 334.206 164.55Z" fill="#887BB1"/>
<path d="M333.038 155.223C332.966 155.223 332.897 155.196 332.845 155.147C332.793 155.098 332.761 155.031 332.757 154.96L332.076 143.143C332.071 143.069 332.097 142.996 332.146 142.941C332.196 142.886 332.265 142.852 332.34 142.848C332.414 142.844 332.486 142.87 332.542 142.919C332.597 142.968 332.631 143.037 332.636 143.11L333.318 154.927C333.322 155.001 333.297 155.074 333.247 155.129C333.198 155.184 333.128 155.218 333.054 155.222L333.038 155.223Z" fill="#0C0C0C"/>
<path d="M441.308 227.097C443.793 227.097 446.241 226.5 448.444 225.358C450.647 224.215 452.539 222.561 453.96 220.536C455.381 218.51 456.289 216.174 456.605 213.726C456.922 211.277 456.638 208.789 455.779 206.472C454.906 204.121 434.443 150.289 430.548 140.314L401.704 151.924C403.895 157.533 411.83 178.79 418.205 195.914L407.614 194.771L404.28 225.24L439.639 227.008C440.194 227.067 440.751 227.097 441.308 227.097Z" fill="#887BB1"/>
<path d="M353.226 124.424C353.32 124.412 355.912 134.1 376.137 132.593C390.138 131.551 393.554 122.082 393.873 122.082C392.363 121.764 389.912 121.433 389.241 121.078C387.037 119.901 385.431 118.468 384.622 115.394C383.99 112.989 383.667 103.733 383.667 99.0889L362.122 103.899C362.423 109.137 364.525 121.282 357.158 123.431C355.932 123.786 354.613 124.114 353.226 124.424Z" fill="#E98862"/>
<path d="M362.869 114.198C371.362 114.863 382.273 111.301 384.345 100.043L386.215 89.8841C388.288 78.6262 384.016 68.4183 373.346 66.4798C362.677 64.5412 353.022 72.2184 350.95 83.4762L350.121 87.9734C349.326 92.2937 347.715 113.01 362.869 114.198Z" fill="#BF7E06"/>
<path d="M354.993 103.861C356.518 96.2508 357.217 91.1736 357.136 85.8168C354.988 82.077 355.553 77.7791 356.041 75.9237C354.562 76.8571 352.824 77.3001 351.076 77.1891C351.076 77.1891 354.626 63.0293 366.698 59.2192C368.917 58.3607 374.584 57.2767 382.109 58.3021C388.509 59.174 404.285 63.9285 406.539 81.5735V81.5836C406.614 82.1686 408.129 98.4265 411.147 106.227C415.206 116.713 420.906 119.972 420.761 132.071C420.575 147.633 391.777 149.704 374.409 148.54C357.042 147.376 347.343 141.702 347.216 130.486C347.078 117.92 351.942 119.087 354.993 103.861Z" fill="#0A0A0A"/>
<path d="M424.847 167.313L422.771 227.576L423.333 227.595L425.409 167.332L424.847 167.313Z" fill="#0C0C0C"/>
<path d="M241.57 98.4282L250.65 109.082L250.088 107.252C249.918 106.658 249.982 106.023 250.266 105.474C250.55 104.924 251.034 104.503 251.618 104.294C251.924 104.197 252.247 104.162 252.566 104.193C252.886 104.224 253.196 104.318 253.477 104.472C253.758 104.625 254.005 104.834 254.203 105.086C254.4 105.337 254.544 105.626 254.625 105.935L258.776 121.462C259.3 123.422 259.032 125.508 258.03 127.275C257.027 129.042 255.37 130.349 253.411 130.919C251.136 131.581 248.714 131.552 246.456 130.838C244.198 130.123 242.206 128.755 240.735 126.908L234.09 118.53C233.736 118.102 233.543 117.565 233.542 117.011C233.54 116.456 233.732 115.919 234.084 115.489C234.41 115.107 234.85 114.839 235.341 114.723C235.831 114.608 236.346 114.651 236.809 114.848C236.816 114.821 236.829 114.796 236.846 114.774C236.863 114.752 236.884 114.734 236.908 114.721C236.933 114.708 236.959 114.699 236.987 114.697C237.015 114.694 237.042 114.697 237.069 114.705L235.838 113.159C235.461 112.706 235.262 112.132 235.277 111.544C235.292 110.957 235.521 110.394 235.921 109.961C236.33 109.544 236.881 109.294 237.466 109.259C238.051 109.223 238.628 109.406 239.085 109.77C239.089 109.745 239.096 109.721 239.108 109.699L238.603 109.065C238.273 108.631 238.093 108.102 238.088 107.558C238.084 107.014 238.256 106.483 238.579 106.044C238.974 105.571 239.539 105.27 240.154 105.206C240.769 105.143 241.385 105.321 241.87 105.702L241.902 105.671L238.088 101.195C237.892 100.965 237.745 100.698 237.657 100.411C237.568 100.123 237.54 99.8204 237.573 99.5214C237.606 99.2224 237.7 98.9333 237.849 98.6716C237.999 98.4099 238.2 98.1813 238.441 97.9995C238.921 97.664 239.51 97.5216 240.091 97.6012C240.672 97.6807 241.2 97.9763 241.57 98.4282Z" fill="#BF7E06"/>
<path opacity="0.2" d="M241.777 105.951C241.786 105.975 241.799 105.997 241.816 106.017L245.572 110.322C245.613 110.358 245.665 110.377 245.72 110.378C245.774 110.378 245.827 110.359 245.868 110.323C245.909 110.288 245.936 110.239 245.944 110.186C245.951 110.132 245.939 110.078 245.909 110.033L242.153 105.728C242.119 105.689 242.072 105.663 242.02 105.655C241.969 105.647 241.916 105.657 241.871 105.684C241.827 105.71 241.793 105.752 241.776 105.801C241.759 105.85 241.76 105.903 241.778 105.951H241.777Z" fill="#0C0C0C"/>
<path opacity="0.2" d="M239.09 109.87C239.1 109.894 239.113 109.915 239.129 109.934L242.055 113.339C242.095 113.373 242.147 113.392 242.2 113.392C242.254 113.392 242.305 113.373 242.346 113.338C242.386 113.304 242.413 113.256 242.421 113.204C242.43 113.152 242.419 113.098 242.392 113.053L239.466 109.648C239.431 109.611 239.384 109.588 239.333 109.581C239.283 109.574 239.231 109.584 239.188 109.61C239.144 109.636 239.11 109.676 239.092 109.724C239.075 109.771 239.073 109.823 239.089 109.871L239.09 109.87Z" fill="#0C0C0C"/>
<path opacity="0.2" d="M236.807 114.993C236.816 115.018 236.831 115.041 236.849 115.061L238.268 116.638C238.286 116.665 238.309 116.688 238.337 116.705C238.364 116.722 238.395 116.734 238.427 116.738C238.459 116.742 238.492 116.74 238.523 116.73C238.554 116.721 238.583 116.705 238.607 116.683C238.631 116.662 238.65 116.635 238.663 116.606C238.676 116.576 238.682 116.544 238.682 116.512C238.681 116.479 238.673 116.448 238.659 116.419C238.645 116.39 238.624 116.364 238.599 116.344L237.179 114.767C237.144 114.732 237.097 114.709 237.047 114.704C236.997 114.698 236.947 114.709 236.904 114.735C236.861 114.761 236.828 114.801 236.811 114.847C236.793 114.894 236.792 114.945 236.807 114.993Z" fill="#0C0C0C"/>
<path d="M286.387 198.738C283.529 198.738 280.719 198.004 278.231 196.607C275.743 195.21 273.661 193.197 272.187 190.764L235.449 130.13L263.85 113.146L291.778 159.241L338.204 129.936L357.872 156.136L295.358 196.118C292.683 197.828 289.568 198.738 286.387 198.738Z" fill="#887BB1"/>
<path d="M334.676 171.236C334.613 171.236 334.552 171.215 334.503 171.177C334.453 171.138 334.418 171.084 334.403 171.023C334.389 170.962 334.395 170.899 334.421 170.842C334.447 170.785 334.491 170.738 334.547 170.71L342.569 166.598C342.635 166.564 342.713 166.557 342.784 166.58C342.855 166.602 342.914 166.652 342.948 166.718C342.982 166.783 342.989 166.86 342.966 166.93C342.943 167.001 342.893 167.06 342.827 167.094L334.805 171.206C334.765 171.226 334.721 171.237 334.676 171.236Z" fill="#0C0C0C"/>
<path d="M254.086 488.545H234.191L226.139 407.546H246.033L254.086 488.545Z" fill="#887BB1"/>
<path opacity="0.21" d="M254.086 488.545H234.191L226.139 407.546H246.033L254.086 488.545Z" fill="#0A0A0A"/>
<path d="M234.191 488.545H156.757L164.81 407.546H226.139L234.191 488.545Z" fill="#887BB1"/>
<path d="M195.475 440.689C193.208 440.689 190.963 440.245 188.868 439.383C186.773 438.521 184.87 437.257 183.266 435.665C181.663 434.072 180.391 432.181 179.524 430.1C178.656 428.018 178.21 425.788 178.21 423.535V416.199C178.207 416.073 178.229 415.949 178.275 415.832C178.321 415.716 178.39 415.609 178.478 415.52C178.566 415.43 178.672 415.359 178.788 415.31C178.904 415.261 179.029 415.236 179.155 415.236C179.281 415.236 179.406 415.261 179.522 415.31C179.638 415.359 179.744 415.43 179.832 415.52C179.92 415.609 179.989 415.716 180.035 415.832C180.081 415.949 180.103 416.073 180.1 416.199V423.534C180.1 427.585 181.72 431.47 184.604 434.335C187.487 437.199 191.398 438.809 195.475 438.809C199.553 438.809 203.463 437.199 206.347 434.335C209.23 431.47 210.85 427.585 210.85 423.534V416.199C210.85 415.95 210.95 415.711 211.127 415.534C211.304 415.358 211.545 415.259 211.796 415.259C212.046 415.259 212.287 415.358 212.464 415.534C212.642 415.711 212.741 415.95 212.741 416.199V423.534C212.736 428.082 210.916 432.442 207.679 435.658C204.442 438.874 200.053 440.683 195.475 440.689Z" fill="white"/>
<path opacity="0.08" d="M226.139 407.546L237.122 418.189L246.033 407.546H226.139Z" fill="#0A0A0A"/>
<path opacity="0.08" d="M234.191 488.545L243.076 477.902L254.086 488.545H234.191Z" fill="#0A0A0A"/>
<path d="M110.663 428.66C110.402 428.359 110.081 428.118 109.723 427.953C109.364 427.789 108.976 427.704 108.583 427.705H100.074C100.074 425.454 100.144 423.046 98.5942 421.455C97.0443 419.863 95.5032 419.416 93.3113 419.416C91.1194 419.416 89.0173 420.31 87.4674 421.902C85.9175 423.494 84.9502 425.483 83.8032 427.705H76.2147C75.8243 427.706 74.7763 427.791 74.4203 427.956C74.0643 428.121 73.7461 428.36 73.4864 428.66C73.2288 428.958 73.0356 429.309 72.9193 429.689C72.8029 430.069 72.6265 430.407 72.5416 430.867L72.0508 432.193L71.56 433.519L71.0693 434.846L70.5785 436.172L70.1024 437.608L69.5143 439.023L68.9902 440.36L68.6302 441.587L67.6487 444.239L67.1579 445.566L66.6671 446.892L66.1764 448.218L65.6856 449.545L65.1949 450.871L64.7041 452.197C64.7837 452.889 65.3786 453.526 65.8869 453.986C66.3952 454.447 67.0509 454.699 67.7288 454.694L99.1552 455.027C99.833 455.032 100.489 454.78 100.997 454.319C101.505 453.858 102.196 452.889 102.276 452.197L111.339 430.867C111.384 430.471 111.347 430.069 111.231 429.689C111.114 429.309 110.921 428.958 110.663 428.66ZM86.558 434.778C86.558 435.154 86.4129 435.513 86.1546 435.779C85.8963 436.044 85.5459 436.193 85.1806 436.193C84.8153 436.193 84.465 436.044 84.2066 435.779C83.9483 435.513 83.8032 435.154 83.8032 434.778V431.949C83.8032 431.574 83.9483 431.214 84.2066 430.949C84.465 430.683 84.8153 430.534 85.1806 430.534C85.5459 430.534 85.8963 430.683 86.1546 430.949C86.4129 431.214 86.558 431.574 86.558 431.949V434.778ZM93.3113 422.245C94.7725 422.245 95.613 422.394 96.6463 423.455C97.6795 424.517 97.2738 426.221 97.2738 427.721L86.9615 427.705C88.4712 425.036 88.3821 424.964 89.4154 423.903C90.4486 422.842 91.85 422.245 93.3113 422.245ZM100.332 434.778C100.332 435.154 100.187 435.513 99.9288 435.779C99.6705 436.044 99.3201 436.193 98.9548 436.193C98.5895 436.193 98.2391 436.044 97.9808 435.779C97.7225 435.513 97.5774 435.154 97.5774 434.778V431.949C97.5774 431.574 97.7225 431.214 97.9808 430.949C98.2391 430.683 98.5895 430.534 98.9548 430.534C99.3201 430.534 99.6705 430.683 99.9288 430.949C100.187 431.214 100.332 431.574 100.332 431.949V434.778Z" fill="#6C618F"/>
<path d="M75.9868 436.463L75.7378 437.137L75.0405 439.021L74.9194 439.348H48.7407C47.9441 439.348 47.2983 438.702 47.2983 437.905C47.2983 437.109 47.9441 436.463 48.7407 436.463H75.9868Z" fill="#6C618F" stroke="#887BB1"/>
<path d="M73.8691 442.117L73.626 442.788L72.9414 444.672L72.8223 445.001H55.0801C54.2835 445.001 53.6377 444.356 53.6377 443.559C53.6377 442.762 54.2835 442.117 55.0801 442.117H73.8691Z" fill="#6C618F" stroke="#887BB1"/>
<path d="M71.7524 447.771L71.5142 448.439L70.8423 450.324L70.7241 450.656H59.3071C58.5105 450.656 57.8647 450.01 57.8647 449.214C57.8647 448.417 58.5105 447.771 59.3071 447.771H71.7524Z" fill="#6C618F" stroke="#887BB1"/>
<path d="M215.504 450.345C215.338 450.153 215.135 450 214.907 449.896C214.679 449.791 214.433 449.738 214.183 449.738H208.781C208.781 448.309 208.825 446.781 207.841 445.77C206.857 444.759 205.879 444.476 204.487 444.476C203.095 444.476 201.761 445.043 200.777 446.054C199.793 447.065 199.178 448.328 198.45 449.738H193.632C193.384 449.739 192.719 449.793 192.493 449.898C192.267 450.002 192.065 450.155 191.9 450.345C191.736 450.534 191.614 450.757 191.54 450.998C191.466 451.24 191.354 451.454 191.3 451.746L190.988 452.588L190.677 453.43L190.365 454.272L190.054 455.114L189.751 456.026L189.378 456.924L189.045 457.773L188.816 458.552L188.193 460.236L187.882 461.079L187.57 461.921L187.259 462.763L186.947 463.605L186.635 464.447L186.324 465.289C186.374 465.728 186.752 466.133 187.075 466.425C187.397 466.718 187.814 466.878 188.244 466.874L208.197 467.086C208.628 467.089 209.044 466.929 209.367 466.636C209.69 466.344 210.128 465.728 210.179 465.289L215.933 451.746C215.962 451.494 215.939 451.24 215.864 450.998C215.79 450.757 215.668 450.534 215.504 450.345ZM200.199 454.229C200.199 454.468 200.107 454.696 199.943 454.865C199.779 455.033 199.557 455.128 199.325 455.128C199.093 455.128 198.87 455.033 198.706 454.865C198.542 454.696 198.45 454.468 198.45 454.229V452.433C198.45 452.195 198.542 451.966 198.706 451.798C198.87 451.629 199.093 451.535 199.325 451.535C199.557 451.535 199.779 451.629 199.943 451.798C200.107 451.966 200.199 452.195 200.199 452.433V454.229ZM204.487 446.272C205.415 446.272 205.948 446.366 206.604 447.04C207.26 447.714 207.003 448.796 207.003 449.749L200.455 449.738C201.414 448.044 201.357 447.998 202.013 447.324C202.669 446.651 203.559 446.272 204.487 446.272ZM208.945 454.229C208.945 454.468 208.853 454.696 208.689 454.865C208.525 455.033 208.302 455.128 208.07 455.128C207.838 455.128 207.616 455.033 207.452 454.865C207.288 454.696 207.196 454.468 207.196 454.229V452.433C207.196 452.195 207.288 451.966 207.452 451.798C207.616 451.629 207.838 451.535 208.07 451.535C208.302 451.535 208.525 451.629 208.689 451.798C208.853 451.966 208.945 452.195 208.945 452.433V454.229Z" fill="#6C618F"/>
<path d="M193.75 455.116L193.5 455.79L193.058 456.986L192.937 457.312H176.188C175.582 457.312 175.09 456.821 175.09 456.215C175.09 455.608 175.582 455.116 176.188 455.116H193.75Z" fill="#6C618F" stroke="#887BB1"/>
<path d="M192.403 458.706L192.16 459.377L191.725 460.573L191.606 460.902H180.213C179.607 460.902 179.115 460.411 179.115 459.805C179.115 459.198 179.607 458.706 180.213 458.706H192.403Z" fill="#6C618F" stroke="#887BB1"/>
<path d="M191.058 462.296L190.819 462.964L190.393 464.161L190.274 464.493H182.897C182.291 464.493 181.799 464.001 181.799 463.395C181.799 462.788 182.291 462.296 182.897 462.296H191.058Z" fill="#6C618F" stroke="#887BB1"/>
<rect width="199" height="16" transform="translate(155 24)" fill="#292A2E"/>
<path d="M159 32.1274C159 32.032 159.085 31.9365 159.203 31.9365H164.628L164.476 32.3183H159.203C159.085 32.3183 159 32.2388 159 32.1274Z" fill="#FA8E44"/>
<path d="M160.301 33.2407C160.301 33.1453 160.386 33.0498 160.504 33.0498H164.205L164.053 33.4316H160.504C160.386 33.4316 160.301 33.3521 160.301 33.2407Z" fill="#FA8E44"/>
<path d="M161.164 34.3545C161.164 34.259 161.248 34.1636 161.366 34.1636H163.766L163.614 34.5454H161.366C161.248 34.5454 161.164 34.4658 161.164 34.3545Z" fill="#FA8E44"/>
<path d="M163.766 34.1797H162.752L162.667 34.4183L162.617 34.5456H163.614L163.766 34.1797Z" fill="#FA8E44"/>
<path d="M164.053 33.4318L164.188 33.0659H163.191L163.056 33.3841L163.039 33.4318H164.053Z" fill="#FA8E44"/>
<path d="M164.628 31.9521H163.614L163.563 32.0794L163.462 32.3181H164.476L164.628 31.9521Z" fill="#FA8E44"/>
<path d="M171.98 30.5205C171.963 30.4409 171.912 30.3773 171.862 30.3136C171.811 30.25 171.743 30.2023 171.676 30.1705C171.608 30.1386 171.524 30.1227 171.439 30.1227H169.698C169.698 29.6773 169.715 29.2 169.394 28.8977C169.073 28.5795 168.769 28.5 168.312 28.5C167.856 28.5 167.434 28.675 167.112 28.9932C166.791 29.3114 166.605 29.6932 166.369 30.1386H164.814C164.729 30.1386 164.527 30.1545 164.442 30.1864C164.375 30.2182 164.307 30.2659 164.256 30.3295C164.206 30.3932 164.172 30.4568 164.138 30.5364C164.121 30.6159 164.07 30.6795 164.053 30.775L163.952 31.0295L163.851 31.2841L163.749 31.5386L163.648 31.7932H164.848L164.594 32.4773H163.394L163.344 32.6205L163.276 32.8591L163.259 32.9068H164.442L164.172 33.5909H162.989L162.972 33.6386L162.87 33.8932L162.82 34.0045H164.003L163.749 34.7045H162.566C162.499 34.8636 162.482 35.0545 162.6 35.1977C162.634 35.2295 162.668 35.2773 162.718 35.3091C162.82 35.4045 162.955 35.4523 163.09 35.4523L169.512 35.5C169.648 35.5 169.783 35.4523 169.884 35.3568C170.138 35.1341 170.205 34.7841 170.34 34.4818L171.895 30.9659C171.98 30.8227 172.031 30.6636 171.98 30.5205ZM166.943 31.5227C166.943 31.6023 166.91 31.6659 166.859 31.7136C166.808 31.7614 166.741 31.7932 166.656 31.7932C166.589 31.7932 166.504 31.7614 166.453 31.7136C166.403 31.6659 166.369 31.5864 166.369 31.5227V30.9659C166.369 30.8864 166.403 30.8227 166.453 30.775C166.504 30.7273 166.572 30.6955 166.656 30.6955C166.724 30.6955 166.808 30.7273 166.859 30.775C166.91 30.8227 166.943 30.9023 166.943 30.9659V31.5227ZM169.124 30.1386H167.011C167.315 29.6136 167.298 29.5977 167.518 29.3909C167.738 29.1841 168.008 29.0727 168.312 29.0727C168.617 29.0727 168.786 29.1045 168.988 29.3114C169.208 29.5023 169.124 29.8364 169.124 30.1386ZM169.749 31.5227C169.749 31.6023 169.715 31.6659 169.664 31.7136C169.614 31.7614 169.546 31.7932 169.462 31.7932C169.394 31.7932 169.31 31.7614 169.259 31.7136C169.208 31.6659 169.174 31.5864 169.174 31.5227V30.9659C169.174 30.8864 169.208 30.8227 169.259 30.775C169.31 30.7273 169.377 30.6955 169.462 30.6955C169.529 30.6955 169.614 30.7273 169.664 30.775C169.715 30.8227 169.749 30.9023 169.749 30.9659V31.5227Z" fill="#FA8E44"/>
<rect x="179" y="27" width="154" height="10" rx="5" fill="#FFFAFF"/>
<path d="M346.719 31.6875C346.719 32.0274 346.618 32.3597 346.429 32.6424C346.24 32.925 345.972 33.1453 345.658 33.2754C345.344 33.4055 344.998 33.4395 344.665 33.3732C344.331 33.3069 344.025 33.1432 343.785 32.9028C343.544 32.6625 343.381 32.3562 343.314 32.0228C343.248 31.6894 343.282 31.3438 343.412 31.0298C343.542 30.7157 343.762 30.4473 344.045 30.2584C344.328 30.0696 344.66 29.9688 345 29.9688C345.456 29.9693 345.893 30.1505 346.215 30.4727C346.537 30.7949 346.718 31.2318 346.719 31.6875ZM349.063 32C349.063 32.8035 348.824 33.5889 348.378 34.257C347.931 34.9251 347.297 35.4458 346.555 35.7533C345.812 36.0607 344.995 36.1412 344.207 35.9844C343.419 35.8277 342.696 35.4408 342.127 34.8726C341.559 34.3045 341.172 33.5806 341.016 32.7926C340.859 32.0045 340.939 31.1877 341.247 30.4453C341.554 29.703 342.075 29.0685 342.743 28.6222C343.411 28.1758 344.197 27.9375 345 27.9375C346.077 27.9386 347.11 28.367 347.871 29.1286C348.633 29.8903 349.061 30.9229 349.063 32ZM348.438 32C348.437 31.5373 348.343 31.0795 348.162 30.6539C347.98 30.2283 347.715 29.8437 347.381 29.523C347.048 29.2024 346.653 28.9523 346.22 28.7877C345.788 28.6232 345.327 28.5475 344.864 28.5652C343.025 28.6363 341.557 30.1688 341.563 32.0098C341.564 32.8479 341.873 33.6562 342.431 34.2816C342.658 33.9521 342.947 33.6695 343.281 33.4492C343.31 33.4304 343.344 33.4214 343.378 33.4237C343.412 33.4259 343.444 33.4393 343.47 33.4617C343.895 33.829 344.437 34.0312 344.999 34.0312C345.56 34.0312 346.103 33.829 346.528 33.4617C346.553 33.4393 346.586 33.4259 346.62 33.4237C346.654 33.4214 346.688 33.4304 346.716 33.4492C347.051 33.6694 347.34 33.952 347.568 34.2816C348.128 33.6539 348.438 32.8416 348.438 32Z" fill="#FA8E44"/>
</g>
<defs>
<clipPath id="clip0_2633_1884">
<rect width="510" height="488" fill="white"/>
</clipPath>
</defs>
</svg>
