<svg width="510" height="500" viewBox="0 0 510 500" fill="none" xmlns="http://www.w3.org/2000/svg">
<g clip-path="url(#clip0_2930_2663)">
<path d="M510.141 329.757H314.493V216.665H510.141V329.757ZM315.686 328.564H508.947V217.857H315.686V328.564Z" fill="#E0E0E0"/>
<path d="M469.779 276.967H340.696V280.747H469.779V276.967Z" fill="#F0F0F0"/>
<path d="M478.673 291.062H340.696V295.187H478.673V291.062Z" fill="#F0F0F0"/>
<path d="M478.673 305.323H340.696V309.449H478.673V305.323Z" fill="#F0F0F0"/>
<path d="M385.809 256.492H340.696V266.306H385.809V256.492Z" fill="#F0F0F0"/>
<path d="M509.544 217.261H315.125V235.267H509.544V217.261Z" fill="#E0E0E0"/>
<path d="M494.586 232.572C494.335 232.333 496.842 229.316 500.173 225.834C503.503 222.353 506.428 219.717 506.667 219.944C506.905 220.17 504.41 223.199 501.08 226.693C497.749 230.187 494.824 232.81 494.586 232.572Z" fill="white"/>
<path d="M506.691 232.572C506.452 232.81 503.539 230.187 500.197 226.693C496.854 223.199 494.359 220.182 494.61 219.944C494.86 219.705 497.761 222.329 501.104 225.834C504.446 229.34 506.917 232.333 506.691 232.572Z" fill="white"/>
<path d="M269.392 -6.69385H74.9731V105.218H269.392V-6.69385Z" fill="#E6E6E6"/>
<path d="M229.639 53.0244H100.556V56.8045H229.639V53.0244Z" fill="#F0F0F0"/>
<path d="M238.532 67.1191H100.556V71.245H238.532V67.1191Z" fill="#F0F0F0"/>
<path d="M238.532 81.3809H100.556V85.5067H238.532V81.3809Z" fill="#F0F0F0"/>
<path d="M145.669 32.5498H100.556V42.3637H145.669V32.5498Z" fill="#F0F0F0"/>
<path d="M269.392 -6.69385H74.9731V11.3122H269.392V-6.69385Z" fill="#E0E0E0"/>
<path d="M253.777 8.53397C253.526 8.30741 256.033 5.27857 259.364 1.79661C262.695 -1.68535 265.619 -4.32067 265.858 -4.08218C266.097 -3.84369 263.602 -0.826783 260.271 2.65518C256.941 6.13714 254.016 8.74861 253.777 8.53397Z" fill="white"/>
<path d="M265.858 8.53355C265.619 8.77204 262.707 6.14864 259.364 2.65475C256.021 -0.839134 253.526 -3.84411 253.777 -4.0826C254.028 -4.32109 256.929 -1.6977 260.271 1.79619C263.614 5.29007 266.109 8.30698 265.858 8.53355Z" fill="white"/>
<path d="M195.759 201.198H0.146973V88.0942H195.759V201.198ZM1.34075 200.006H194.566V89.2867H1.34075V200.006Z" fill="#E0E0E0"/>
<path d="M155.41 148.409H26.3267V152.189H155.41V148.409Z" fill="#F0F0F0"/>
<path d="M164.303 162.503H26.3267V166.629H164.303V162.503Z" fill="#F0F0F0"/>
<path d="M164.303 176.765H26.3267V180.891H164.303V176.765Z" fill="#F0F0F0"/>
<path d="M71.4395 127.934H26.3267V137.748H71.4395V127.934Z" fill="#F0F0F0"/>
<path d="M195.162 88.6904H0.743652V106.696H195.162V88.6904Z" fill="#E0E0E0"/>
<path d="M421.515 227.11H191.951V432.403H421.515V227.11Z" fill="#E6E6E6"/>
<path d="M203.495 162.444H23.6646V349.075H203.495V162.444Z" fill="#F0F0F0"/>
<path d="M203.495 162.444H23.6646V182.775H203.495V162.444Z" fill="#E0E0E0"/>
<path d="M38.5151 172.4C38.4824 173.138 38.2336 173.849 37.7997 174.446C37.3658 175.044 36.7659 175.501 36.0743 175.76C35.3828 176.02 34.6301 176.071 33.9097 175.908C33.1893 175.744 32.5328 175.373 32.0218 174.84C31.5109 174.307 31.1678 173.635 31.0353 172.909C30.9028 172.183 30.9866 171.434 31.2764 170.756C31.5662 170.077 32.0491 169.498 32.6654 169.091C33.2816 168.683 34.0039 168.466 34.7428 168.465C35.7645 168.49 36.7347 168.918 37.4415 169.656C38.1484 170.393 38.5343 171.38 38.5151 172.4Z" fill="white"/>
<path d="M53.831 172.4C53.8006 173.141 53.5527 173.857 53.1183 174.458C52.6839 175.059 52.0821 175.519 51.3878 175.781C50.6935 176.043 49.9374 176.096 49.2135 175.932C48.4896 175.768 47.83 175.395 47.3167 174.86C46.8033 174.324 46.459 173.65 46.3264 172.92C46.1939 172.191 46.2791 171.439 46.5713 170.757C46.8635 170.076 47.35 169.495 47.97 169.087C48.5901 168.68 49.3164 168.464 50.0587 168.465C51.0803 168.49 52.0506 168.918 52.7574 169.656C53.4643 170.393 53.8502 171.38 53.831 172.4Z" fill="white"/>
<path d="M69.1474 172.4C69.117 173.141 68.8691 173.857 68.4347 174.458C68.0003 175.059 67.3985 175.519 66.7042 175.781C66.0099 176.043 65.2538 176.096 64.5299 175.932C63.8061 175.768 63.1464 175.395 62.6331 174.86C62.1197 174.324 61.7754 173.65 61.6428 172.92C61.5103 172.191 61.5955 171.439 61.8877 170.757C62.1799 170.076 62.6664 169.495 63.2864 169.087C63.9065 168.68 64.6328 168.464 65.3751 168.465C66.3968 168.49 67.367 168.918 68.0738 169.656C68.7807 170.393 69.1666 171.38 69.1474 172.4Z" fill="white"/>
<path d="M484.462 34.124H254.899V262.67H484.462V34.124Z" fill="#F0F0F0"/>
<path d="M484.462 34.124H254.899V60.8946H484.462V34.124Z" fill="#E0E0E0"/>
<path d="M274.453 47.2409C274.411 48.2141 274.084 49.1535 273.512 49.9426C272.94 50.7316 272.149 51.3354 271.236 51.6791C270.324 52.0227 269.33 52.0911 268.379 51.8757C267.428 51.6602 266.561 51.1705 265.886 50.4673C265.212 49.7641 264.758 48.8784 264.583 47.9201C264.408 46.9618 264.518 45.9732 264.9 45.077C265.283 44.1809 265.92 43.4166 266.733 42.8791C267.547 42.3416 268.5 42.0546 269.475 42.0537C270.823 42.085 272.104 42.6484 273.037 43.6205C273.97 44.5927 274.479 45.8944 274.453 47.2409Z" fill="white"/>
<path d="M293.16 43.735C293.821 44.4529 294.257 45.3494 294.412 46.3129C294.568 47.2764 294.436 48.2643 294.033 49.1534C293.63 50.0425 292.974 50.7936 292.147 51.313C291.32 51.8324 290.358 52.0973 289.381 52.0745C288.405 52.0517 287.456 51.7424 286.654 51.185C285.852 50.6276 285.232 49.8468 284.871 48.9399C284.511 48.033 284.425 47.04 284.625 46.0848C284.825 45.1296 285.302 44.2543 285.997 43.568C286.97 42.6432 288.27 42.1415 289.613 42.1728C290.955 42.2041 292.231 42.7658 293.16 43.735Z" fill="white"/>
<path d="M314.779 47.2409C314.737 48.2141 314.41 49.1535 313.838 49.9426C313.266 50.7316 312.474 51.3354 311.562 51.6791C310.649 52.0227 309.656 52.0911 308.705 51.8757C307.754 51.6602 306.887 51.1705 306.212 50.4673C305.537 49.7641 305.084 48.8784 304.909 47.9201C304.733 46.9618 304.844 45.9732 305.226 45.077C305.608 44.1809 306.246 43.4166 307.059 42.8791C307.872 42.3416 308.826 42.0546 309.801 42.0537C311.149 42.085 312.429 42.6484 313.362 43.6205C314.295 44.5927 314.805 45.8944 314.779 47.2409Z" fill="white"/>
<path d="M434.873 493.04C434.873 493.206 351.977 493.35 249.754 493.35C147.531 493.35 64.5991 493.206 64.5991 493.04C64.5991 492.873 147.483 492.729 249.754 492.729C352.025 492.729 434.873 492.885 434.873 493.04Z" fill="#263238"/>
<path d="M354.102 347.059C335.658 334.193 331.48 310.308 332.208 288.832C332.327 285.255 331.933 281.463 333.641 278.326C335.348 275.19 339.335 273.032 342.546 274.534C345.208 275.787 346.366 278.887 347.858 281.451C349.849 284.865 352.767 287.648 356.275 289.476C358.555 290.668 361.384 291.384 363.64 290.144C366.744 288.438 367.102 284.181 367.078 280.604C367.078 273.95 367.038 267.304 366.959 260.666C366.744 257.102 367.107 253.526 368.033 250.077C369.143 246.691 371.615 243.555 374.993 242.601C378.371 241.647 382.585 243.614 383.349 247.096C383.481 248.571 383.517 250.053 383.457 251.532C383.552 253.023 384.245 254.656 385.641 255.109C387.038 255.563 388.495 254.525 389.569 253.476C393.246 249.898 395.753 245.236 398.081 240.633C400.408 236.03 402.689 231.296 406.031 227.373C409.374 223.45 413.994 220.337 419.163 220.039C424.332 219.741 429.716 222.913 431.005 227.921C432.294 232.93 429.37 238.045 426.23 242.112C421.492 248.147 415.907 253.469 409.648 257.912C408.427 258.578 407.451 259.619 406.867 260.881C406.091 263.266 408.347 265.651 410.699 266.402C413.361 267.284 416.25 267.01 419.055 267.344C421.861 267.678 424.845 268.894 425.908 271.518C427.364 275.166 424.308 278.982 421.312 281.486C415.295 286.495 408.463 290.435 401.113 293.137C398.487 294.091 395.729 294.937 393.604 296.774C391.479 298.61 390.214 301.818 391.491 304.334C392.768 306.85 396.051 307.649 398.809 307.136C401.566 306.623 404.014 305.145 406.64 304.155C411.546 302.307 417.873 302.641 420.965 306.874C421.923 308.332 422.53 309.992 422.737 311.724C422.944 313.456 422.746 315.212 422.159 316.855C420.964 320.124 419.125 323.12 416.751 325.667C408.933 334.998 398.774 342.088 387.313 346.213C375.936 350.148 365.395 351.221 354.09 347.083" fill="#FA8E44"/>
<path d="M425.752 222.985C425.752 222.985 425.645 223.104 425.406 223.319L424.344 224.261C423.413 225.095 422.04 226.312 420.309 227.922C415.401 232.473 410.844 237.388 406.676 242.625C404.014 245.928 401.256 249.672 398.319 253.738C395.383 257.804 392.35 262.193 389.342 266.855C386.135 271.772 383.198 276.859 380.544 282.095C379.159 284.825 377.942 287.675 376.688 290.585L372.987 299.469C368.109 310.659 363.861 322.112 360.262 333.776C357.363 343.319 355.364 353.112 354.293 363.027C353.599 369.718 353.487 376.456 353.959 383.167C354.15 385.552 354.329 387.376 354.496 388.617C354.567 389.213 354.615 389.69 354.663 390.036V390.524C354.612 390.369 354.576 390.21 354.555 390.048C354.496 389.702 354.424 389.237 354.329 388.64C354.114 387.448 353.887 385.564 353.672 383.179C353.096 376.456 353.136 369.695 353.791 362.979C354.796 353.021 356.751 343.183 359.629 333.597C363.198 321.901 367.435 310.418 372.319 299.206L376.115 290.358C377.369 287.461 378.598 284.587 379.995 281.844C382.667 276.593 385.628 271.493 388.865 266.569C391.921 261.799 395.001 257.483 397.902 253.452C400.802 249.422 403.608 245.653 406.258 242.362C410.468 237.14 415.087 232.259 420.07 227.767C421.837 226.181 423.245 224.988 424.2 224.189L425.311 223.295C425.447 223.177 425.595 223.073 425.752 222.985Z" fill="#263238"/>
<path d="M380.15 281.82C379.982 281.329 379.866 280.822 379.804 280.306C379.613 279.316 379.398 277.921 379.147 276.108C378.634 272.531 378.109 267.63 377.548 262.204C376.987 256.779 376.354 251.866 375.829 248.324C375.554 246.56 375.315 245.141 375.148 244.151C375.018 243.644 374.95 243.124 374.945 242.601C375.151 243.078 375.299 243.579 375.387 244.091C375.65 245.069 375.948 246.476 376.282 248.253C376.963 251.83 377.631 256.695 378.192 262.133C378.753 267.571 379.231 272.34 379.601 276.049C379.78 277.718 379.935 279.137 380.055 280.27C380.147 280.781 380.179 281.302 380.15 281.82Z" fill="#263238"/>
<path d="M426.087 273.259C425.506 273.385 424.914 273.457 424.32 273.473C423.126 273.58 421.431 273.724 419.33 273.962C415.128 274.415 409.35 275.25 403.011 276.442C396.672 277.635 390.978 278.982 386.883 280.02C384.842 280.544 383.194 281.021 382.108 281.343C381.528 281.549 380.928 281.693 380.317 281.773C380.869 281.495 381.444 281.268 382.036 281.093C383.159 280.699 384.782 280.151 386.812 279.567C390.882 278.374 396.577 276.955 402.939 275.739C408.329 274.709 413.768 273.953 419.235 273.473C421.347 273.294 423.055 273.223 424.248 273.199C424.862 273.157 425.478 273.177 426.087 273.259Z" fill="#263238"/>
<path d="M360.214 332.762C360.087 332.589 359.982 332.401 359.903 332.201L359.116 330.544C358.435 329.101 357.516 326.967 356.418 324.355C354.197 319.108 351.368 311.763 348.36 303.606C345.351 295.45 342.582 288.104 340.481 282.798C339.454 280.222 338.606 278.112 337.974 276.538L337.305 274.833C337.213 274.636 337.148 274.427 337.114 274.212C337.242 274.385 337.346 274.573 337.425 274.773L338.213 276.43C338.881 277.873 339.812 280.008 340.91 282.619C343.131 287.866 345.96 295.212 348.968 303.368C351.977 311.524 354.746 318.87 356.847 324.176C357.874 326.752 358.722 328.863 359.342 330.437C359.617 331.116 359.844 331.629 360.023 332.142C360.116 332.338 360.18 332.547 360.214 332.762Z" fill="#263238"/>
<path d="M421.192 313.122C421.001 313.232 420.796 313.316 420.583 313.372L418.817 313.969L412.287 316.079C406.771 317.868 399.155 320.42 390.799 323.234C382.442 326.048 374.79 328.552 369.239 330.222C366.469 331.068 364.213 331.712 362.649 332.142L360.847 332.607C360.637 332.673 360.421 332.717 360.202 332.738C360.393 332.628 360.598 332.544 360.811 332.487L362.578 331.891L369.108 329.781C374.623 327.992 382.239 325.44 390.596 322.626C398.952 319.812 406.592 317.308 412.143 315.638C414.925 314.791 417.169 314.148 418.745 313.718L420.548 313.253C420.757 313.187 420.973 313.143 421.192 313.122Z" fill="#263238"/>
<path d="M396.314 23.869L390.166 26.0631L387.528 18.0379C382.681 3.23952 367.234 -4.61875 353.04 0.377631C338.846 5.37401 331.289 21.6033 336.136 36.4016L338.774 44.4268L332.602 46.6329C330.249 47.5447 328.338 49.3274 327.266 51.6103C326.194 53.8933 326.045 56.501 326.848 58.8913L343.955 111.109C344.31 112.292 344.9 113.392 345.689 114.343C346.478 115.294 347.45 116.077 348.548 116.646C349.646 117.214 350.847 117.556 352.08 117.652C353.313 117.748 354.553 117.595 355.726 117.202L419.438 94.4383C421.822 93.5281 423.76 91.7296 424.845 89.4212C425.929 87.1127 426.075 84.4743 425.251 82.0606L408.133 29.8431C407.768 28.6632 407.17 27.5686 406.373 26.6247C405.575 25.6808 404.596 24.907 403.493 24.3495C402.39 23.7919 401.186 23.462 399.953 23.3794C398.719 23.2969 397.482 23.4634 396.314 23.869ZM347.751 32.2161C346.444 28.3683 346.679 24.1647 348.406 20.4858C350.133 16.8069 353.218 13.9383 357.015 12.481C358.89 11.8402 360.875 11.5833 362.851 11.7255C364.828 11.8677 366.756 12.4061 368.519 13.3087C370.283 14.2112 371.847 15.4594 373.117 16.9787C374.387 18.4981 375.338 20.2574 375.912 22.1518L378.539 30.177L350.378 40.2413L347.751 32.2161ZM383.565 78.5548L387.934 91.8865C388.014 92.1538 387.988 92.4417 387.861 92.6904C387.735 92.9391 387.517 93.1295 387.253 93.222L381.129 95.4042C380.886 95.4717 380.625 95.4424 380.403 95.3223C380.18 95.2023 380.013 95.0009 379.936 94.7603L375.53 81.4883C373.102 81.3561 370.771 80.4858 368.851 78.994C366.931 77.5023 365.513 75.4602 364.786 73.1411C363.748 70.0752 363.938 66.727 365.315 63.7975C366.692 60.8679 369.151 58.5842 372.176 57.4246C373.67 56.9148 375.251 56.7107 376.825 56.8243C378.399 56.9378 379.934 57.3668 381.339 58.0857C382.744 58.8045 383.989 59.7985 385.001 61.0083C386.013 62.2182 386.771 63.6192 387.229 65.1278C387.998 67.4836 388.061 70.0119 387.412 72.4032C386.763 74.7944 385.43 76.9447 383.577 78.5906L383.565 78.5548Z" fill="#FA8E44"/>
<path d="M389.891 25.9198C389.891 26.0867 378.491 30.3676 364.309 35.4594C350.127 40.5512 338.559 44.6413 338.499 44.522C338.44 44.4028 349.9 40.0861 364.094 34.9824C378.288 29.8787 389.832 25.7648 389.891 25.9198Z" fill="#263238"/>
<path d="M403.429 28.1143C403.481 28.2177 403.525 28.3254 403.56 28.4362C403.656 28.6747 403.763 28.9847 403.906 29.3663C404.217 30.2368 404.646 31.4412 405.184 32.9437L409.768 46.2753C411.678 51.9275 413.958 58.6291 416.489 66.07C417.682 69.8024 419.091 73.6898 420.404 77.7799C421.107 79.8876 421.411 82.1077 421.3 84.3265C421.198 85.4804 420.87 86.603 420.333 87.6296C419.759 88.6528 418.993 89.5557 418.076 90.2887C416.232 91.6336 414.185 92.6761 412.012 93.3772L405.864 95.5832L394.225 99.7449L374.515 106.757L361.205 111.431L357.624 112.623L356.668 112.933C356.566 112.979 356.457 113.007 356.346 113.017C356.346 113.017 356.442 113.017 356.645 112.874L357.576 112.504L361.157 111.157L374.396 106.291L394.07 99.1368L405.685 94.9393L411.833 92.7214C413.944 92.0488 415.932 91.0379 417.718 89.7283C418.571 89.0481 419.284 88.21 419.819 87.2599C420.325 86.3105 420.63 85.2673 420.715 84.1953C420.825 82.0575 420.533 79.918 419.855 77.8872C418.566 73.8329 417.205 69.9097 415.975 66.1774C413.492 58.7245 411.2 51.9991 409.386 46.3469C407.571 40.6946 406.043 36.1514 404.993 32.9556C404.491 31.3935 404.109 30.1772 403.799 29.2948L403.512 28.3408C403.476 28.2686 403.448 28.1926 403.429 28.1143Z" fill="#263238"/>
<path d="M369.812 11.67C369.812 11.67 369.179 11.36 368.009 10.883C366.342 10.243 364.578 9.8882 362.793 9.83362C360.146 9.74296 357.512 10.2398 355.081 11.2884C352.124 12.5941 349.596 14.7061 347.787 17.3818C345.965 20.05 344.988 23.2031 344.981 26.4326C345.006 29.0795 345.408 31.7094 346.175 34.2431C346.796 36.4134 347.441 38.1425 347.87 39.3468C348.124 39.9586 348.331 40.5883 348.491 41.2309C348.152 40.6589 347.868 40.056 347.644 39.4303C347.154 38.2378 346.45 36.5446 345.757 34.3624C344.907 31.802 344.445 29.1293 344.385 26.4326C344.353 23.0811 345.353 19.8008 347.25 17.036C349.122 14.2625 351.753 12.0853 354.83 10.7637C357.337 9.7094 360.053 9.24432 362.769 9.40433C364.593 9.4972 366.385 9.92149 368.057 10.6564C368.504 10.8624 368.935 11.1016 369.346 11.3719C369.516 11.4464 369.673 11.547 369.812 11.67Z" fill="#263238"/>
<path d="M370.361 58.3306C370.552 58.2153 370.752 58.1156 370.958 58.0325C371.556 57.7632 372.175 57.5438 372.809 57.3767C373.815 57.08 374.853 56.9039 375.901 56.852C377.326 56.7755 378.752 56.9906 380.091 57.484C383.147 58.5572 385.952 61.6695 387.337 65.8312C388.001 68.0645 388.001 70.4425 387.337 72.6759C386.601 75.0998 385.281 77.3066 383.493 79.1032L383.565 78.7812C385.152 83.1337 386.883 87.8558 388.674 92.7806L388.781 93.0787L388.483 93.186L385.749 94.0923L379.78 96.0837L379.482 96.1791L379.386 95.881C377.751 90.9442 375.96 86.3414 374.611 81.822L374.874 82.0247C372.54 81.8311 370.315 80.956 368.475 79.5086C366.811 78.2281 365.446 76.6003 364.476 74.7388C363.601 73.088 363.165 71.2402 363.211 69.3728C363.266 67.4642 363.743 65.5914 364.608 63.8886C365.473 62.1858 366.704 60.695 368.213 59.5231C368.834 59.0194 369.531 58.617 370.278 58.3306C369.604 58.7303 368.95 59.1641 368.32 59.6304C366.662 61.0314 365.392 62.8338 364.631 64.8653C363.978 66.3972 363.673 68.0545 363.737 69.7183C363.801 71.3821 364.233 73.0111 365.001 74.4884C365.955 76.2792 367.287 77.8416 368.905 79.0674C370.66 80.4432 372.782 81.2726 375.005 81.4523H375.208L375.268 81.6312C376.581 86.0671 378.384 90.7057 380.043 95.6663L379.649 95.4756L385.618 93.4841L388.34 92.566L388.149 92.9714C386.37 88.0466 384.651 83.3125 383.075 78.9601V78.7812L383.218 78.6381C384.954 76.9161 386.248 74.8013 386.991 72.4731C387.624 70.3368 387.624 68.0629 386.991 65.9266C385.69 61.9199 383.004 58.8792 380.091 57.806C378.801 57.3093 377.425 57.0781 376.044 57.1263C375.013 57.1499 373.987 57.2899 372.988 57.5436C371.209 57.9848 370.373 58.3903 370.361 58.3306Z" fill="#263238"/>
<path d="M333.462 402.639L214.215 402.091C207.329 402.053 200.739 399.286 195.893 394.399C191.047 389.511 188.341 382.903 188.37 376.024L189.635 77.4216C189.649 74.0137 190.336 70.6419 191.655 67.499C192.974 64.3561 194.901 61.5038 197.324 59.1051C199.748 56.7064 202.621 54.8083 205.779 53.5194C208.938 52.2304 212.319 51.5758 215.731 51.5931L334.966 52.1416C341.852 52.1763 348.443 54.9398 353.291 59.8251C358.14 64.7103 360.848 71.3179 360.823 78.1967L359.558 376.787C359.544 380.196 358.857 383.569 357.538 386.713C356.219 389.857 354.293 392.711 351.87 395.112C349.447 397.512 346.574 399.413 343.415 400.704C340.257 401.996 336.874 402.653 333.462 402.639Z" fill="#455A64"/>
<path d="M334.787 62.4087H311.675C310.921 62.4226 310.177 62.5849 309.486 62.8861C308.794 63.1873 308.169 63.6216 307.646 64.1642C307.123 64.7068 306.712 65.3471 306.436 66.0484C306.161 66.7498 306.026 67.4984 306.04 68.2517V72.4372C306.055 73.1899 305.92 73.938 305.644 74.6386C305.369 75.3393 304.957 75.9788 304.434 76.5204C303.911 77.0621 303.285 77.4953 302.594 77.7952C301.903 78.0951 301.159 78.2559 300.406 78.2683L255.353 78.0656C253.828 78.025 252.383 77.3818 251.333 76.2774C250.283 75.1729 249.715 73.6974 249.754 72.1749V67.9894C249.792 66.4689 249.226 64.9951 248.179 63.891C247.132 62.7869 245.689 62.1423 244.167 62.0986H236.037L215.803 62.0033C210.99 61.9746 206.362 63.8521 202.932 67.2247C199.502 70.5972 197.549 75.19 197.502 79.9974L196.308 371.457C196.297 373.842 196.757 376.205 197.66 378.413C198.564 380.621 199.894 382.629 201.574 384.323C203.255 386.017 205.253 387.364 207.455 388.287C209.656 389.21 212.018 389.69 214.406 389.701L333.402 390.25C335.791 390.261 338.159 389.802 340.37 388.898C342.582 387.995 344.594 386.666 346.291 384.986C347.988 383.306 349.337 381.309 350.262 379.108C351.186 376.908 351.668 374.547 351.678 372.16L352.872 80.7009C352.901 75.88 351.012 71.245 347.62 67.8149C344.229 64.3848 339.613 62.4402 334.787 62.4087Z" fill="white"/>
<path d="M318.778 351.364L230.295 350.982C229.376 350.982 228.636 349.981 228.648 348.764L228.743 325.643C228.743 324.45 229.495 323.425 230.414 323.425L318.897 323.83C319.407 323.918 319.862 324.199 320.169 324.615C320.476 325.03 320.611 325.548 320.545 326.06L320.461 349.158C320.461 350.386 319.697 351.376 318.778 351.364Z" fill="#FA8E44"/>
<path d="M254.65 341V333.525H259.686V334.828H256.23V336.609H259.427V337.912H256.23V339.697H259.701V341H254.65ZM267.195 333.525V341H265.83L262.578 336.295H262.523V341H260.943V333.525H262.33L265.556 338.226H265.622V333.525H267.195ZM268.216 334.828V333.525H274.355V334.828H272.067V341H270.505V334.828H268.216ZM275.366 341V333.525H278.315C278.88 333.525 279.362 333.626 279.761 333.828C280.162 334.028 280.467 334.311 280.677 334.678C280.888 335.043 280.994 335.473 280.994 335.967C280.994 336.463 280.887 336.89 280.673 337.248C280.459 337.603 280.149 337.876 279.742 338.066C279.338 338.255 278.849 338.35 278.275 338.35H276.301V337.08H278.02C278.321 337.08 278.572 337.039 278.771 336.956C278.971 336.873 279.119 336.749 279.217 336.584C279.316 336.418 279.366 336.213 279.366 335.967C279.366 335.719 279.316 335.509 279.217 335.339C279.119 335.169 278.97 335.04 278.768 334.952C278.568 334.862 278.316 334.817 278.012 334.817H276.947V341H275.366ZM279.403 337.598L281.261 341H279.516L277.698 337.598H279.403ZM283.399 341H281.706L284.286 333.525H286.323L288.9 341H287.206L285.334 335.233H285.275L283.399 341ZM283.294 338.062H287.294V339.296H283.294V338.062ZM289.799 341V333.525H292.749C293.313 333.525 293.795 333.626 294.194 333.828C294.595 334.028 294.901 334.311 295.11 334.678C295.322 335.043 295.427 335.473 295.427 335.967C295.427 336.463 295.32 336.89 295.106 337.248C294.892 337.603 294.582 337.876 294.176 338.066C293.772 338.255 293.283 338.35 292.708 338.35H290.734V337.08H292.453C292.755 337.08 293.005 337.039 293.205 336.956C293.404 336.873 293.553 336.749 293.65 336.584C293.75 336.418 293.8 336.213 293.8 335.967C293.8 335.719 293.75 335.509 293.65 335.339C293.553 335.169 293.403 335.04 293.201 334.952C293.002 334.862 292.75 334.817 292.446 334.817H291.38V341H289.799ZM293.836 337.598L295.694 341H293.949L292.132 337.598H293.836Z" fill="#FFFAFF"/>
<path d="M247.944 148.086L217.241 147.947L217.215 153.576L247.919 153.715L247.944 148.086Z" fill="#FA8E44"/>
<path opacity="0.1" d="M247.944 148.086L217.241 147.947L217.215 153.576L247.919 153.715L247.944 148.086Z" fill="black"/>
<path d="M337.95 182.644C338.191 182.619 338.428 182.563 338.654 182.477C338.985 182.348 339.272 182.128 339.483 181.843C339.694 181.559 339.821 181.22 339.848 180.867C339.848 178.971 339.848 176.204 339.848 172.651C339.848 170.874 339.848 168.883 339.848 166.688C339.848 166.152 339.848 165.591 339.848 165.031C339.926 164.487 339.807 163.933 339.514 163.469C339.35 163.246 339.136 163.065 338.889 162.938C338.643 162.812 338.37 162.745 338.093 162.741H336.231H318.981L219.133 162.372C218.878 162.367 218.625 162.425 218.396 162.539C218.168 162.653 217.97 162.821 217.82 163.028C217.532 163.494 217.422 164.049 217.51 164.59C217.51 165.782 217.51 166.975 217.51 168.167C217.51 170.552 217.51 172.937 217.51 175.322C217.51 176.514 217.51 177.707 217.51 178.899C217.46 179.455 217.46 180.013 217.51 180.569C217.573 180.807 217.689 181.027 217.851 181.213C218.012 181.399 218.214 181.546 218.441 181.642C218.676 181.735 218.928 181.78 219.181 181.773H225.257L251.771 181.916L296.657 182.19L326.92 182.429L335.145 182.524H337.282C337.771 182.524 338.01 182.524 338.01 182.524H337.282H335.145H326.92H296.657L251.771 182.381L225.257 182.274H219.181C218.847 182.287 218.513 182.23 218.202 182.107C217.888 181.973 217.608 181.769 217.385 181.511C217.161 181.252 217 180.946 216.913 180.616C216.844 180.303 216.82 179.982 216.841 179.662V178.78C216.841 177.588 216.841 176.395 216.841 175.203C216.841 172.818 216.841 170.433 216.841 168.048C216.841 166.855 216.841 165.663 216.841 164.471C216.819 164.153 216.819 163.834 216.841 163.517C216.886 163.166 217.022 162.833 217.235 162.551C217.441 162.263 217.714 162.029 218.03 161.869C218.346 161.709 218.696 161.628 219.05 161.632L318.897 162.181L336.147 162.3H338.01C338.338 162.301 338.661 162.38 338.952 162.531C339.243 162.683 339.493 162.902 339.681 163.171C340.018 163.689 340.153 164.312 340.063 164.924C340.063 165.484 340.063 166.045 340.063 166.581C340.063 168.751 340.063 170.743 340.063 172.543C340.063 176.121 339.979 178.863 339.956 180.771C339.926 181.138 339.793 181.489 339.571 181.783C339.349 182.076 339.047 182.301 338.702 182.429C338.476 182.569 338.216 182.643 337.95 182.644Z" fill="#E0E0E0"/>
<path d="M282.619 168.358H226.463V173.617H282.619V168.358Z" fill="#FA8E44"/>
<path opacity="0.2" d="M282.619 168.358H226.463V173.617H282.619V168.358Z" fill="white"/>
<path d="M247.735 199.432L217.031 199.293L217.006 204.921L247.709 205.06L247.735 199.432Z" fill="#FA8E44"/>
<path opacity="0.1" d="M247.735 199.432L217.031 199.293L217.006 204.921L247.709 205.06L247.735 199.432Z" fill="black"/>
<path d="M337.174 233.991C337.415 233.961 337.654 233.917 337.89 233.86C338.224 233.754 338.531 233.577 338.79 233.343C339.05 233.108 339.256 232.821 339.394 232.5C339.582 232.019 339.656 231.5 339.609 230.986C339.609 230.413 339.609 229.793 339.609 229.102C339.609 227.718 339.609 226.144 339.609 224.332V216.76C339.666 216.212 339.545 215.66 339.263 215.186C338.969 214.7 338.506 214.339 337.962 214.172C337.367 214.066 336.762 214.034 336.159 214.077H318.981L219.48 213.707C218.944 213.708 218.428 213.904 218.026 214.257C217.624 214.61 217.364 215.097 217.295 215.627C217.295 216.76 217.295 218.012 217.295 219.204C217.295 221.589 217.295 223.974 217.295 226.359C217.295 227.551 217.295 228.744 217.295 229.936C217.25 230.494 217.274 231.054 217.367 231.606C217.516 232.089 217.822 232.509 218.238 232.798C218.679 233.078 219.197 233.211 219.718 233.18H221.378H224.828L251.246 233.311L295.977 233.585L326.132 233.824L334.333 233.919H336.47H337.186H336.47H334.333H326.132H295.977L251.222 233.871L224.804 233.776H219.611C218.965 233.814 218.324 233.643 217.784 233.287C217.241 232.911 216.845 232.359 216.662 231.725C216.555 231.119 216.523 230.502 216.567 229.889C216.567 228.696 216.567 227.504 216.567 226.311C216.567 223.926 216.567 221.541 216.567 219.157C216.567 217.964 216.567 216.772 216.567 215.579C216.654 214.897 216.987 214.271 217.503 213.816C218.019 213.362 218.684 213.111 219.372 213.111L318.873 213.659L336.052 213.791C336.692 213.751 337.334 213.795 337.962 213.922C338.582 214.124 339.105 214.549 339.43 215.114C339.739 215.639 339.873 216.249 339.812 216.855C339.812 217.416 339.812 217.964 339.812 218.513C339.812 220.671 339.812 222.65 339.812 224.475C339.812 226.299 339.812 227.838 339.812 229.245C339.812 229.924 339.812 230.556 339.812 231.141C339.856 231.674 339.77 232.21 339.562 232.703C339.407 233.032 339.182 233.324 338.904 233.558C338.626 233.793 338.301 233.965 337.95 234.062C337.689 234.084 337.427 234.06 337.174 233.991Z" fill="#E0E0E0"/>
<path d="M247.503 253.007L216.8 252.868L216.774 258.497L247.478 258.636L247.503 253.007Z" fill="#FA8E44"/>
<path opacity="0.1" d="M247.503 253.007L216.8 252.868L216.774 258.497L247.478 258.636L247.503 253.007Z" fill="black"/>
<path d="M336.935 287.544C337.177 287.515 337.416 287.471 337.652 287.412C337.983 287.307 338.289 287.132 338.549 286.9C338.808 286.668 339.015 286.383 339.156 286.065C339.343 285.583 339.416 285.065 339.371 284.551C339.371 283.966 339.371 283.358 339.371 282.655C339.371 281.283 339.371 279.697 339.371 277.885V270.313C339.428 269.765 339.306 269.213 339.024 268.739C338.723 268.262 338.262 267.907 337.723 267.737C337.129 267.627 336.524 267.591 335.921 267.63H318.742L219.241 267.26C218.706 267.261 218.189 267.457 217.787 267.81C217.385 268.163 217.126 268.65 217.056 269.18C217.056 270.372 217.056 271.565 217.056 272.757C217.056 275.142 217.056 277.527 217.056 279.912C217.056 281.104 217.056 282.297 217.056 283.489C217.012 284.043 217.036 284.599 217.128 285.147C217.271 285.633 217.579 286.055 217.999 286.339C218.437 286.625 218.958 286.759 219.479 286.721H224.672L251.091 286.864L295.822 287.138L325.976 287.377L334.178 287.472H336.315C336.792 287.472 337.031 287.472 337.031 287.472C337.031 287.472 336.792 287.472 336.315 287.472H334.178H325.976H295.822L251.091 287.341L224.672 287.234H219.479C218.833 287.277 218.191 287.105 217.653 286.745C217.11 286.369 216.713 285.817 216.531 285.183C216.424 284.577 216.392 283.96 216.435 283.346C216.435 282.154 216.435 280.961 216.435 279.769C216.435 277.384 216.435 274.999 216.435 272.614C216.435 271.422 216.435 270.229 216.435 268.977C216.52 268.296 216.85 267.67 217.365 267.215C217.879 266.761 218.542 266.509 219.229 266.509L318.73 267.057L335.909 267.188C336.548 267.149 337.19 267.193 337.819 267.32C338.439 267.522 338.962 267.947 339.287 268.512C339.596 269.037 339.73 269.647 339.669 270.253C339.669 270.814 339.669 271.374 339.669 271.911C339.669 274.069 339.669 276.048 339.669 277.873C339.669 279.697 339.669 281.236 339.669 282.643C339.669 283.322 339.669 283.954 339.669 284.539C339.715 285.072 339.629 285.608 339.418 286.101C339.263 286.43 339.039 286.722 338.761 286.956C338.483 287.191 338.157 287.363 337.807 287.46C337.527 287.556 337.228 287.584 336.935 287.544Z" fill="#E0E0E0"/>
<path d="M281.42 221.192L225.265 220.938L225.241 226.196L281.396 226.451L281.42 221.192Z" fill="#FA8E44"/>
<path opacity="0.2" d="M281.42 221.192L225.265 220.938L225.241 226.196L281.396 226.451L281.42 221.192Z" fill="white"/>
<path d="M230.343 277.813C230.308 278.293 230.132 278.752 229.838 279.133C229.545 279.514 229.145 279.8 228.69 279.957C228.235 280.113 227.743 280.132 227.277 280.013C226.811 279.893 226.39 279.639 226.067 279.282C225.744 278.925 225.533 278.482 225.46 278.007C225.387 277.531 225.455 277.045 225.656 276.608C225.857 276.171 226.182 275.802 226.591 275.548C227 275.294 227.474 275.165 227.955 275.178C228.62 275.215 229.244 275.513 229.691 276.006C230.138 276.499 230.372 277.149 230.343 277.813Z" fill="#FA8E44"/>
<path d="M237.948 277.849C237.971 278.185 237.925 278.523 237.812 278.84C237.7 279.158 237.523 279.449 237.293 279.696C237.063 279.942 236.784 280.139 236.475 280.273C236.165 280.407 235.832 280.477 235.494 280.477C235.157 280.477 234.823 280.407 234.514 280.273C234.204 280.139 233.926 279.942 233.696 279.696C233.466 279.449 233.289 279.158 233.176 278.84C233.064 278.523 233.018 278.185 233.041 277.849C233.018 277.513 233.064 277.176 233.176 276.858C233.289 276.54 233.466 276.249 233.696 276.003C233.926 275.756 234.204 275.56 234.514 275.425C234.823 275.291 235.157 275.222 235.494 275.222C235.832 275.222 236.165 275.291 236.475 275.425C236.784 275.56 237.063 275.756 237.293 276.003C237.523 276.249 237.7 276.54 237.812 276.858C237.925 277.176 237.971 277.513 237.948 277.849Z" fill="#FA8E44"/>
<path d="M245.564 277.885C245.528 278.364 245.353 278.823 245.059 279.204C244.765 279.585 244.366 279.872 243.911 280.028C243.455 280.184 242.964 280.204 242.498 280.084C242.032 279.964 241.611 279.71 241.288 279.353C240.965 278.997 240.753 278.553 240.68 278.078C240.607 277.602 240.675 277.116 240.877 276.679C241.078 276.242 241.403 275.874 241.812 275.62C242.22 275.365 242.695 275.237 243.176 275.249C243.84 275.289 244.462 275.588 244.908 276.08C245.355 276.573 245.59 277.221 245.564 277.885Z" fill="#FA8E44"/>
<path d="M253.168 277.921C253.133 278.401 252.957 278.859 252.664 279.24C252.37 279.621 251.97 279.908 251.515 280.064C251.06 280.22 250.569 280.24 250.102 280.12C249.636 280 249.215 279.746 248.892 279.389C248.569 279.033 248.358 278.589 248.285 278.114C248.212 277.639 248.28 277.152 248.481 276.715C248.682 276.278 249.007 275.91 249.416 275.656C249.825 275.402 250.299 275.273 250.781 275.286C251.445 275.326 252.066 275.624 252.513 276.117C252.959 276.609 253.194 277.257 253.168 277.921Z" fill="#FA8E44"/>
<path d="M260.772 277.945C260.74 278.425 260.566 278.885 260.273 279.268C259.981 279.65 259.582 279.939 259.127 280.097C258.672 280.255 258.18 280.276 257.713 280.157C257.246 280.039 256.824 279.785 256.499 279.429C256.175 279.073 255.963 278.629 255.889 278.153C255.815 277.678 255.883 277.191 256.084 276.753C256.285 276.315 256.61 275.946 257.019 275.692C257.428 275.437 257.903 275.308 258.385 275.321C259.047 275.361 259.667 275.658 260.113 276.148C260.559 276.638 260.795 277.283 260.772 277.945Z" fill="#FA8E44"/>
<path d="M268.389 277.98C268.356 278.458 268.184 278.916 267.895 279.298C267.605 279.679 267.21 279.968 266.758 280.128C266.306 280.289 265.817 280.313 265.351 280.2C264.885 280.086 264.463 279.838 264.136 279.488C263.809 279.138 263.592 278.699 263.511 278.227C263.43 277.755 263.49 277.27 263.681 276.831C263.873 276.392 264.189 276.018 264.591 275.756C264.993 275.495 265.462 275.356 265.942 275.357C266.614 275.382 267.249 275.672 267.708 276.164C268.166 276.655 268.411 277.309 268.389 277.98Z" fill="#FA8E44"/>
<path d="M275.993 278.016C276.016 278.352 275.97 278.69 275.858 279.007C275.745 279.325 275.568 279.616 275.338 279.863C275.108 280.109 274.83 280.306 274.52 280.44C274.211 280.574 273.877 280.644 273.54 280.644C273.202 280.644 272.869 280.574 272.559 280.44C272.25 280.306 271.971 280.109 271.741 279.863C271.511 279.616 271.334 279.325 271.222 279.007C271.109 278.69 271.063 278.352 271.087 278.016C271.063 277.68 271.109 277.343 271.222 277.025C271.334 276.707 271.511 276.416 271.741 276.17C271.971 275.923 272.25 275.727 272.559 275.592C272.869 275.458 273.202 275.389 273.54 275.389C273.877 275.389 274.211 275.458 274.52 275.592C274.83 275.727 275.108 275.923 275.338 276.17C275.568 276.416 275.745 276.707 275.858 277.025C275.97 277.343 276.016 277.68 275.993 278.016Z" fill="#FA8E44"/>
<path d="M283.597 278.052C283.565 278.529 283.393 278.987 283.103 279.369C282.813 279.751 282.418 280.039 281.966 280.2C281.514 280.36 281.025 280.385 280.56 280.271C280.094 280.157 279.671 279.91 279.345 279.559C279.018 279.209 278.8 278.771 278.72 278.298C278.639 277.826 278.698 277.341 278.89 276.902C279.082 276.463 279.398 276.089 279.799 275.828C280.201 275.566 280.67 275.427 281.15 275.428C281.822 275.453 282.458 275.743 282.916 276.235C283.375 276.727 283.62 277.38 283.597 278.052Z" fill="#FA8E44"/>
<path d="M291.202 278.088C291.169 278.568 290.995 279.028 290.703 279.411C290.41 279.793 290.011 280.082 289.556 280.24C289.101 280.398 288.609 280.419 288.142 280.3C287.675 280.182 287.253 279.928 286.929 279.572C286.604 279.216 286.392 278.772 286.318 278.297C286.244 277.821 286.312 277.334 286.513 276.896C286.714 276.458 287.039 276.089 287.448 275.835C287.857 275.58 288.332 275.451 288.814 275.464C289.476 275.504 290.096 275.801 290.542 276.291C290.988 276.781 291.225 277.426 291.202 278.088Z" fill="#FA8E44"/>
<g opacity="0.2">
<path d="M230.343 277.813C230.308 278.293 230.132 278.752 229.838 279.133C229.545 279.514 229.145 279.8 228.69 279.957C228.235 280.113 227.743 280.132 227.277 280.013C226.811 279.893 226.39 279.639 226.067 279.282C225.744 278.925 225.533 278.482 225.46 278.007C225.387 277.531 225.455 277.045 225.656 276.608C225.857 276.171 226.182 275.802 226.591 275.548C227 275.294 227.474 275.165 227.955 275.178C228.62 275.215 229.244 275.513 229.691 276.006C230.138 276.499 230.372 277.149 230.343 277.813Z" fill="white"/>
<path d="M237.948 277.849C237.971 278.185 237.925 278.523 237.812 278.84C237.7 279.158 237.523 279.449 237.293 279.696C237.063 279.942 236.784 280.139 236.475 280.273C236.165 280.407 235.832 280.477 235.494 280.477C235.157 280.477 234.823 280.407 234.514 280.273C234.204 280.139 233.926 279.942 233.696 279.696C233.466 279.449 233.289 279.158 233.176 278.84C233.064 278.523 233.018 278.185 233.041 277.849C233.018 277.513 233.064 277.176 233.176 276.858C233.289 276.54 233.466 276.249 233.696 276.003C233.926 275.756 234.204 275.56 234.514 275.425C234.823 275.291 235.157 275.222 235.494 275.222C235.832 275.222 236.165 275.291 236.475 275.425C236.784 275.56 237.063 275.756 237.293 276.003C237.523 276.249 237.7 276.54 237.812 276.858C237.925 277.176 237.971 277.513 237.948 277.849Z" fill="white"/>
<path d="M245.564 277.885C245.528 278.365 245.353 278.824 245.059 279.205C244.765 279.586 244.366 279.872 243.911 280.028C243.455 280.185 242.964 280.204 242.498 280.084C242.032 279.964 241.611 279.71 241.288 279.354C240.965 278.997 240.753 278.554 240.68 278.078C240.607 277.603 240.675 277.117 240.877 276.68C241.078 276.243 241.403 275.874 241.812 275.62C242.22 275.366 242.695 275.237 243.176 275.25C243.84 275.29 244.462 275.588 244.908 276.081C245.355 276.574 245.59 277.221 245.564 277.885Z" fill="white"/>
<path d="M253.168 277.921C253.133 278.401 252.957 278.859 252.664 279.24C252.37 279.621 251.97 279.908 251.515 280.064C251.06 280.22 250.569 280.24 250.102 280.12C249.636 280 249.215 279.746 248.892 279.389C248.569 279.033 248.358 278.589 248.285 278.114C248.212 277.639 248.28 277.152 248.481 276.715C248.682 276.278 249.007 275.91 249.416 275.656C249.825 275.402 250.299 275.273 250.781 275.286C251.445 275.326 252.066 275.624 252.513 276.117C252.959 276.609 253.194 277.257 253.168 277.921Z" fill="white"/>
<path d="M260.772 277.945C260.74 278.425 260.566 278.885 260.273 279.268C259.981 279.65 259.582 279.939 259.127 280.097C258.672 280.255 258.18 280.276 257.713 280.157C257.246 280.039 256.824 279.785 256.499 279.429C256.175 279.073 255.963 278.629 255.889 278.153C255.815 277.678 255.883 277.191 256.084 276.753C256.285 276.315 256.61 275.946 257.019 275.692C257.428 275.437 257.903 275.308 258.385 275.321C259.047 275.361 259.667 275.658 260.113 276.148C260.559 276.638 260.795 277.283 260.772 277.945Z" fill="white"/>
<path d="M268.389 277.98C268.356 278.458 268.184 278.916 267.895 279.298C267.605 279.679 267.21 279.968 266.758 280.128C266.306 280.289 265.817 280.313 265.351 280.2C264.885 280.086 264.463 279.838 264.136 279.488C263.809 279.138 263.592 278.699 263.511 278.227C263.43 277.755 263.49 277.27 263.681 276.831C263.873 276.392 264.189 276.018 264.591 275.756C264.993 275.495 265.462 275.356 265.942 275.357C266.614 275.382 267.249 275.672 267.708 276.164C268.166 276.655 268.411 277.309 268.389 277.98Z" fill="white"/>
<path d="M275.993 278.016C276.016 278.352 275.97 278.69 275.858 279.007C275.745 279.325 275.568 279.616 275.338 279.863C275.108 280.109 274.83 280.306 274.52 280.44C274.211 280.574 273.877 280.644 273.54 280.644C273.202 280.644 272.869 280.574 272.559 280.44C272.25 280.306 271.971 280.109 271.741 279.863C271.511 279.616 271.334 279.325 271.222 279.007C271.109 278.69 271.063 278.352 271.087 278.016C271.063 277.68 271.109 277.343 271.222 277.025C271.334 276.707 271.511 276.416 271.741 276.17C271.971 275.923 272.25 275.727 272.559 275.592C272.869 275.458 273.202 275.389 273.54 275.389C273.877 275.389 274.211 275.458 274.52 275.592C274.83 275.727 275.108 275.923 275.338 276.17C275.568 276.416 275.745 276.707 275.858 277.025C275.97 277.343 276.016 277.68 275.993 278.016Z" fill="white"/>
<path d="M283.597 278.052C283.565 278.53 283.393 278.988 283.103 279.37C282.813 279.751 282.418 280.04 281.966 280.2C281.514 280.36 281.025 280.385 280.56 280.271C280.094 280.158 279.671 279.91 279.345 279.56C279.018 279.209 278.8 278.771 278.72 278.299C278.639 277.827 278.698 277.341 278.89 276.902C279.082 276.463 279.398 276.09 279.799 275.828C280.201 275.566 280.67 275.428 281.15 275.429C281.822 275.454 282.458 275.744 282.916 276.235C283.375 276.727 283.62 277.38 283.597 278.052Z" fill="white"/>
<path d="M291.202 278.088C291.169 278.568 290.995 279.028 290.703 279.411C290.41 279.793 290.011 280.082 289.556 280.24C289.101 280.398 288.609 280.419 288.142 280.3C287.675 280.182 287.253 279.928 286.929 279.572C286.604 279.216 286.392 278.772 286.318 278.297C286.244 277.821 286.312 277.334 286.513 276.896C286.714 276.458 287.039 276.089 287.448 275.835C287.857 275.58 288.332 275.451 288.814 275.464C289.476 275.504 290.096 275.801 290.542 276.291C290.988 276.781 291.225 277.426 291.202 278.088Z" fill="white"/>
</g>
<path d="M280.398 105.945C281.227 105.58 281.931 104.98 282.421 104.219C282.912 103.458 283.167 102.569 283.156 101.664C283.187 101.076 283.097 100.487 282.893 99.9346C282.689 99.3818 282.375 98.8764 281.969 98.449C281.563 98.0216 281.074 97.6813 280.532 97.4487C279.99 97.2161 279.406 97.0962 278.816 97.0962C278.227 97.0962 277.643 97.2161 277.101 97.4487C276.559 97.6813 276.07 98.0216 275.664 98.449C275.258 98.8764 274.944 99.3818 274.74 99.9346C274.535 100.487 274.446 101.076 274.477 101.664C274.459 102.578 274.712 103.477 275.205 104.248C275.698 105.018 276.408 105.625 277.247 105.993C270.561 106.994 270.86 114.245 270.86 114.245L286.666 114.316C286.666 114.316 287.036 106.935 280.398 105.945Z" fill="#FA8E44"/>
<path opacity="0.1" d="M280.398 105.945C281.227 105.58 281.931 104.98 282.421 104.219C282.912 103.458 283.167 102.569 283.156 101.664C283.187 101.076 283.097 100.487 282.893 99.9346C282.689 99.3818 282.375 98.8764 281.969 98.449C281.563 98.0216 281.074 97.6813 280.532 97.4487C279.99 97.2161 279.406 97.0962 278.816 97.0962C278.227 97.0962 277.643 97.2161 277.101 97.4487C276.559 97.6813 276.07 98.0216 275.664 98.449C275.258 98.8764 274.944 99.3818 274.74 99.9346C274.535 100.487 274.446 101.076 274.477 101.664C274.459 102.578 274.712 103.477 275.205 104.248C275.698 105.018 276.408 105.625 277.247 105.993C270.561 106.994 270.86 114.245 270.86 114.245L286.666 114.316C286.666 114.316 287.036 106.935 280.398 105.945Z" fill="black"/>
<path d="M306.082 118.992L249.748 118.737L249.717 125.462L306.051 125.718L306.082 118.992Z" fill="#FA8E44"/>
<path opacity="0.2" d="M306.082 118.992L249.748 118.737L249.717 125.462L306.051 125.718L306.082 118.992Z" fill="white"/>
<path d="M98.9796 153.846H98.4185L96.795 153.966C95.9164 154.018 95.0427 154.134 94.1806 154.311C93.6222 154.39 93.0684 154.497 92.5213 154.633L90.6709 155.146C87.5215 156.111 84.5501 157.581 81.8728 159.499C78.3355 162.063 75.3818 165.347 73.2059 169.134C71.9271 171.316 70.9094 173.642 70.1737 176.062C69.4008 178.692 68.9557 181.407 68.8487 184.147C68.7775 185.585 68.8014 187.027 68.9203 188.463C68.9203 189.191 69.1232 189.918 69.2187 190.657C69.299 191.403 69.4388 192.14 69.6365 192.863C70.71 197.648 72.8881 202.117 75.9971 205.912C79.1061 209.707 83.0599 212.723 87.5432 214.721C90.788 216.12 94.2659 216.9 97.7978 217.022C101.446 217.223 105.097 216.7 108.542 215.484L109.592 215.091H109.736L109.855 215.162L124.908 222.794L124.467 223.175C122.855 218.191 121.303 213.362 119.799 208.723V208.544L119.93 208.413C123.582 204.739 126.293 200.239 127.833 195.296C129.228 190.777 129.635 186.011 129.027 181.32C128.486 177.152 127.144 173.128 125.076 169.467C123.292 166.323 120.992 163.501 118.271 161.12C116.026 159.235 113.541 157.656 110.882 156.422C108.869 155.555 106.773 154.896 104.626 154.454L102.239 154.061L100.508 153.93L99.4571 153.858H99.099C99.218 153.845 99.3381 153.845 99.4571 153.858H100.52L102.251 153.93L104.638 154.276C106.812 154.684 108.936 155.32 110.977 156.172C113.683 157.391 116.212 158.967 118.498 160.858C121.269 163.229 123.618 166.051 125.446 169.205C127.573 172.904 128.956 176.984 129.516 181.213C130.175 185.976 129.796 190.824 128.406 195.427C126.856 200.473 124.103 205.069 120.384 208.818L120.456 208.508C121.96 213.147 123.524 217.976 125.147 222.949L125.374 223.676L124.694 223.331L109.64 215.711H109.903L108.828 216.104C105.317 217.338 101.598 217.873 97.8813 217.678C94.2733 217.541 90.7227 216.732 87.4119 215.293C81.0965 212.592 75.8421 207.896 72.4539 201.926C70.8947 199.169 69.756 196.195 69.0755 193.102C68.8891 192.36 68.7496 191.607 68.6576 190.848C68.5621 190.097 68.407 189.358 68.3711 188.618C68.0481 184.375 68.497 180.109 69.6962 176.026C70.4502 173.573 71.4962 171.219 72.812 169.014C75.0397 165.193 78.0549 161.889 81.6579 159.32C84.3793 157.397 87.4006 155.939 90.5993 155.003L92.4735 154.526C93.0251 154.398 93.583 154.299 94.1448 154.228C95.0158 154.067 95.8977 153.971 96.783 153.942L98.4185 153.882C98.6045 153.857 98.792 153.845 98.9796 153.846Z" fill="#FA8E44"/>
<path d="M105.784 181.655H103.576L98.8007 174.953V170.553C98.8007 170.553 95.3865 170.338 95.7924 176.098C96.1983 181.857 95.7924 180.391 95.7924 180.391C95.7924 180.391 88.5462 180.391 87.9493 181.046C87.3524 181.702 87.3166 188.69 87.233 192.589C87.1873 193.529 87.4573 194.458 88.0002 195.227C88.5431 195.996 89.3277 196.562 90.2294 196.834C90.4822 196.904 90.7431 196.94 91.0054 196.942C92.8199 196.942 102.048 195.475 102.048 195.475H105.856L105.784 181.655Z" fill="#FA8E44"/>
<path d="M112.099 180.474L110.738 195.546H106.966V180.784L112.099 180.474Z" fill="#FA8E44"/>
<path d="M157.093 487.328V477.132L138.792 477.001L138.637 492.419L139.771 492.503C144.821 492.825 165.461 493.302 168.852 492.252C172.624 491.084 157.093 487.328 157.093 487.328Z" fill="#FA8E44"/>
<path d="M169.281 491.298C169.281 491.465 162.429 491.608 153.989 491.608C145.549 491.608 138.697 491.465 138.697 491.298C138.697 491.131 145.549 490.988 153.989 490.988C162.429 490.988 169.281 491.131 169.281 491.298Z" fill="#263238"/>
<path d="M157.415 489.414C157.26 489.331 157.415 488.794 157.785 488.222C158.155 487.65 158.657 487.411 158.776 487.53C158.896 487.65 158.645 488.103 158.287 488.592C157.929 489.081 157.57 489.498 157.415 489.414Z" fill="#263238"/>
<path d="M158.585 490.082C158.418 490.082 158.502 489.414 158.86 488.782C159.218 488.15 159.695 487.769 159.827 487.864C159.958 487.96 159.743 488.496 159.409 489.057C159.075 489.617 158.74 490.142 158.585 490.082Z" fill="#263238"/>
<path d="M144.212 491.251C144.14 491.251 143.865 491.036 143.472 490.583C142.991 490 142.455 489.465 141.872 488.985C141.298 488.527 140.615 488.227 139.89 488.114C139.329 488.043 138.971 488.114 138.935 488.043C138.899 487.971 139.246 487.721 139.902 487.673C140.769 487.655 141.614 487.942 142.29 488.484C142.923 489 143.457 489.626 143.865 490.332C144.14 490.857 144.283 491.203 144.212 491.251Z" fill="#263238"/>
<path d="M157.475 487.495C157.558 487.638 157.248 487.996 156.723 488.186C156.198 488.377 155.732 488.306 155.708 488.186C155.684 488.067 156.054 487.817 156.508 487.65C156.962 487.483 157.379 487.352 157.475 487.495Z" fill="#263238"/>
<path d="M157.188 486.505C157.188 486.684 156.711 486.827 156.09 486.839C155.469 486.851 154.98 486.708 154.992 486.541C155.004 486.374 155.493 486.219 156.09 486.207C156.687 486.195 157.165 486.338 157.188 486.505Z" fill="#263238"/>
<path d="M202.158 487.328V477.132L183.857 477.001L183.702 492.264L184.836 492.348C189.886 492.67 210.538 493.302 213.917 492.252C217.689 491.084 202.158 487.328 202.158 487.328Z" fill="#FA8E44"/>
<path d="M214.347 491.322C214.347 491.489 207.506 491.632 199.054 491.632C190.602 491.632 183.774 491.489 183.774 491.322C183.774 491.155 190.614 491.012 199.054 491.012C207.494 491.012 214.347 491.155 214.347 491.322Z" fill="#263238"/>
<path d="M202.48 489.414C202.337 489.331 202.48 488.794 202.851 488.222C203.221 487.65 203.722 487.411 203.841 487.53C203.961 487.65 203.71 488.103 203.352 488.592C202.994 489.081 202.636 489.498 202.48 489.414Z" fill="#263238"/>
<path d="M203.65 490.082C203.495 490.082 203.567 489.414 203.937 488.782C204.307 488.15 204.772 487.769 204.904 487.864C205.035 487.96 204.808 488.496 204.474 489.057C204.14 489.617 203.817 490.142 203.65 490.082Z" fill="#263238"/>
<path d="M189.277 491.251C189.205 491.251 188.943 491.036 188.537 490.583C188.056 490 187.52 489.465 186.937 488.985C186.364 488.527 185.681 488.227 184.956 488.114C184.406 488.043 184.036 488.114 184.001 488.043C183.965 487.971 184.311 487.721 184.968 487.673C185.834 487.655 186.679 487.942 187.355 488.484C187.992 488.996 188.526 489.623 188.931 490.332C189.205 490.857 189.349 491.203 189.277 491.251Z" fill="#263238"/>
<path d="M202.54 487.495C202.623 487.638 202.313 487.996 201.788 488.186C201.263 488.377 200.797 488.306 200.773 488.186C200.749 488.067 201.119 487.817 201.573 487.65C202.027 487.483 202.444 487.352 202.54 487.495Z" fill="#263238"/>
<path d="M202.277 486.505C202.277 486.684 201.8 486.827 201.179 486.839C200.558 486.851 200.081 486.708 200.093 486.541C200.104 486.374 200.582 486.219 201.179 486.207C201.776 486.195 202.277 486.338 202.277 486.505Z" fill="#263238"/>
<path d="M269.582 184.564C269.105 184.075 267.923 184.314 267.923 184.314C268.042 183.627 268.042 182.925 267.923 182.239C267.708 181.571 266.204 181.702 266.204 181.702C266.135 181.14 266.135 180.571 266.204 180.009C266.216 179.884 266.189 179.759 266.127 179.65C266.065 179.541 265.971 179.454 265.858 179.401C265.146 179.111 264.382 178.973 263.614 178.995C262.694 178.339 266.419 173.128 267.804 171.459C269.189 169.79 268.938 168.49 267.708 168.49C266.861 168.49 262.515 173.498 261.178 175.179C259.841 176.861 256.296 181.535 256.176 177.803C256.057 174.07 254.553 171.256 253.61 170.779C252.667 170.302 251.664 171.423 252.177 172.461C252.628 173.639 252.91 174.876 253.013 176.133C253.143 177.135 253.098 178.152 252.882 179.138C252.486 180.974 251.947 182.776 251.27 184.528H251.174C251.174 184.528 225.126 209.486 223.24 211.263C221.557 212.861 187.701 209.367 180.909 208.652C178.6 208.314 176.27 208.155 173.937 208.175C170.988 208.306 170.463 208.723 167.526 208.759C160.11 208.841 152.711 209.491 145.394 210.703C142.081 211.265 138.986 212.726 136.447 214.926C133.908 217.125 132.023 219.979 130.997 223.176C124.156 244.521 108.661 295.045 105.927 323.425C103.862 327.167 101.997 331.016 100.341 334.956C98.4186 340.179 98.8842 340.358 99.5288 340.477C101.272 340.799 103.253 331.426 103.994 333.692C104.734 335.958 100.233 344.865 102.06 345.128C104.447 345.462 106.345 335.588 106.572 334.801C106.799 334.014 107.981 334.265 107.766 335.004C107.42 336.053 104.065 347.179 106.405 347.537C107.694 347.727 107.838 345.378 107.838 345.378C107.838 345.378 110.225 334.73 111.311 334.944C112.398 335.159 111.24 341.443 110.691 343.542C110.142 345.641 110.906 346.702 112.028 346.189C112.792 345.831 114.618 339.452 115.12 337.377C115.621 335.302 116.874 329.554 118.558 332.881C120.241 336.208 122.796 338.14 123.846 338.188C124.083 338.16 124.306 338.063 124.487 337.908C124.668 337.753 124.798 337.548 124.861 337.318C124.924 337.088 124.916 336.845 124.84 336.62C124.763 336.394 124.621 336.197 124.431 336.053C123.527 335.172 122.752 334.168 122.127 333.072C121.57 332.218 121.166 331.274 120.933 330.282C120.452 328.304 120.172 326.282 120.098 324.248L119.907 323.055C122.581 309.831 130.281 271.017 141.395 246.226L145.955 255.598L147.937 262.538L135.784 292.505L187.618 291.825L179.882 262.085L189.277 231.082C199.436 231.308 225.52 231.69 229.865 229.722C235.333 227.337 263.614 191.659 263.614 191.659C265.457 190.228 267.222 188.7 268.902 187.08C268.902 187.08 270.621 185.637 269.582 184.564Z" fill="#FFBE9D"/>
<path d="M133.504 270.361C135.008 265.233 142.732 239.882 142.732 239.882C142.732 239.882 146.528 260.547 145.525 263.039C144.603 265.173 143.513 267.23 142.266 269.192C133.504 282.512 134.65 289.178 134.65 289.178L187.594 287.568C187.713 280.175 183.332 262.979 182.425 260.237C181.517 257.494 184.538 248.515 184.538 248.515C184.538 248.515 190.507 242.445 190.292 239.321C190.178 236.515 189.831 233.723 189.253 230.974L221.485 232.166L220.47 210.344L174.176 205.718C172.564 210.261 157.988 208.031 157.988 208.031C142.254 208.556 141.275 211.442 134.733 216.521C128.191 221.601 117.364 265.197 117.364 265.197L133.504 270.361Z" fill="#FA8E44"/>
<path d="M164.805 265.197C163.887 265.361 162.953 265.409 162.023 265.34C160.292 265.34 157.917 265.221 155.302 264.959C152.688 264.696 150.324 264.327 148.641 263.993C147.713 263.873 146.803 263.641 145.931 263.301C146.864 263.302 147.796 263.389 148.713 263.564C150.408 263.778 152.76 264.076 155.362 264.339C157.964 264.601 160.328 264.78 162.035 264.899C162.966 264.911 163.893 265.011 164.805 265.197Z" fill="#263238"/>
<path d="M168.434 260.702C167.516 261.151 166.545 261.484 165.545 261.692C160.782 262.942 155.868 263.524 150.945 263.421C149.926 263.454 148.907 263.358 147.913 263.135C148.918 263.008 149.932 262.956 150.945 262.98C152.819 262.92 155.398 262.789 158.239 262.455C161.08 262.121 163.611 261.644 165.401 261.263C166.396 260.997 167.41 260.81 168.434 260.702Z" fill="#263238"/>
<path d="M186.245 240.645C186.22 241.554 186.096 242.458 185.875 243.34C185.564 244.997 185.087 247.263 184.478 249.743C183.869 252.224 183.284 254.513 182.759 256.063C182.548 256.951 182.235 257.811 181.828 258.627C181.894 257.721 182.062 256.825 182.329 255.956C182.783 254.096 183.296 251.949 183.869 249.6C184.442 247.251 184.991 245.105 185.445 243.245C185.606 242.349 185.875 241.476 186.245 240.645Z" fill="#263238"/>
<path d="M134.065 267.32C131.303 266.894 128.578 266.26 125.911 265.424C123.187 264.788 120.514 263.951 117.913 262.92C120.673 263.353 123.399 263.987 126.067 264.816C128.792 265.45 131.465 266.287 134.065 267.32Z" fill="#263238"/>
<path d="M189.826 230.712C189.376 230.789 188.915 230.789 188.465 230.712C187.218 230.584 185.994 230.291 184.824 229.841C182.871 229.108 181.093 227.975 179.605 226.515C178.116 225.055 176.95 223.3 176.181 221.363C175.331 219.232 174.968 216.938 175.119 214.649C175.172 212.761 175.737 210.923 176.754 209.331C177.469 208.258 178.538 207.47 179.774 207.101C180.105 207.01 180.446 206.966 180.789 206.97C181.028 206.97 181.147 206.97 181.147 206.97C181.147 206.97 180.646 206.97 179.846 207.292C178.712 207.711 177.75 208.495 177.112 209.522C175.489 212.074 175.035 216.736 176.766 221.089C177.572 223.141 178.833 224.984 180.455 226.479C181.784 227.702 183.314 228.686 184.979 229.388C186.542 230.005 188.167 230.449 189.826 230.712Z" fill="#263238"/>
<path d="M217.653 231.737C217.354 228.08 217.259 224.41 217.367 220.743C217.273 217.079 217.385 213.412 217.701 209.76C218 213.413 218.095 217.079 217.987 220.743C218.088 224.411 217.976 228.082 217.653 231.737Z" fill="#263238"/>
<path d="M173.866 207.053C173.997 204.394 174.272 201.389 174.272 201.389C174.272 201.389 180.861 200.662 181.255 193.865C181.649 187.068 181.255 171.387 181.255 171.387L169.317 165.282L156.066 175.692L158.108 209.677L170.26 210.452C171.189 210.478 172.091 210.134 172.766 209.497C173.442 208.86 173.838 207.981 173.866 207.053Z" fill="#FFBE9D"/>
<path d="M175.047 188.487C175.047 188.487 175.047 188.618 174.94 188.773C174.851 188.885 174.736 188.975 174.605 189.033C174.474 189.091 174.331 189.116 174.188 189.107C173.424 189.107 172.683 188.224 172.421 187.199C172.296 186.702 172.296 186.182 172.421 185.685C172.445 185.468 172.524 185.26 172.649 185.081C172.774 184.902 172.942 184.757 173.137 184.659C173.298 184.593 173.478 184.593 173.638 184.659C173.757 184.718 173.854 184.814 173.913 184.933C173.997 185.136 173.913 185.267 173.913 185.255C173.913 185.243 173.913 185.136 173.794 185.017C173.731 184.931 173.639 184.872 173.536 184.85C173.432 184.828 173.324 184.845 173.233 184.898C173.086 184.986 172.964 185.11 172.879 185.258C172.793 185.406 172.747 185.573 172.743 185.744C172.643 186.188 172.643 186.648 172.743 187.092C172.982 188.022 173.626 188.773 174.199 188.845C174.312 188.86 174.426 188.852 174.534 188.821C174.643 188.79 174.745 188.737 174.832 188.666C174.975 188.57 175.023 188.475 175.047 188.487Z" fill="#EB996E"/>
<path d="M185.35 167.714C184.431 164.59 181.1 163.04 178.068 162.182C173.448 160.87 168.458 160.297 163.945 161.955C159.433 163.612 154.013 166.522 154.013 171.495C151.351 171.28 149.823 173.605 148.772 176.491C148.101 178.249 147.698 180.098 147.579 181.976C147.244 188.487 145.418 197.478 141.192 202.248C138.804 204.907 135.498 206.743 134.137 210.059C132.943 212.932 133.564 216.343 132.453 219.252C131.463 221.816 129.278 223.641 127.678 225.87C126.049 228.4 125.09 231.302 124.891 234.304C124.693 237.305 125.262 240.308 126.544 243.03C127.836 245.682 129.655 248.043 131.89 249.97C134.125 251.897 136.729 253.35 139.544 254.239C145.121 255.933 151.067 255.991 156.675 254.406C160.884 253.401 164.81 251.456 168.159 248.718C171.586 245.923 173.939 242.03 174.821 237.7C175.668 232.834 174.307 227.886 173.293 223.044C170.117 207.745 171.024 206.946 175.035 192.744C175.131 192.494 175.179 192.231 175.25 191.981C175.322 191.731 175.358 191.611 175.406 191.42C175.52 190.859 175.579 190.288 175.585 189.715C174.999 189.933 174.363 189.979 173.752 189.848C173.141 189.717 172.58 189.414 172.135 188.976C171.689 188.508 171.378 187.929 171.235 187.299C171.092 186.669 171.122 186.013 171.323 185.399C171.605 184.727 172.024 184.122 172.555 183.623C173.085 183.124 173.715 182.742 174.403 182.501C175.728 181.952 177.148 181.666 178.45 181.058C181.207 179.746 183.117 177.028 184.419 174.178C185.488 172.202 185.819 169.911 185.35 167.714Z" fill="#263238"/>
<path d="M175.525 188.809C175.777 189.181 175.985 189.581 176.146 190.002C176.504 190.753 176.981 191.814 177.507 193.042L177.602 193.269H177.351L176.158 193.376C175.334 193.376 174.641 193.531 173.83 193.519C173.759 193.503 173.694 193.47 173.639 193.422C173.585 193.374 173.544 193.313 173.519 193.245C173.484 193.137 173.484 193.02 173.519 192.911C173.547 192.75 173.583 192.591 173.627 192.434L173.842 191.587C173.95 191.023 174.118 190.471 174.343 189.942C174.321 190.518 174.237 191.089 174.092 191.647L173.925 192.494C173.866 192.78 173.758 193.221 173.925 193.185C174.522 193.185 175.37 193.054 176.158 193.007L177.351 192.899L177.196 193.162C176.683 191.969 176.253 190.848 176.002 190.073C175.782 189.677 175.622 189.251 175.525 188.809Z" fill="#FA8E44"/>
<path d="M134.65 289.178L187.594 287.568L210.634 377.407L206.396 480.459H178.402L181.828 379.601L161.354 317.057L164.506 484.454L136.213 484.871L133.241 327.527C133.11 323.151 131.677 313.289 132.214 308.949L134.65 289.178Z" fill="#263238"/>
<path d="M168.398 318.333C167.531 318.388 166.661 318.336 165.807 318.178C164.208 317.987 162.023 317.654 159.624 317.177C157.224 316.7 155.075 316.151 153.523 315.71C152.694 315.528 151.891 315.239 151.136 314.851C151.136 314.672 155.027 315.603 159.803 316.568C164.578 317.534 168.422 318.154 168.398 318.333Z" fill="#455A64"/>
<path d="M206.109 474.807C206.109 474.974 199.77 475.117 191.951 475.117C184.132 475.117 177.781 474.974 177.781 474.807C177.781 474.64 184.12 474.497 191.951 474.497C199.782 474.497 206.109 474.628 206.109 474.807Z" fill="#455A64"/>
<path d="M164.255 480.102C164.255 480.28 158.096 480.412 150.503 480.412C142.911 480.412 136.763 480.28 136.763 480.102C136.763 479.923 142.923 479.792 150.503 479.792C158.084 479.792 164.255 479.935 164.255 480.102Z" fill="#455A64"/>
<path d="M160.602 479.672C160.435 479.672 159.695 443.1 158.943 397.989C158.191 352.879 157.749 316.282 157.904 316.282C158.06 316.282 158.824 352.843 159.564 397.977C160.304 443.112 160.781 479.672 160.602 479.672Z" fill="#455A64"/>
<path d="M202.349 474.807C202.336 474.644 202.336 474.481 202.349 474.318V472.887C202.349 471.599 202.444 469.751 202.516 467.402C202.683 462.632 202.922 455.704 203.22 447.214C203.865 430.138 204.772 406.599 205.763 380.615C205.763 380.365 205.763 380.126 205.763 379.911V379.995C199.496 354.953 193.825 332.225 189.707 315.781L184.932 296.332C184.382 294.055 183.965 292.278 183.666 291.038C183.523 290.454 183.427 290.001 183.344 289.655C183.297 289.5 183.269 289.339 183.26 289.178C183.322 289.328 183.37 289.484 183.404 289.643C183.499 289.977 183.618 290.43 183.786 291.002C184.108 292.195 184.573 294.007 185.17 296.273C186.364 300.876 188.047 307.506 190.148 315.674C194.303 332.106 200.033 354.775 206.384 379.852V379.935C206.384 380.15 206.384 380.4 206.384 380.639C205.321 406.622 204.354 430.149 203.65 447.225C203.28 455.728 202.97 462.608 202.755 467.402C202.635 469.787 202.54 471.599 202.48 472.887C202.48 473.495 202.408 473.972 202.397 474.318C202.398 474.482 202.382 474.646 202.349 474.807Z" fill="#455A64"/>
<path d="M193.217 377.813C191.206 378.473 189.135 378.933 187.033 379.184C184.454 379.626 182.258 379.936 181.267 379.983V379.745C181.589 379.84 181.756 379.9 181.756 379.947C181.756 379.995 181.553 379.947 181.219 379.947H180.503L181.219 379.733C182.15 379.459 184.347 379.005 186.925 378.54C188.994 378.092 191.101 377.849 193.217 377.813Z" fill="#455A64"/>
<path d="M192.727 381.235C190.865 381.32 188.999 381.237 187.152 380.985C185.287 380.947 183.43 380.743 181.601 380.377C185.332 380.073 189.087 380.362 192.727 381.235Z" fill="#455A64"/>
<path opacity="0.2" d="M134.423 291.074C135.05 291.878 135.84 292.541 136.741 293.02C137.642 293.499 138.633 293.782 139.652 293.852C141.784 294.104 143.941 294.064 146.062 293.733C159.731 292.218 174.211 290.823 187.594 287.568C170.272 288.534 151.971 288.212 134.65 289.178L134.471 290.656" fill="black"/>
<g opacity="0.2">
<path d="M152.27 315.459L162.035 353.308L161.355 317.057L152.27 315.459Z" fill="black"/>
</g>
</g>
<defs>
<clipPath id="clip0_2930_2663">
<rect width="510" height="500" fill="white"/>
</clipPath>
</defs>
</svg>
