<svg width="588" height="427" viewBox="0 0 588 427" fill="none" xmlns="http://www.w3.org/2000/svg">
<path opacity="0.1" d="M588 274.263C588.01 285.833 586.825 297.361 584.47 308.591C583.678 312.375 582.758 316.081 581.71 319.708C580.427 324.184 578.941 328.576 577.257 332.863C576.408 335.033 575.511 337.158 574.566 339.241C574.581 351.105 572.513 362.844 568.49 373.716C561.22 393.223 548.254 408.995 531.958 418.158C521.768 423.898 510.633 426.917 499.344 427H111.63C94.3802 427.043 77.428 421.693 62.4972 411.492L62.2676 411.339C60.1409 409.869 58.0675 408.313 56.0473 406.671C51.502 402.963 47.2316 398.807 43.2823 394.246C37.9368 388.078 33.2266 381.187 29.2492 373.716C19.9078 356.203 14.9592 335.924 14.9766 315.228C5.51637 295.63 0 272.153 0 246.926C0 215.097 8.76628 186.062 23.1687 164.083C26.1714 159.491 29.4604 155.17 33.0084 151.157C36.509 147.186 40.2717 143.549 44.2607 140.282C47.4523 137.666 50.7878 135.303 54.2451 133.209C55.6879 132.343 57.1356 131.523 58.6083 130.763C59.9013 130.085 61.2092 129.455 62.5322 128.859C64.1197 128.148 65.7272 127.494 67.3546 126.896C68.9821 126.299 70.5879 125.777 72.1721 125.329C74.5018 124.657 76.8714 124.11 79.2809 123.69C81.2778 123.342 83.2747 123.101 85.2716 122.918C86.8591 122.776 88.4616 122.7 90.0741 122.676H90.9477C92.7249 122.676 94.4921 122.759 96.2444 122.9C96.4291 122.464 96.6288 122.022 96.8135 121.592C97.5124 120.018 98.2363 118.45 98.9651 116.918C98.9635 116.904 98.9635 116.89 98.9651 116.876C99.0899 116.605 99.2148 116.34 99.3445 116.081C99.9336 114.825 100.548 113.581 101.177 112.35C101.466 111.76 101.751 111.206 102.045 110.652C102.108 110.514 102.176 110.381 102.25 110.251C102.55 109.662 102.854 109.072 103.164 108.483C104.704 105.575 106.307 102.718 107.971 99.9128L108.395 99.1937C108.655 98.7576 108.895 98.3332 109.184 97.897C109.873 96.7594 110.582 95.616 111.296 94.4961C111.795 93.6945 112.294 92.8987 112.833 92.1384C114.131 90.1736 115.463 88.2089 116.827 86.2442C118.192 84.2794 119.61 82.3403 121.081 80.4266C121.28 80.1614 121.48 79.902 121.69 79.6427L123.821 76.896C123.926 76.7663 124.016 76.6484 124.116 76.5305C124.37 76.2064 124.615 75.8822 124.89 75.5698C126.033 74.1375 127.206 72.7347 128.384 71.3377C134.38 64.2868 140.768 57.7159 147.504 51.6688C147.769 51.4212 148.038 51.1855 148.303 50.9497C149.571 49.8239 150.859 48.7099 152.147 47.6136C159.231 41.613 166.637 36.1593 174.317 31.2867C174.846 30.9271 175.386 30.5911 175.93 30.2611C182.815 25.9601 189.897 22.1113 197.142 18.732C201.09 16.8871 205.129 15.1542 209.193 13.5687C211.898 12.5195 214.614 11.5234 217.365 10.5862C221.665 9.12446 225.995 7.81399 230.355 6.65479C243.199 3.25198 256.266 1.14994 269.413 0.371573C273.407 0.131876 277.446 0.00809912 281.529 0.000240191C301.234 -0.0305593 320.861 2.90081 339.938 8.72365C340.135 9.07559 340.405 9.3625 340.722 9.55738C341.039 9.75227 341.393 9.84872 341.75 9.83766H343.428C344.156 10.0734 344.88 10.3092 345.609 10.5568C349.68 11.9399 353.692 13.4508 357.645 15.0894L358.644 15.5138C368.402 19.6108 377.897 24.5355 387.054 30.2493C395.309 35.3876 403.257 41.1852 410.842 47.6018C412.01 48.592 413.162 49.5901 414.297 50.5961C415.675 49.5548 417.076 48.5567 418.5 47.6018C424.001 43.9028 429.844 40.962 435.913 38.8371C448.602 34.4036 462.028 33.7836 474.972 37.0335C491.571 41.1889 506.597 51.5038 518.733 66.1744C523.675 72.177 528.073 78.7708 531.858 85.8493C532.132 86.3562 532.407 86.869 532.672 87.3877C535.924 93.6526 538.72 100.233 541.028 107.057C541.113 107.31 541.198 107.546 541.273 107.793C543.404 114.183 545.123 120.754 546.415 127.451C546.475 127.792 546.545 128.128 546.605 128.47C547.813 134.95 548.634 141.523 549.061 148.139C549.061 148.375 549.061 148.617 549.101 148.864C549.31 152.287 549.417 155.745 549.42 159.238C549.42 162.362 549.33 165.462 549.166 168.539C549.166 168.875 549.126 169.223 549.101 169.571C549.056 170.461 548.991 171.339 548.926 172.235C552.739 175.866 556.307 179.841 559.599 184.123C561.054 185.998 562.462 187.943 563.823 189.959C567.969 196.094 571.613 202.68 574.706 209.628C583.148 228.442 588 250.575 588 274.263Z" fill="#887BB1"/>
<path opacity="0.1" d="M531.038 416.221C531.038 420.152 519.31 423.835 498.845 427H111.758C94.5359 427.042 77.611 421.818 62.7044 411.859L62.4751 411.71C68.3564 409.235 78.9725 406.928 93.4215 404.845L94.0695 404.753C100.549 403.838 107.791 402.969 115.706 402.146C115.905 402.146 116.109 402.111 116.309 402.082C122.589 401.438 129.269 400.834 136.35 400.27C136.574 400.27 136.793 400.224 137.018 400.212C139.749 399.986 142.537 399.771 145.381 399.568L146.478 399.487C167.187 398.002 190.727 396.817 216.255 396.034H216.285C219.86 395.919 223.474 395.818 227.126 395.729C231.186 395.618 235.296 395.52 239.456 395.436C242.631 395.355 245.846 395.298 249.071 395.24H249.145C263.694 394.987 278.726 394.86 294.097 394.86C332.106 394.86 368.032 395.66 399.865 397.099H399.955C404.85 397.318 409.654 397.559 414.339 397.807L418.327 398.025C423.613 398.317 428.763 398.63 433.777 398.963C492.74 402.836 531.038 409.126 531.038 416.221Z" fill="#887BB1"/>
<g opacity="0.2">
<path opacity="0.2" d="M339.535 391.838C339.519 392.474 339.458 393.108 339.351 393.733C335.877 393.079 332.383 392.489 328.87 391.962C328.87 391.797 328.87 391.625 328.87 391.454C328.902 389.684 329.333 387.957 330.117 386.449C331.145 384.525 332.708 383.321 334.43 383.386C336.151 383.451 337.644 384.767 338.567 386.756C339.265 388.318 339.6 390.072 339.535 391.838Z" fill="#222222"/>
<path opacity="0.2" d="M339.821 381.752C339.943 377.188 337.653 373.398 334.705 373.288C331.757 373.178 329.268 376.789 329.146 381.353C329.024 385.918 331.315 389.707 334.263 389.818C337.211 389.928 339.699 386.317 339.821 381.752Z" fill="#222222"/>
<path opacity="0.2" d="M340.094 371.647C340.216 367.082 337.925 363.292 334.977 363.182C332.029 363.072 329.541 366.683 329.419 371.248C329.297 375.812 331.588 379.602 334.535 379.712C337.483 379.822 339.972 376.211 340.094 371.647Z" fill="#222222"/>
<path opacity="0.2" d="M340.361 361.542C340.483 356.977 338.193 353.187 335.245 353.077C332.297 352.967 329.808 356.578 329.686 361.143C329.564 365.707 331.855 369.497 334.803 369.607C337.751 369.717 340.239 366.106 340.361 361.542Z" fill="#222222"/>
<path opacity="0.2" d="M340.629 351.437C340.751 346.872 338.46 343.082 335.512 342.972C332.564 342.862 330.075 346.473 329.953 351.038C329.831 355.602 332.122 359.392 335.07 359.502C338.018 359.612 340.507 356.001 340.629 351.437Z" fill="#222222"/>
<path opacity="0.2" d="M317.125 281.323C316.422 280.198 315.788 279.014 315.228 277.782L329.333 275.58L314.15 275.15C312.796 271.349 312.11 267.262 312.137 263.137C312.164 259.013 312.901 254.938 314.305 251.163L334.329 264.413L315.987 247.391C317.837 243.852 320.285 240.802 323.177 238.432C326.068 236.062 329.342 234.422 332.794 233.615C336.246 232.809 339.801 232.852 343.238 233.744C346.675 234.635 349.919 236.354 352.769 238.795C355.618 241.236 358.012 244.345 359.799 247.929C361.587 251.513 362.731 255.494 363.159 259.624C363.587 263.754 363.291 267.944 362.288 271.933C361.286 275.921 359.598 279.622 357.332 282.805C358.425 284.555 359.354 286.441 360.102 288.43L341.591 298.936L361.22 291.953C362.456 296.777 362.655 301.889 361.8 306.827C360.944 311.764 359.06 316.372 356.319 320.231C359.169 324.804 360.873 330.233 361.237 335.897C361.6 341.561 360.609 347.232 358.375 352.261C356.142 357.291 352.757 361.475 348.607 364.336C344.458 367.197 339.711 368.62 334.91 368.441C330.109 368.262 325.447 366.488 321.458 363.324C317.469 360.159 314.314 355.731 312.353 350.545C310.392 345.36 309.705 339.626 310.369 334C311.034 328.374 313.024 323.083 316.112 318.732C312.707 313.267 310.954 306.608 311.135 299.823C311.316 293.039 313.421 286.523 317.11 281.323H317.125Z" fill="#887BB1"/>
<path opacity="0.1" d="M362.308 301.733C362.133 308.522 360.023 315.041 356.319 320.231C359.169 324.804 360.873 330.233 361.237 335.897C361.6 341.561 360.609 347.232 358.375 352.261C356.142 357.29 352.757 361.475 348.607 364.336C344.458 367.197 339.711 368.619 334.91 368.44C330.109 368.261 325.447 366.488 321.458 363.324C317.469 360.159 314.314 355.731 312.353 350.545C310.392 345.36 309.705 339.626 310.369 334C311.034 328.374 313.024 323.083 316.112 318.732C312.833 313.461 362.398 298.339 362.308 301.733Z" fill="black"/>
</g>
<g opacity="0.2">
<path opacity="0.2" d="M263.672 391.838C263.656 392.474 263.594 393.108 263.487 393.733C260.014 393.079 256.52 392.489 253.006 391.962C253.006 391.797 253.006 391.625 253.006 391.454C253.039 389.684 253.47 387.957 254.254 386.449C255.282 384.525 256.844 383.321 258.566 383.386C260.288 383.451 261.78 384.767 262.704 386.756C263.402 388.318 263.736 390.072 263.672 391.838Z" fill="#222222"/>
<path opacity="0.2" d="M263.953 381.754C264.075 377.189 261.784 373.4 258.836 373.29C255.888 373.179 253.399 376.791 253.277 381.355C253.156 385.92 255.446 389.709 258.394 389.82C261.342 389.93 263.831 386.319 263.953 381.754Z" fill="#222222"/>
<path opacity="0.2" d="M264.225 371.649C264.347 367.084 262.056 363.295 259.108 363.185C256.161 363.074 253.672 366.686 253.55 371.25C253.428 375.815 255.719 379.604 258.667 379.715C261.615 379.825 264.103 376.214 264.225 371.649Z" fill="#222222"/>
<path opacity="0.2" d="M264.493 361.545C264.615 356.98 262.324 353.19 259.376 353.08C256.428 352.97 253.94 356.581 253.818 361.146C253.696 365.71 255.986 369.5 258.934 369.61C261.882 369.72 264.371 366.109 264.493 361.545Z" fill="#222222"/>
<path opacity="0.2" d="M264.76 351.439C264.882 346.875 262.591 343.085 259.643 342.975C256.695 342.865 254.207 346.476 254.085 351.04C253.963 355.605 256.253 359.394 259.201 359.505C262.149 359.615 264.638 356.004 264.76 351.439Z" fill="#222222"/>
<path opacity="0.2" d="M241.262 281.323C240.559 280.198 239.925 279.014 239.365 277.782L253.47 275.58L238.287 275.15C236.932 271.349 236.247 267.262 236.274 263.137C236.3 259.013 237.038 254.938 238.442 251.163L258.466 264.413L240.124 247.391C241.974 243.852 244.422 240.802 247.313 238.432C250.205 236.062 253.479 234.422 256.931 233.615C260.383 232.809 263.938 232.852 267.375 233.744C270.811 234.635 274.056 236.354 276.905 238.795C279.755 241.236 282.148 244.345 283.936 247.929C285.724 251.513 286.868 255.494 287.296 259.624C287.724 263.754 287.428 267.944 286.425 271.933C285.422 275.921 283.735 279.622 281.469 282.805C282.562 284.555 283.491 286.441 284.239 288.43L265.727 298.936L285.357 291.953C286.593 296.777 286.792 301.889 285.936 306.827C285.08 311.764 283.197 316.372 280.456 320.231C283.305 324.804 285.01 330.233 285.373 335.897C285.737 341.561 284.746 347.232 282.512 352.261C280.279 357.291 276.894 361.475 272.744 364.336C268.595 367.197 263.848 368.62 259.047 368.441C254.246 368.262 249.584 366.488 245.595 363.324C241.606 360.159 238.451 355.731 236.49 350.545C234.529 345.36 233.841 339.626 234.506 334C235.171 328.374 237.161 323.083 240.249 318.732C236.844 313.267 235.091 306.608 235.272 299.823C235.453 293.039 237.557 286.523 241.247 281.323H241.262Z" fill="black"/>
<path opacity="0.1" d="M286.445 301.733C286.27 308.522 284.159 315.041 280.456 320.231C283.305 324.804 285.01 330.233 285.373 335.897C285.737 341.561 284.746 347.232 282.512 352.261C280.279 357.29 276.894 361.475 272.744 364.336C268.595 367.197 263.848 368.619 259.047 368.44C254.246 368.261 249.584 366.488 245.595 363.324C241.606 360.159 238.451 355.731 236.49 350.545C234.529 345.36 233.841 339.626 234.506 334C235.171 328.374 237.161 323.083 240.249 318.732C236.97 313.461 286.535 298.339 286.445 301.733Z" fill="black"/>
</g>
<g opacity="0.2">
<path opacity="0.2" d="M470.895 398.295C470.857 399.501 470.735 400.701 470.531 401.883C463.843 400.62 457.107 399.491 450.322 398.495C450.322 398.177 450.322 397.852 450.322 397.522C450.386 394.113 451.216 390.786 452.728 387.883C454.724 384.182 457.719 381.863 461.028 381.981C464.337 382.099 467.217 384.643 469.013 388.473C470.368 391.491 471.018 394.881 470.895 398.295Z" fill="#222222"/>
<path opacity="0.2" d="M471.439 378.862C471.674 370.072 467.262 362.774 461.583 362.562C455.905 362.349 451.112 369.303 450.877 378.094C450.642 386.884 455.055 394.182 460.733 394.394C466.411 394.607 471.204 387.653 471.439 378.862Z" fill="#222222"/>
<path opacity="0.2" d="M471.958 359.408C472.193 350.618 467.78 343.32 462.102 343.108C456.424 342.895 451.63 349.849 451.396 358.64C451.161 367.43 455.573 374.728 461.251 374.94C466.93 375.153 471.723 368.199 471.958 359.408Z" fill="#222222"/>
<path opacity="0.2" d="M472.48 339.954C472.715 331.164 468.302 323.866 462.624 323.653C456.946 323.441 452.152 330.395 451.918 339.186C451.683 347.976 456.095 355.274 461.773 355.486C467.452 355.698 472.245 348.744 472.48 339.954Z" fill="#222222"/>
<path opacity="0.2" d="M472.415 319.615C472.638 310.82 468.214 303.527 462.533 303.325C456.852 303.124 452.066 310.09 451.842 318.885C451.619 327.68 456.044 334.972 461.725 335.174C467.406 335.376 472.192 328.409 472.415 319.615Z" fill="#222222"/>
<path opacity="0.2" d="M427.749 185.541C426.402 183.374 425.183 181.1 424.1 178.736L451.251 174.498L422.029 173.666C419.419 166.35 418.098 158.481 418.148 150.54C418.198 142.6 419.617 134.755 422.318 127.486L460.873 152.99L425.567 120.22C429.137 113.423 433.853 107.568 439.42 103.021C444.987 98.4735 451.286 95.3307 457.925 93.7884C464.564 92.2462 471.401 92.3375 478.009 94.0568C484.617 95.776 490.854 99.0864 496.333 103.781C501.812 108.477 506.414 114.456 509.853 121.347C513.292 128.237 515.494 135.892 516.322 143.833C517.15 151.774 516.586 159.832 514.665 167.504C512.745 175.177 509.508 182.299 505.158 188.427C507.261 191.8 509.049 195.431 510.493 199.258L474.853 219.497L512.639 206.04C515.021 215.315 515.409 225.146 513.768 234.643C512.127 244.139 508.509 253.002 503.241 260.429C508.727 269.232 512.007 279.683 512.706 290.587C513.406 301.491 511.496 312.408 507.197 322.089C502.897 331.77 496.38 339.825 488.392 345.332C480.404 350.84 471.266 353.578 462.024 353.233C452.782 352.889 443.808 349.475 436.129 343.384C428.45 337.292 422.376 328.768 418.6 318.785C414.825 308.803 413.501 297.766 414.78 286.936C416.059 276.106 419.889 265.92 425.832 257.543C419.281 247.023 415.909 234.205 416.256 221.147C416.604 208.089 420.651 195.547 427.749 185.535V185.541Z" fill="black"/>
<path opacity="0.1" d="M514.741 224.827C514.413 237.888 510.369 250.436 503.262 260.441C508.747 269.244 512.027 279.695 512.726 290.599C513.426 301.503 511.516 312.419 507.217 322.1C502.917 331.782 496.4 339.836 488.412 345.344C480.424 350.851 471.286 353.589 462.044 353.245C452.802 352.9 443.828 349.487 436.149 343.395C428.47 337.304 422.396 328.779 418.62 318.797C414.845 308.815 413.521 297.778 414.8 286.948C416.079 276.118 419.909 265.932 425.852 257.555C419.494 247.397 514.915 218.293 514.741 224.827Z" fill="black"/>
</g>
<path d="M79.0125 399.451L84.2272 399.434H91.5796L100.876 219.927L192.937 37.3183L188.936 32.2128V19.2837L89.3724 215.696L79.0125 399.451Z" fill="#FA8E43"/>
<path opacity="0.1" d="M84.5249 399.451H91.3368L100.655 219.9L192.937 37.2464L188.926 32.1396L93.7387 217.164L84.5249 399.451Z" fill="black"/>
<path d="M63.3938 400.295L302.719 422.391L302.923 422.409L534.538 405.223L534.713 405.211V393.411L279.502 387.761L66.5808 387.514H65.0247L64.8551 388.838L63.3938 400.295Z" fill="#FA8E43"/>
<path opacity="0.1" d="M63.3938 400.295L302.719 422.391L302.923 422.409L534.538 405.223L534.713 404.995V393.658H534.508L302.719 402.997L66.5808 387.514H66.5459L66.1269 387.845L64.8551 388.838L63.3938 400.295Z" fill="black"/>
<path opacity="0.1" d="M63.3938 401.264L303.188 422.409V403.85L66.1323 389.351L64.858 390.301L63.3938 401.264Z" fill="black"/>
<path d="M189.262 31.8282L294.683 165.931L291.424 401.819L300.378 403.101L300.528 403.125H309.483L310.554 176.06L507.955 254.209L511.284 393.356L518.489 394.313L520.931 394.638L515.28 244.559L308.925 158.696L195.776 19.2837H189.262V31.8282Z" fill="#FA8E43"/>
<path opacity="0.1" d="M309.619 171.718L310.434 176.07L508.522 254.411L511.863 393.901L519.094 394.86L513.423 251.51L309.619 171.718Z" fill="black"/>
<path opacity="0.1" d="M189.262 31.8289L295.024 165.94L291.754 401.843L300.738 403.125L303.187 158.221L189.262 19.2837V31.8289Z" fill="black"/>
<path d="M310.538 266.163L382.883 283.227L382.908 283.233L509.618 313.133L515.419 310.348L515.399 309.859L515.02 300.166L310.612 250.69L310.538 266.163Z" fill="#FA8E43"/>
<path opacity="0.1" d="M383.119 283.749L509.627 313.133L515.419 310.396L515.399 309.915L383.119 283.749Z" fill="black"/>
<path d="M387.712 206.613L389.666 334.064L390.676 399.451L399.57 399.098L405.169 398.874L403.428 208.457L399.57 206.937L398.725 206.613H387.712Z" fill="#FA8E43"/>
<path opacity="0.1" d="M387.712 206.613V206.642L389.613 334.074L390.637 399.451L399.656 399.098V206.613H387.712Z" fill="black"/>
<path d="M247.737 239.259C248.249 239.585 248.738 239.956 249.2 240.371C249.746 240.93 250.236 241.56 250.662 242.247C252.753 245.412 254.683 249.09 254.479 253.081C254.483 253.662 254.389 254.238 254.203 254.776C254.016 255.314 253.74 255.804 253.392 256.217C252.529 257.078 251.291 257.118 250.16 257.118C248.931 257.118 247.64 257.118 246.577 256.377C245.514 255.636 244.627 254.193 243.37 254.227C243.192 254.262 243.011 254.262 242.833 254.227C242.4 254.062 242.312 253.395 242.029 252.973C241.542 252.214 240.513 252.403 239.748 252.733C238.983 253.064 238.134 253.56 237.379 253.178C236.94 252.907 236.582 252.488 236.35 251.975C234.542 248.554 234.157 244.442 233.816 240.468C233.606 238.051 232.007 229.805 236.419 231.681C238.368 232.502 240.191 234.145 241.966 235.348L247.737 239.259Z" fill="#222222"/>
<path d="M243.448 240.261C243.842 240.618 244.321 240.799 244.806 240.774C245.292 240.75 245.757 240.521 246.127 240.126C246.854 239.299 247.317 238.169 247.43 236.945C247.918 236.754 248.167 237.559 248.479 238.05C249.026 238.885 250.139 238.873 250.636 239.763C250.983 240.378 250.905 241.231 251.149 241.925C251.466 242.822 252.252 243.289 252.788 244.013C253.295 244.805 253.661 245.724 253.862 246.709L254.662 249.731C255.045 250.987 255.291 252.303 255.394 253.643C255.445 254.312 255.389 254.988 255.23 255.63C255.07 256.272 254.811 256.868 254.467 257.383C253.393 258.838 251.632 258.992 250.075 258.949C249.555 258.963 249.036 258.886 248.533 258.721C247.152 258.181 246.269 256.431 245.903 254.668C245.537 252.906 245.576 251.057 245.361 249.252C245.129 247.478 244.719 245.749 244.141 244.105C243.711 242.828 242.531 240.924 242.55 239.567C242.901 239.567 243.155 239.972 243.448 240.261Z" fill="#222222"/>
<path d="M244.756 234.471C244.523 233.627 244.388 232.75 244.353 231.863C244.353 230.082 245.036 228.407 245.724 226.815L240.025 227.736C239.337 227.848 238.57 228.015 238.181 228.698C238.033 229.036 237.956 229.412 237.956 229.793C237.956 230.175 238.033 230.551 238.181 230.889C238.467 231.567 238.694 232.277 238.859 233.01C238.872 233.65 238.934 234.289 239.043 234.916C239.221 235.377 239.469 235.794 239.776 236.146C241.406 238.296 242.628 240.832 243.844 243.344C243.809 243.273 247.279 240.071 247.139 239.026C247.06 238.432 246.058 237.719 245.739 237.149C245.298 236.322 244.967 235.418 244.756 234.471Z" fill="#BE6F72"/>
<path d="M294 211.204V217.04L209.654 236.531L205.278 239.671H190.181V236.383L273.052 212.661L294 211.204Z" fill="#FA8E43"/>
<path opacity="0.1" d="M294 217.632L209.654 236.613L205.278 239.671H190.181L273.667 219.057L294 217.632Z" fill="black"/>
<path d="M226.066 376.562C225.14 375.209 223.863 374.274 222.441 373.91C221.019 373.545 219.537 373.772 218.235 374.553C217.957 374.711 217.711 374.943 217.516 375.231C217.024 376.063 217.339 377.21 217.383 378.239C217.497 380.747 215.842 382.786 214.355 384.54C213.557 385.479 212.744 386.484 212.385 387.762C212.025 389.04 212.291 390.663 213.256 391.328C213.678 391.583 214.136 391.737 214.606 391.78C216.18 392.151 217.794 392.205 219.383 391.941C220.954 391.578 222.495 390.502 223.175 388.754C223.306 388.281 223.523 387.848 223.81 387.488C224.677 386.662 226.007 387.631 226.992 387.042C227.804 386.555 227.839 385.788 227.848 384.778C227.878 381.984 227.533 378.821 226.066 376.562Z" fill="#887BB1"/>
<path d="M238.114 376.152C238.697 378.052 238.778 380.121 238.854 382.15C238.897 383.323 238.925 384.577 238.413 385.568C237.901 386.559 236.901 387.081 235.943 387.327C233.966 387.831 231.676 387.356 230.4 385.416C229.424 383.932 229.22 381.898 229.4 379.975C229.552 378.398 229.874 376.551 228.959 375.431C228.722 375.132 228.414 374.921 228.196 374.599C227.721 373.883 227.797 372.805 228.053 371.925C228.387 371.084 228.637 370.196 228.798 369.281C228.836 368.847 235.217 369.586 235.805 369.944C236.607 370.43 236.483 371.245 236.725 372.23C237.062 373.602 237.707 374.839 238.114 376.152Z" fill="#887BB1"/>
<path d="M239.296 291.09C240.621 292.104 241.133 294.096 241.339 295.945C241.906 301.013 240.912 306.135 240.837 311.25C240.767 318.417 242.524 325.714 241.023 332.656C240.124 336.805 240.887 341.547 240.044 345.738C239.793 346.983 239.331 348.157 239.09 349.402C238.589 352.099 239.116 354.92 239.823 357.558C240.049 358.269 240.193 359.013 240.25 359.769C240.216 360.934 239.966 362.075 239.517 363.112L236.506 371.524C236.169 372.466 234.844 372.621 233.996 372.745C232.4 372.97 230.618 373.13 229.348 371.963C228.078 370.795 227.772 368.839 227.576 367.013C227.201 363.508 227.033 359.976 227.074 356.444C227.13 355.522 227.06 354.595 226.869 353.699C226.593 352.685 225.985 351.808 225.82 350.735C225.609 349.348 226.206 347.985 226.427 346.586C226.578 345.308 226.561 344.01 226.377 342.739C226.181 340.842 225.955 338.945 225.699 337.06C225.338 334.422 225.855 331.82 226.201 329.176C226.527 326.692 226.111 324.161 225.699 321.695C225.735 323.697 225.523 325.693 225.072 327.623C224.806 328.565 224.424 329.466 224.193 330.427C223.164 334.736 225.358 339.259 225.047 343.723C224.901 345.809 224.208 347.872 224.404 349.929C224.54 351.435 225.132 352.816 225.539 354.25C225.945 355.685 226.156 357.327 225.539 358.667C223.907 362.306 225.127 367.256 226.588 370.99C226.884 371.653 227.142 372.338 227.36 373.041C227.792 374.725 227.431 376.533 227.546 378.287C227.126 378.369 226.695 378.336 226.287 378.191C225.88 378.046 225.505 377.793 225.192 377.452C224.971 377.179 224.791 376.859 224.575 376.574C223.972 375.896 223.258 375.369 222.477 375.027C222.018 374.724 221.496 374.582 220.971 374.618C220.419 374.8 219.923 375.164 219.541 375.667C219.044 376.183 218.517 376.656 217.965 377.084C217.729 377.298 217.454 377.442 217.161 377.505C217.015 377.532 216.864 377.503 216.732 377.424C216.599 377.344 216.491 377.217 216.424 377.06C216.392 376.962 216.374 376.858 216.368 376.752C216.182 374.962 216.083 373.161 216.072 371.358C216.072 368.258 212.93 366.124 212.534 363.059C212.218 360.587 212.805 358.068 212.609 355.578C212.514 354.298 212.213 353.041 212.233 351.761C212.233 350.931 212.393 350.119 212.448 349.295C212.494 348.38 212.483 347.463 212.413 346.55L212.258 343.687C212.107 340.86 211.941 337.973 210.998 335.388C209.879 332.37 209.216 329.144 209.04 325.856C208.94 323.782 209.005 321.707 208.804 319.626C208.624 317.747 208.222 315.88 208.338 313.995C208.433 312.537 208.84 311.126 208.935 309.668C209.131 306.864 208.227 304.137 207.52 301.452C206.812 298.767 206.29 295.791 207.218 293.2C207.351 292.775 207.572 292.396 207.861 292.098C208.217 291.82 208.622 291.641 209.045 291.576C217.657 289.44 226.484 288.775 235.256 289.602C236.686 289.698 238.074 290.209 239.296 291.09Z" fill="#222222"/>
<path d="M211.313 227.733C215.879 227.733 219.581 223.622 219.581 218.55C219.581 213.479 215.879 209.368 211.313 209.368C206.746 209.368 203.044 213.479 203.044 218.55C203.044 223.622 206.746 227.733 211.313 227.733Z" fill="#BE6F72"/>
<path d="M209.809 230.988C209.925 231.553 209.925 232.144 209.809 232.709C209.683 233.103 209.506 233.47 209.284 233.794C208.509 235.028 207.651 236.179 206.719 237.236C207.193 238.543 208.048 239.584 209.114 240.153C210.173 240.708 211.283 241.1 212.42 241.318C212.987 241.502 213.578 241.553 214.16 241.466C214.697 241.3 215.205 241.016 215.661 240.628L220.111 237.34C220.783 236.892 221.405 236.338 221.962 235.694C222.778 234.659 223.24 233.276 223.252 231.833C223.273 231.574 223.216 231.315 223.092 231.105C222.921 230.922 222.707 230.812 222.482 230.791C220.917 230.365 219.681 228.799 218.981 227.022C218.348 225.202 217.939 223.275 217.766 221.305L213.02 224.389C212.315 224.851 211.615 225.314 210.885 225.715C210.419 225.974 209.479 226.19 209.149 226.714C208.519 227.682 209.644 229.822 209.809 230.988Z" fill="#BE6F72"/>
<path d="M206.523 235.511C205.857 236.156 205.336 236.986 205.009 237.927C204.703 239.091 205.009 240.32 205.285 241.472C206.58 246.385 207.569 251.403 208.245 256.485C208.659 259.978 208.812 263.523 209.014 267.057C209.428 274.263 210.03 285.755 210.834 292.915C213.794 293.072 216.679 292.053 219.614 291.681C225.099 290.994 230.747 292.565 236.119 291.099C234.817 285.027 233.514 274.659 232.212 268.594C231.636 266.204 231.237 263.759 231.019 261.288C230.905 259.512 230.974 257.731 230.994 255.944C231.038 252.451 230.875 248.958 230.713 245.466C230.525 241.391 230.338 237.316 229.519 233.328C229.462 232.82 229.26 232.35 228.947 231.995C228.454 231.57 227.812 231.722 227.225 231.815C225.428 232.084 223.609 231.575 222.105 230.383C221.454 229.859 220.581 229.219 219.974 229.801C219.715 230.152 219.545 230.581 219.481 231.041C219.213 231.864 218.798 232.611 218.266 233.23C217.733 233.849 217.095 234.327 216.393 234.632C214.988 235.233 213.515 235.59 212.023 235.692C211.566 235.808 211.09 235.744 210.667 235.511C209.966 235.005 209.917 233.183 209.034 233.061C208.259 232.956 207.046 234.923 206.523 235.511Z" fill="#222222"/>
<path d="M218.084 249.5C216.237 247.429 215.426 244.424 214.08 241.872C213.163 240.155 211.992 238.645 210.621 237.412C209.932 236.878 209.301 236.25 208.739 235.54C208.264 234.853 207.904 233.938 207.183 233.674C206.885 233.598 206.576 233.608 206.282 233.703C205.988 233.798 205.719 233.975 205.496 234.219C205.055 234.712 204.637 235.234 204.245 235.78C202.123 238.357 198.394 238.714 196.713 241.695C196.259 242.328 195.951 243.085 195.817 243.896C195.333 248.235 196.289 252.626 198.489 256.16C198.915 256.98 199.569 257.602 200.341 257.921C200.237 259.015 200.36 260.123 200.702 261.148C201.628 264.862 202.767 268.499 204.11 272.034C203.789 273.417 203.565 274.828 203.439 276.253C203.089 279.839 203.414 283.477 203.084 287.068C202.814 290.002 202.083 292.86 202.058 295.8C202.058 296.269 202.093 296.827 202.438 297.067C202.622 297.178 202.828 297.229 203.034 297.214L209.19 297.431C212.763 297.554 216.372 297.678 219.89 296.903C220.359 296.822 220.813 296.653 221.237 296.404C222.428 295.624 222.823 293.863 223.013 292.297C223.262 290.264 223.361 288.211 223.309 286.158C224.054 288.922 224.94 291.78 227.192 292.977C228.384 293.611 229.745 293.564 231.051 293.523C233.867 293.376 236.673 293.037 239.454 292.508C239.626 292.533 239.8 292.51 239.963 292.442C240.125 292.374 240.272 292.262 240.391 292.116C240.511 291.969 240.599 291.792 240.649 291.598C240.699 291.404 240.71 291.199 240.681 291L240.711 287.796C240.771 281.288 239.394 275.068 238.859 268.589C238.689 266.547 238.704 264.482 238.278 262.48C238.103 261.641 237.848 260.82 237.693 259.975C237.559 259.147 237.476 258.31 237.442 257.469L237.052 251.014C236.867 248.027 236.602 245.146 236.406 242.165C236.299 239.262 235.94 236.38 235.335 233.562C234.9 231.802 233.994 229.807 232.428 229.589C231.592 229.478 230.781 229.906 229.985 230.206C228.029 230.928 225.93 230.917 223.979 230.176C223.377 229.897 222.749 229.7 222.108 229.589C221.785 229.538 221.456 229.588 221.155 229.734C220.855 229.881 220.593 230.118 220.396 230.423C220.202 230.881 220.11 231.39 220.131 231.902C219.895 237.764 219.46 243.802 218.084 249.5Z" fill="#887BB1"/>
<path d="M210.358 250.121C208.075 247.274 205.732 244.373 202.79 242.562C201.632 241.848 200.314 241.308 199.031 241.578C197.749 241.848 196.555 243.166 196.615 244.707C196.654 245.662 197.145 246.506 197.298 247.443C197.476 248.498 197.219 249.623 197.496 250.643C197.722 251.315 198.058 251.926 198.487 252.442L201.993 257.358C203.479 259.409 204.965 261.489 206.876 262.907C208.788 264.325 211.264 264.987 213.364 263.979C214.858 263.158 216.1 261.809 216.92 260.118C217.791 258.477 218.405 256.684 219.223 254.991C220.494 252.285 222.173 249.876 224.175 247.883C223.145 247.566 221.852 247.121 221.204 246.125C221.019 245.808 220.861 245.471 220.733 245.117L219.931 243.066C219.658 243.049 219.385 243.1 219.129 243.214C218.874 243.328 218.641 243.503 218.445 243.728C218.101 244.199 217.732 244.643 217.341 245.059C216.642 245.68 215.696 245.85 215.063 246.559C214.817 246.863 214.595 247.192 214.399 247.543C213.919 248.289 213.311 248.904 212.614 249.349C211.917 249.794 211.148 250.057 210.358 250.121Z" fill="#222222"/>
<path d="M224.809 237.428C226.513 233.634 226.434 229.084 226.921 224.798C226.973 223.663 227.3 222.572 227.859 221.663C228.841 220.308 230.575 220.29 232.058 220.464C232.495 220.524 233.04 220.776 233.016 221.309C232.981 221.5 232.905 221.676 232.795 221.819C231.357 224.083 230.512 226.824 230.369 229.683C231.14 230.337 232.333 228.994 233.075 229.683C233.566 230.187 233.34 231.182 233.045 231.901C232.361 233.568 231.655 235.222 230.929 236.865C230.348 238.313 229.591 239.644 228.684 240.815C228.06 241.547 227.328 242.122 226.695 242.841C225.221 244.526 224.332 246.906 222.81 248.548C222.681 248.718 222.507 248.827 222.319 248.854C222.125 248.837 221.942 248.737 221.803 248.572C221.042 247.817 220.411 246.886 219.946 245.833C219.367 244.526 219.455 244.142 220.369 243.219C222.078 241.571 223.743 239.802 224.809 237.428Z" fill="#BE6F72"/>
<path d="M207.602 247.549C207.895 247.792 208.256 248.069 208.578 247.865C208.71 247.757 208.822 247.611 208.905 247.437C209.463 246.434 209.929 245.343 210.291 244.188C210.354 244.025 210.389 243.845 210.394 243.662C210.394 243.241 210.116 242.932 209.857 242.688C208.471 241.498 206.981 240.543 205.421 239.847C204.133 239.189 202.786 238.617 201.419 238.781C200.906 238.828 200.405 239.014 199.946 239.328C199.487 239.642 199.08 240.078 198.75 240.61C197.774 242.3 199.409 242.813 200.433 243.425C202.805 244.879 205.372 245.721 207.602 247.549Z" fill="#887BB1"/>
<path opacity="0.1" d="M205.808 258.171C205.79 258.313 205.801 258.458 205.841 258.594C205.881 258.73 205.949 258.854 206.038 258.955C206.197 258.071 205.989 257.138 206.153 256.249C206.394 254.911 207.539 253.903 207.637 252.56C205.54 252.093 205.825 256.728 205.808 258.171Z" fill="black"/>
<path opacity="0.2" d="M294 211.204V217.078L273.489 218.55L272.869 212.671L294 211.204Z" fill="black"/>
<path d="M203.643 220.114C204.91 218.933 204.177 216.457 205.034 214.87C205.533 214.003 206.376 213.546 207.204 213.158C208.203 212.623 209.274 212.284 210.371 212.154C210.921 212.093 211.475 212.175 211.993 212.394C212.511 212.612 212.98 212.961 213.364 213.415C213.688 213.837 213.907 214.351 214.211 214.79C214.588 215.303 215.079 215.689 215.632 215.908C216.186 216.127 216.78 216.171 217.354 216.034C218.017 215.863 218.705 215.287 218.66 214.511C218.585 214.039 218.375 213.609 218.062 213.289L216.635 211.48C215.014 209.426 213.214 207.246 210.835 206.733C209.179 206.373 207.483 206.881 205.887 207.491C205.244 207.737 204.521 208.102 204.341 208.85C204.222 209.363 204.401 209.922 204.296 210.442C204.092 211.475 202.935 211.823 202.396 212.69C201.857 213.558 202.022 214.585 201.867 215.543C201.713 216.502 201.264 217.438 201.209 218.431C201.174 219.03 201.439 220.143 202.027 220.36C202.616 220.577 203.279 219.401 203.643 220.114Z" fill="#222222"/>
<path d="M218.662 213.916C218.24 211.377 217.33 208.979 216 206.898C214.816 204.954 213.17 203.447 211.26 202.558C210.305 202.128 209.278 201.953 208.256 202.046C207.234 202.139 206.243 202.497 205.359 203.095C204.046 204.176 203.024 205.662 202.411 207.383C201.114 210.603 200.634 214.539 202.14 217.632C202.741 216.79 203.772 217.171 204.683 216.865C205.824 216.49 206.79 215.612 207.876 215.064C211.155 213.396 215.159 214.747 218.662 213.916Z" fill="#FED253"/>
<path opacity="0.1" d="M203.173 213.87C203.067 212.983 202.998 211.953 203.586 211.323C203.615 211.284 203.652 211.253 203.695 211.233C203.737 211.212 203.783 211.202 203.829 211.204C203.87 211.219 203.908 211.242 203.941 211.272C203.973 211.303 203.999 211.34 204.018 211.382C204.357 211.956 204.646 212.563 204.881 213.195C204.539 213.111 204.181 213.138 203.853 213.274C203.526 213.41 203.244 213.649 203.044 213.959" fill="black"/>
<path opacity="0.1" d="M214.335 210.899L214.131 208.48C214.098 208.281 214.112 208.075 214.171 207.884C214.256 207.725 214.388 207.609 214.54 207.558C214.693 207.508 214.856 207.528 214.997 207.613C215.275 207.798 215.505 208.073 215.659 208.406C216.13 209.272 216.521 210.196 216.825 211.164C215.914 210.953 214.976 210.967 214.069 211.204" fill="black"/>
<path opacity="0.1" d="M218.663 296.604V300.951L215.287 301.196H197.531V296.604H218.663Z" fill="black"/>
<path d="M218.663 296.14V301.196H197.306L140.569 217.017V213.041H152.463L218.663 296.14Z" fill="#FA8E43"/>
<path opacity="0.1" d="M218.663 296.14V301.196H197.306L140.569 217.017V213.041H152.463L218.663 296.14Z" fill="black"/>
<path opacity="0.1" d="M218.663 296.14V301.196H197.306L140.569 217.017V213.041L197.613 296.14H218.663Z" fill="black"/>
<path d="M147.482 381.407C147.52 381.646 147.516 381.892 147.469 382.13C147.422 382.367 147.334 382.59 147.211 382.786C147.088 382.981 146.931 383.145 146.752 383.266C146.572 383.387 146.373 383.464 146.168 383.49C144.773 384.045 143.292 384.594 142.304 385.851C141.315 387.108 141.12 389.44 142.304 390.461C142.909 390.89 143.604 391.113 144.311 391.104C146.584 391.287 148.953 391.252 151.015 390.119C152.49 389.316 153.88 387.947 155.501 388.07C156.339 388.129 157.232 388.59 157.979 388.141C158.727 387.693 158.938 386.441 158.943 385.397C158.962 383.216 158.682 381.046 158.115 378.969C158.04 378.686 154.848 378.468 154.467 378.379L150.598 377.789C149.866 377.677 148.285 377.028 147.708 377.748C147.131 378.468 147.482 380.551 147.482 381.407Z" fill="#887BB1"/>
<path d="M171.022 366.062C171.187 367.136 171.454 368.184 171.819 369.186C172.358 370.807 173.049 372.53 174.37 373.317C175.57 374.026 177.042 373.77 178.262 373.096C178.771 372.847 179.217 372.446 179.558 371.934C179.951 371.123 180.127 370.189 180.062 369.257C180.062 366.951 179.946 364.566 179.053 362.516C178.287 360.728 176.951 359.19 176.931 357.211L172.338 358.26C172.092 358.288 171.858 358.397 171.663 358.576C171.517 358.757 171.416 358.982 171.37 359.226C170.88 361.456 170.762 363.778 171.022 366.062Z" fill="#887BB1"/>
<path d="M116.763 310.864C116.58 312.749 116.657 314.769 117.467 316.396C118.276 318.024 119.981 319.101 121.455 318.451C121.53 318.428 121.601 318.386 121.663 318.329C121.725 318.271 121.777 318.199 121.816 318.117C121.855 317.919 121.833 317.711 121.753 317.532C121.103 315.421 121.156 313.085 121.903 311.022C121.999 310.753 122.206 310.437 122.432 310.542C122.527 310.6 122.603 310.695 122.649 310.811C122.882 311.302 122.999 311.861 122.986 312.427C122.918 312.94 122.905 313.462 122.948 313.978C123.039 314.482 123.482 314.956 123.868 314.739C123.979 314.656 124.075 314.547 124.151 314.417C124.226 314.287 124.279 314.14 124.306 313.984C125.38 310.208 124.894 306.081 124.402 302.13C124.406 302.039 124.394 301.948 124.366 301.864C124.338 301.78 124.295 301.704 124.241 301.642C124.186 301.58 124.121 301.533 124.05 301.505C123.979 301.477 123.903 301.469 123.829 301.48C121.556 301.205 120.313 300.543 119.013 303.113C117.895 305.279 116.763 308.259 116.763 310.864Z" fill="#887BB1"/>
<path d="M143.845 300.137C143.151 303.575 142.451 307.054 142.406 310.586C142.418 312.786 142.558 314.983 142.823 317.16L143.344 322.276C143.523 324 143.697 325.719 143.95 327.426C144.111 328.306 144.199 329.202 144.213 330.102C144.164 330.989 144.046 331.869 143.86 332.73C143.548 334.539 143.374 336.378 143.339 338.224C143.285 341.177 143.592 344.13 143.786 347.084C144.172 352.969 144.114 358.884 143.612 364.757C143.412 366.342 143.701 367.96 144.426 369.311C144.72 369.737 144.962 370.21 145.146 370.717C145.518 372.069 144.649 373.422 144.426 374.81C144.283 375.892 144.507 376.998 145.049 377.884C145.59 378.77 146.405 379.364 147.314 379.535C151.284 380.096 155.363 379.842 158.941 382.004C159.319 380.693 158.495 379.205 158.872 377.87C159.11 377.043 159.765 376.505 160.212 375.808C160.812 374.746 161.111 373.484 161.065 372.205C161.083 370.536 160.834 368.878 160.331 367.32C159.909 366.021 159.304 364.739 159.338 363.345C159.338 362.66 159.542 361.939 159.309 361.307C159.149 360.944 158.931 360.621 158.668 360.356C157.185 358.422 156.274 355.964 156.073 353.357C155.88 350.769 155.95 348.163 156.281 345.595C156.525 343.15 156.852 340.569 158.157 338.661C157.552 332.876 157.908 327.005 159.204 321.384C159.333 320.864 159.537 320.261 159.984 320.137C160.161 320.116 160.34 320.145 160.506 320.223C160.672 320.301 160.819 320.426 160.936 320.586C161.715 321.454 162.088 322.713 162.425 323.918C162.797 325.223 163.174 326.617 162.892 327.952C162.772 328.543 162.534 329.062 162.395 329.629C162.093 330.769 162.146 332 162.544 333.097C162.738 333.498 162.86 333.942 162.901 334.402C162.855 334.797 162.755 335.18 162.604 335.536C162.42 336.235 162.361 336.972 162.432 337.7C162.503 338.428 162.702 339.129 163.016 339.759C163.648 341.014 164.429 342.154 165.333 343.144C164.901 345.411 165.013 347.777 165.656 349.972C165.702 350.071 165.732 350.18 165.743 350.292C165.754 350.405 165.746 350.519 165.72 350.628C165.631 350.852 165.403 350.935 165.224 351.094C164.728 351.579 165.035 352.494 165.368 353.126C166.279 354.861 167.285 356.523 168.38 358.1C169.373 359.512 169.283 362.235 170.762 362.743C171.384 362.902 172.026 362.902 172.648 362.743C174.107 362.477 175.735 361.975 176.449 360.439C176.742 359.807 176.861 359.039 177.318 358.566C177.774 358.094 178.365 358.011 178.618 357.444C178.871 356.877 178.588 356.133 178.672 355.477C178.757 354.822 179.238 354.296 179.392 353.605C179.759 352.01 178.196 350.699 177.983 349.068C177.675 346.706 180.176 344.934 180.072 342.571C179.853 337.438 179.715 332.282 179.491 327.149C179.211 322.551 179.171 317.936 179.372 313.333C179.546 310.468 179.868 307.467 178.985 304.803C177.715 301.047 174.211 298.938 170.822 298.536C167.432 298.135 164.053 299.092 160.693 299.718C155.117 300.741 149.452 300.882 143.845 300.137Z" fill="#222222"/>
<path d="M153.891 244.262C158.204 244.262 161.7 239.946 161.7 234.62C161.7 229.295 158.204 224.979 153.891 224.979C149.578 224.979 146.081 229.295 146.081 234.62C146.081 239.946 149.578 244.262 153.891 244.262Z" fill="#FBBEBE"/>
<path d="M151.154 245.974C150.89 246.767 150.445 247.437 149.88 247.898C149.314 248.359 148.653 248.589 147.984 248.557C147.702 250.058 148.377 251.571 149.149 252.753C150.752 255.155 152.823 256.964 155.149 257.991C157.475 259.019 159.972 259.229 162.382 258.6C163.32 258.383 164.209 257.905 164.988 257.199C166.039 256.069 166.744 254.496 166.979 252.759C167.202 251.034 167.266 249.282 167.168 247.538C167.195 247.193 167.119 246.848 166.954 246.574C166.76 246.381 166.52 246.279 166.275 246.287C164.634 246.099 162.921 246.018 161.479 244.98C160.037 243.942 159.013 241.597 159.707 239.671C159.595 239.971 156.76 240.115 156.387 240.177C155.217 240.39 154.047 240.628 152.882 240.903C152.322 240.942 151.769 241.077 151.236 241.303C150.532 241.772 150.795 241.541 150.96 242.391C151.207 243.692 151.571 244.623 151.154 245.974Z" fill="#FBBEBE"/>
<path d="M156.867 251.159C155.794 251.174 154.724 251.033 153.68 250.739C152.626 250.446 151.697 249.708 151.065 248.663C150.697 248 150.458 247.166 149.871 246.794C148.912 246.202 147.818 247.202 147.052 248.119C146.355 249.023 145.547 249.797 144.656 250.414C143.592 251.082 142.349 251.319 141.345 252.105C140.56 252.811 139.887 253.676 139.356 254.661L132.311 266.076C129.482 270.666 127.021 275.593 124.5 280.437C122.317 284.631 121.174 289.458 119.528 293.982C119.398 294.259 119.344 294.578 119.374 294.893C119.434 295.201 119.747 295.449 119.966 295.272C119.225 296.147 119.876 297.638 119.702 298.868C119.504 299.729 119.092 300.498 118.519 301.074C119.613 300.904 120.724 300.967 121.8 301.258C122.912 301.633 123.962 302.233 124.903 303.032C125.504 302.92 125.45 301.648 125.897 301.175C126.166 300.897 126.563 300.932 126.916 300.85C128.244 300.542 128.771 298.643 129.79 297.573C130.64 296.68 131.843 296.39 132.743 295.55C134.205 294.183 134.518 291.752 135.284 289.736C135.935 288.026 136.959 286.536 137.531 284.785C137.904 283.649 138.083 282.419 138.615 281.372C139.465 279.68 141.066 278.781 142.593 277.971C143.557 277.456 144.581 276.924 145.62 277.007C145.566 279.757 145.272 282.466 145.775 285.152C145.949 286.098 146.192 287.021 146.401 287.961C147.351 292.196 147.574 296.609 147.619 300.974C149.903 300.352 152.237 300.019 154.58 299.98C156.424 299.915 158.264 300.199 160.108 300.157C162.296 300.11 164.459 299.607 166.646 299.43C168.834 299.252 171.121 299.43 173.055 300.613C172.898 296.864 172.986 293.107 173.319 289.375L173.846 283.495C173.965 281.787 174.186 280.091 174.507 278.42C174.795 277.072 175.213 275.771 175.531 274.428C176.65 269.696 176.446 264.645 176.232 259.718C176.123 257.186 175.303 254.696 174.338 252.442C173.989 251.605 173.59 250.799 173.145 250.029C171.979 248.119 170.426 246.591 168.63 245.587C166.833 244.584 164.853 244.138 162.873 244.292C162.62 244.301 162.371 244.365 162.137 244.481C161.717 244.801 161.39 245.265 161.197 245.812C160.169 248.011 158.676 249.854 156.867 251.159Z" fill="#222222"/>
<path d="M146.762 238.332C146.993 237.753 147.614 237.538 147.994 237.075C148.723 236.195 148.395 234.787 148.508 233.6C148.693 231.862 149.971 230.409 151.435 229.789C152.927 229.249 154.515 229.135 156.056 229.459C156.798 229.52 157.515 229.789 158.141 230.241C158.408 230.461 158.655 230.744 158.906 230.947C159.365 231.26 159.914 231.358 160.436 231.221C160.958 231.083 161.411 230.721 161.7 230.212C159.882 227.744 157.869 225.138 155.106 224.379C154.159 224.161 153.193 224.058 152.226 224.072C150.947 224.043 149.627 224.02 148.446 224.57C146.839 225.318 145.709 227.038 145.129 228.891C144.621 230.77 144.35 232.719 144.323 234.683C144.217 235.993 144.217 237.311 144.323 238.621C144.521 240.411 145.11 242.116 146.038 243.585C146.163 243.813 146.34 243.999 146.551 244.124C148.893 245.282 146.572 238.813 146.762 238.332Z" fill="#222222"/>
<path d="M161.7 228.3C161.425 225.573 159.748 223.321 157.966 221.508C156.529 219.937 154.818 218.742 152.948 218.005C151.066 217.363 148.899 217.502 147.287 218.804C145.989 219.852 145.165 221.52 144.531 223.199C143.698 225.18 143.286 227.364 143.328 229.568C143.453 231.756 144.371 233.974 146.009 235.08C146.598 234.072 147.621 233.551 148.605 233.14C152.891 231.254 157.263 229.638 161.7 228.3Z" fill="#FED253"/>
<path opacity="0.1" d="M146.598 226.815C146.75 226.815 146.85 227.066 146.926 227.271C147.313 228.235 147.645 229.252 147.919 230.311C147.363 230.5 146.408 230.713 146.132 229.931C145.985 229.536 146.161 226.777 146.598 226.815Z" fill="black"/>
<path opacity="0.1" d="M157.429 225.863C157.28 225.99 157.107 225.731 157.107 225.544V223.405C157.103 223.346 157.118 223.287 157.15 223.235C157.176 223.209 157.207 223.187 157.242 223.172C157.277 223.157 157.316 223.148 157.355 223.146C157.856 223.097 158.271 223.477 158.593 223.841C159.082 224.43 159.507 225.059 159.862 225.72L157.243 225.648" fill="black"/>
<path d="M183.872 263.75C184.325 263.244 184.807 262.777 185.317 262.353C186.678 261.281 188.324 260.858 189.852 260.174C191.38 259.491 192.933 258.384 193.528 256.587C193.825 255.464 193.922 254.28 193.813 253.11C193.827 252.621 193.753 252.133 193.596 251.679C193.409 251.278 193.143 250.936 192.82 250.682C190.747 248.874 187.965 248.73 185.391 248.915C179.714 249.33 174.15 250.968 168.974 253.748C168.701 253.855 168.461 254.057 168.286 254.327C168.186 254.579 168.14 254.856 168.154 255.133C168.062 256.842 168.251 258.555 168.709 260.18C169.387 262.243 170.783 263.906 171.367 266.01C171.633 266.954 171.721 267.957 171.952 268.907C172.142 269.889 172.634 270.752 173.333 271.33C175.274 272.697 177.106 270.86 178.453 269.435L183.872 263.75Z" fill="#222222"/>
<path d="M158.349 271.774L155.834 265.187C155.465 264.274 155.147 263.333 154.881 262.37C154.593 261.221 154.454 260.03 154.186 258.874C153.303 255.027 151.075 251.823 149.989 248.053C149.92 247.713 149.78 247.399 149.582 247.142C149.423 247.008 149.242 246.916 149.051 246.875C148.86 246.834 148.663 246.844 148.475 246.904C146.957 247.22 145.771 248.607 144.382 249.393C143.737 249.751 143.042 249.989 142.397 250.4C142.075 250.583 141.789 250.848 141.56 251.176C141.33 251.503 141.162 251.887 141.067 252.3C140.914 253.211 141.291 254.086 141.608 254.974C142.958 258.63 143.265 262.716 143.325 266.718C143.37 269.409 143.256 272.298 141.931 274.46C139.385 278.628 141.013 284.75 141.965 289.795C142.08 290.39 142.214 291.033 142.293 291.665C142.377 292.455 142.415 293.251 142.407 294.047C142.407 296.721 142.283 299.478 141.35 301.902C142.271 302.49 143.286 302.835 144.327 302.914C147.208 303.355 150.101 303.665 153.006 303.843C153.916 303.946 154.833 303.89 155.73 303.677C156.794 303.331 157.733 302.57 158.397 301.513C159.061 300.456 159.413 299.164 159.396 297.84C159.555 299.49 159.848 301.283 160.845 302.426C161.843 303.569 163.296 303.742 164.651 303.832C168.474 304.075 172.307 303.945 176.113 303.444C176.356 303.431 176.595 303.365 176.817 303.248C177.552 302.807 177.592 301.592 177.532 300.616C177.423 298.787 177.309 296.959 177.125 295.143C176.969 293.985 176.89 292.814 176.887 291.641C176.963 290.434 177.129 289.238 177.383 288.068C178.048 284.351 178.574 280.558 178.351 276.752C178.262 275.825 178.231 274.892 178.256 273.959C178.385 271.857 179.308 269.856 179.135 267.766C178.638 261.62 178.237 255.313 176.808 249.381C176.55 248.321 176.222 247.184 175.453 246.576C174.461 245.778 173.066 246.195 171.93 245.689C171.397 245.391 170.89 245.03 170.417 244.611C169.388 243.839 168.21 243.404 166.998 243.349C166.085 243.307 165.068 243.551 164.517 244.433C164.262 244.929 164.093 245.482 164.021 246.058C163.301 249.691 162.458 253.282 161.614 256.873L160.806 260.316L158.637 269.558C158.424 270.541 158.568 270.845 158.349 271.774Z" fill="#887BB1"/>
<path d="M171.24 235.998L219.581 296.099V301.196H198.027L161.7 245.103" fill="#FA8E43"/>
<path opacity="0.1" d="M171.24 235.998L219.581 296.099V301.196H198.027L161.7 245.103" fill="black"/>
<path opacity="0.1" d="M162.47 244.262L162.624 244.327L198.337 296.095H219.581V301.196H198.027L161.7 245.055L162.47 244.262Z" fill="black"/>
<path d="M167.694 245.956C166.01 246.912 164.138 248.137 163.632 250.437C163.533 250.841 163.511 251.27 163.57 251.687C163.693 252.177 163.928 252.608 164.243 252.921C164.558 253.235 164.939 253.417 165.336 253.443C166.129 253.468 166.916 253.281 167.651 252.893L177.588 248.631C177.858 248.518 178.166 248.35 178.233 248.006C178.25 247.79 178.217 247.572 178.137 247.381C177.829 246.406 177.526 244.412 176.881 243.731C176.352 243.181 175.302 243.375 174.662 243.387C172.198 243.412 169.884 244.706 167.694 245.956Z" fill="#887BB1"/>
<path d="M176.785 248.861C178.539 248.855 180.283 249.159 181.952 249.762C183.629 250.374 185.115 251.515 186.232 253.049C186.557 253.478 186.788 253.986 186.907 254.534C187.008 255.1 188.651 255.44 188.288 255.826C189.392 255.627 189.13 256.211 190.249 256.2C191.368 256.188 192.578 255.865 193.248 254.862C193.714 254.038 193.922 253.063 193.838 252.091C193.853 251.418 193.739 250.75 193.505 250.13C193.001 248.94 191.842 248.3 190.773 247.75L181.771 243.12C181.248 242.808 180.688 242.584 180.107 242.457C179.619 242.405 179.126 242.418 178.64 242.496L174.562 243.023C175.454 243.672 176.18 244.571 176.669 245.632C177.158 246.692 177.393 247.877 177.35 249.07" fill="#222222"/>
</svg>
