<svg width="16" height="18" viewBox="0 0 16 18" fill="none" xmlns="http://www.w3.org/2000/svg">
<path d="M11.0011 16.8785C11.0411 17.1785 10.9411 17.4985 10.7111 17.7085C10.6186 17.8012 10.5087 17.8748 10.3877 17.925C10.2668 17.9751 10.1371 18.001 10.0061 18.001C9.87514 18.001 9.74546 17.9751 9.62448 17.925C9.50351 17.8748 9.39362 17.8012 9.30111 17.7085L5.29111 13.6985C5.18211 13.5919 5.09922 13.4615 5.04892 13.3175C4.99861 13.1735 4.98225 13.0199 5.00111 12.8685V7.74854L0.211108 1.61854C0.0487158 1.41007 -0.0245586 1.14579 0.00729555 0.883465C0.0391497 0.621137 0.173543 0.382082 0.381108 0.218535C0.571108 0.0785352 0.781108 -0.00146484 1.00111 -0.00146484H15.0011C15.2211 -0.00146484 15.4311 0.0785352 15.6211 0.218535C15.8287 0.382082 15.9631 0.621137 15.9949 0.883465C16.0268 1.14579 15.9535 1.41007 15.7911 1.61854L11.0011 7.74854V16.8785ZM3.04111 1.99854L7.00111 7.05854V12.5785L9.00111 14.5785V7.04854L12.9611 1.99854H3.04111Z" fill="#222222"/>
</svg>
