<svg width="26" height="30" viewBox="0 0 26 30" fill="none" xmlns="http://www.w3.org/2000/svg">
<path d="M5.72512 20.4601C4.67249 20.4601 3.66298 20.8704 2.91867 21.6007C2.17435 22.3309 1.7562 23.3214 1.7562 24.3541C1.7562 25.3869 2.17435 26.3773 2.91867 27.1076C3.66298 27.8378 4.67249 28.2481 5.72512 28.2481C6.77774 28.2481 7.78725 27.8378 8.53157 27.1076C9.27588 26.3773 9.69404 25.3869 9.69404 24.3541C9.69404 23.3214 9.27588 22.3309 8.53157 21.6007C7.78725 20.8704 6.77774 20.4601 5.72512 20.4601ZM5.72512 20.4601L8.38747 13.965M19.021 8.00408C20.8261 8.00408 22.3946 6.60536 22.3946 4.88422C22.3946 3.16309 20.9308 1.76904 19.1258 1.76904C17.7033 1.76904 16.4507 2.92633 16.0014 4.13658M6.72052 7.99162C4.93451 7.99162 3.34377 6.60536 3.34377 4.88422C3.34377 3.16309 4.79163 1.76904 6.57923 1.76904C8.06202 1.76904 9.28762 2.82509 9.67022 4.13658M16.0443 25.1329H9.69404M19.2194 20.4601L16.9048 14.3995M6.37126 18.8839L5.65844 19.1845C5.28318 19.3094 4.88621 19.3593 4.49097 19.3312C4.09573 19.3031 3.71023 19.1976 3.35726 19.0208C3.00429 18.8441 2.691 18.5998 2.43591 18.3022C2.18081 18.0047 1.98908 17.66 1.87204 17.2886C1.755 16.9171 1.71503 16.5264 1.75448 16.1396C1.79394 15.7527 1.91202 15.3775 2.10175 15.0362C2.29148 14.6948 2.54902 14.3943 2.85914 14.1522C3.16927 13.9102 3.52569 13.7316 3.90735 13.627L7.31268 12.6722M18.5939 18.8839L19.2496 19.1081C19.6213 19.2385 20.0157 19.2946 20.4098 19.2732C20.8039 19.2518 21.1896 19.1533 21.5444 18.9835C21.8991 18.8137 22.2156 18.576 22.4754 18.2845C22.7351 17.9929 22.9328 17.6533 23.0569 17.2857C23.1809 16.9181 23.2288 16.5299 23.1977 16.1438C23.1666 15.7578 23.0572 15.3818 22.8758 15.0378C22.6944 14.6939 22.4448 14.389 22.1416 14.1411C21.8384 13.8932 21.4877 13.7073 21.1102 13.5943L18.3383 12.7251M12.8692 11.2112V11.1956M10.6815 8.77509V8.75951M15.4982 8.77509V8.75951M19.2194 9.557C19.2194 11.2094 18.5504 12.7941 17.3595 13.9625C16.1686 15.131 14.5534 15.7874 12.8692 15.7874C11.185 15.7874 9.56976 15.131 8.37885 13.9625C7.18795 12.7941 6.5189 11.2094 6.5189 9.557C6.5189 7.9046 7.18795 6.31988 8.37885 5.15146C9.56976 3.98305 11.185 3.32663 12.8692 3.32663C14.5534 3.32663 16.1686 3.98305 17.3595 5.15146C18.5504 6.31988 19.2194 7.9046 19.2194 9.557ZM23.9821 24.3541C23.9821 25.3869 23.564 26.3773 22.8197 27.1076C22.0754 27.8378 21.0658 28.2481 20.0132 28.2481C18.9606 28.2481 17.9511 27.8378 17.2068 27.1076C16.4625 26.3773 16.0443 25.3869 16.0443 24.3541C16.0443 23.3214 16.4625 22.3309 17.2068 21.6007C17.9511 20.8704 18.9606 20.4601 20.0132 20.4601C21.0658 20.4601 22.0754 20.8704 22.8197 21.6007C23.564 22.3309 23.9821 23.3214 23.9821 24.3541Z" stroke="#222222" stroke-width="2.5" stroke-linecap="round" stroke-linejoin="round"/>
</svg>
