<svg width="20" height="25" viewBox="0 0 20 25" fill="none" xmlns="http://www.w3.org/2000/svg">
<path d="M13.3042 0.03125C13.6243 0.03125 13.9311 0.162083 14.1577 0.394531C14.3843 0.627001 14.5122 0.942404 14.5122 1.27148V3.33984L14.5171 3.34766L16.6558 6.47949C16.6721 6.50356 16.6878 6.52836 16.7017 6.55273H16.7026C16.8923 6.87713 16.9926 7.24854 16.9927 7.62695C16.9927 8.00532 16.8923 8.37679 16.7026 8.70117L16.7017 8.70215C16.6972 8.71039 16.6914 8.71877 16.6851 8.72852V8.72949L14.689 11.9414L14.6802 11.9551L14.687 11.9707L19.2866 22.0205V22.0215C19.2892 22.0269 19.2917 22.0326 19.2944 22.0391C19.2972 22.0456 19.3007 22.0534 19.3042 22.0605L19.3071 22.0674C19.4373 22.3827 19.4911 22.7261 19.4614 23.0674C19.4314 23.4116 19.3187 23.7429 19.1333 24.0312C18.9479 24.3197 18.6953 24.5561 18.3989 24.7197C18.1025 24.8834 17.7706 24.9689 17.4341 24.9688H2.56494C2.22868 24.9686 1.89722 24.8834 1.60107 24.7197C1.30486 24.556 1.05297 24.3186 0.867676 24.0303C0.682436 23.7419 0.56946 23.4105 0.539551 23.0664C0.509717 22.7224 0.564142 22.376 0.696777 22.0586L0.695801 22.0576C0.698855 22.0512 0.702096 22.0449 0.70459 22.0391C0.707432 22.0324 0.710719 22.027 0.713379 22.0215V22.0205L5.31299 11.9707L5.31982 11.9551L5.31104 11.9414L3.31689 8.72949V8.72852C3.31438 8.72465 3.31111 8.72124 3.30908 8.71875L3.3042 8.71289V8.70898L3.29932 8.70117C3.10968 8.3768 3.00928 8.00531 3.00928 7.62695C3.00931 7.24855 3.10962 6.87712 3.29932 6.55273H3.30029C3.31416 6.52835 3.32987 6.50356 3.34619 6.47949L5.48291 3.34766L5.48779 3.33984V1.27148C5.48779 0.942391 5.6157 0.627004 5.84229 0.394531C6.06886 0.162083 6.37572 0.03125 6.6958 0.03125C7.01585 0.0312706 7.32275 0.162101 7.54932 0.394531C7.77586 0.626997 7.90381 0.942427 7.90381 1.27148V3.29492L7.91064 3.30273L8.36279 3.88281C8.55907 4.13452 8.808 4.33779 9.09131 4.47754C9.37464 4.61728 9.68507 4.69036 9.99951 4.69043C10.3141 4.69043 10.6252 4.61735 10.9087 4.47754C11.192 4.33779 11.4409 4.13452 11.6372 3.88281L12.0894 3.30273L12.0962 3.29492V1.27148C12.0962 0.942414 12.2241 0.627 12.4507 0.394531C12.6773 0.162088 12.9841 0.0312554 13.3042 0.03125ZM7.45459 13.123L3.18896 22.4443L3.16846 22.4893H16.8315L16.811 22.4443L12.5454 13.123L12.5376 13.1045H7.4624L7.45459 13.123ZM13.1997 5.80469C12.7814 6.23896 12.2832 6.58364 11.7339 6.81836C11.1846 7.05306 10.5954 7.17306 10.0005 7.17188H9.99951C9.40521 7.17292 8.81677 7.0527 8.26807 6.81836C7.71929 6.58399 7.22139 6.24022 6.80322 5.80664L6.77588 5.7793L6.75439 5.81055L5.51514 7.62207L5.50439 7.63867L5.51514 7.65625L7.34814 10.6094L7.35791 10.624H12.6421L12.6509 10.6094L14.4878 7.6543L14.4995 7.63672L14.4878 7.62012L13.2485 5.80859L13.2271 5.77734L13.1997 5.80469Z" fill="#222222" stroke="#222222" stroke-width="0.0625"/>
</svg>
