<svg width="19" height="30" viewBox="0 0 19 30" fill="none" xmlns="http://www.w3.org/2000/svg">
<path d="M7.20459 17.5212C7.217 17.4176 7.20778 17.3124 7.17753 17.2127C7.14728 17.1129 7.09669 17.0208 7.02906 16.9423C6.96144 16.8638 6.8783 16.8008 6.78511 16.7573C6.69191 16.7139 6.59075 16.6909 6.48825 16.6901H2.05733C1.93752 16.6887 1.81986 16.6574 1.71472 16.5989C1.60958 16.5403 1.52018 16.4563 1.45441 16.3543C1.38864 16.2523 1.3485 16.1354 1.33754 16.0138C1.32657 15.8923 1.34512 15.7699 1.39154 15.6574L7.03417 2.22949C7.08767 2.09434 7.17938 1.97842 7.29766 1.89645C7.41593 1.81447 7.55546 1.77013 7.69851 1.76904H14.2236C14.7334 1.76904 15.0814 2.29863 14.8951 2.78996L11.6817 11.1927C11.6376 11.305 11.621 11.4265 11.6334 11.5468C11.6457 11.6671 11.6867 11.7825 11.7527 11.883C11.8187 11.9836 11.9077 12.0662 12.0121 12.1238C12.1165 12.1814 12.2331 12.2122 12.3518 12.2136H16.4997C17.0947 12.2136 17.4341 12.9182 17.0745 13.4096L6.28605 28.1879C6.19651 28.31 6.0102 28.232 6.02609 28.082L7.20459 17.5212Z" stroke="#222222" stroke-width="2.5" stroke-linecap="round" stroke-linejoin="round"/>
</svg>
