<svg width="77" height="45" viewBox="0 0 77 45" fill="none" xmlns="http://www.w3.org/2000/svg">
<path d="M0 22.8236C0 22.223 0.500524 21.6224 1.20126 21.6224H33.3349L32.4339 24.0249H1.20126C0.500524 24.0249 0 23.5243 0 22.8236Z" fill="#FA8E44"/>
<path d="M7.70816 29.8309C7.70816 29.2303 8.20868 28.6297 8.90942 28.6297H30.8323L29.9314 31.0322H8.90942C8.20868 31.0322 7.70816 30.5317 7.70816 29.8309Z" fill="#FA8E44"/>
<path d="M12.8141 36.8383C12.8141 36.2377 13.3146 35.637 14.0153 35.637H28.2302L27.3292 38.0395H14.0153C13.3146 38.0395 12.8141 37.539 12.8141 36.8383Z" fill="#FA8E44"/>
<path d="M28.228 35.7375H22.2217L21.7212 37.2391L21.4209 38.0399H27.3271L28.228 35.7375Z" fill="#FA8E44"/>
<path d="M29.9296 31.0326L30.7304 28.7302H24.8242L24.0234 30.7322L23.9233 31.0326H29.9296Z" fill="#FA8E44"/>
<path d="M33.3329 21.7228H27.3266L27.0263 22.5237L26.4257 24.0252H32.432L33.3329 21.7228Z" fill="#FA8E44"/>
<path d="M76.879 12.7133C76.7789 12.2127 76.4786 11.8123 76.1783 11.4119C75.8779 11.0115 75.4775 10.7112 75.0771 10.511C74.6767 10.3108 74.1762 10.2107 73.6756 10.2107H63.3649C63.3649 7.40773 63.465 4.40459 61.563 2.50261C59.661 0.500522 57.8591 0 55.1563 0C52.4535 0 49.9508 1.10115 48.0488 3.10324C46.1469 5.10533 45.0457 7.50783 43.6442 10.3108H34.4346C33.9341 10.3108 32.7328 10.4109 32.2323 10.6111C31.8319 10.8113 31.4315 11.1116 31.1312 11.512C30.8308 11.9124 30.6306 12.3128 30.4304 12.8134C30.3303 13.3139 30.03 13.7143 29.9299 14.3149L29.3293 15.9166L28.7286 17.5183L28.128 19.1199L27.5274 20.7216H34.6348L33.1333 25.0261H26.0258L25.7255 25.927L25.3251 27.4286L25.225 27.7289H32.2323L30.6306 32.0334H23.6233L23.5232 32.3337L22.9226 33.9354L22.6223 34.6361H29.6296L28.128 39.0407H21.1207C20.7203 40.0418 20.6202 41.243 21.3209 42.144C21.5211 42.3442 21.7213 42.6445 22.0216 42.8447C22.6223 43.4453 23.4231 43.7456 24.2239 43.7456L62.2637 44.0459C63.0645 44.0459 63.8654 43.7456 64.466 43.145C65.9676 41.7435 66.368 39.5412 67.1688 37.6393L76.3785 15.5162C76.879 14.6152 77.1793 13.6142 76.879 12.7133ZM47.0478 19.0198C47.0478 19.5204 46.8476 19.9208 46.5473 20.2211C46.247 20.5214 45.8465 20.7216 45.346 20.7216C44.9456 20.7216 44.4451 20.5214 44.1448 20.2211C43.8445 19.9208 43.6442 19.4203 43.6442 19.0198V15.5162C43.6442 15.0157 43.8445 14.6152 44.1448 14.3149C44.4451 14.0146 44.8455 13.8144 45.346 13.8144C45.7464 13.8144 46.247 14.0146 46.5473 14.3149C46.8476 14.6152 47.0478 15.1158 47.0478 15.5162V19.0198ZM59.9613 10.3108H47.4482C49.2501 7.00731 49.15 6.90721 50.4514 5.60585C51.7527 4.30449 53.3544 3.60376 55.1563 3.60376C56.9582 3.60376 57.9592 3.80397 59.1605 5.10533C60.4618 6.30658 59.9613 8.40877 59.9613 10.3108ZM63.6652 19.0198C63.6652 19.5204 63.465 19.9208 63.1647 20.2211C62.8643 20.5214 62.4639 20.7216 61.9634 20.7216C61.563 20.7216 61.0625 20.5214 60.7621 20.2211C60.4618 19.9208 60.2616 19.4203 60.2616 19.0198V15.5162C60.2616 15.0157 60.4618 14.6152 60.7621 14.3149C61.0625 14.0146 61.4629 13.8144 61.9634 13.8144C62.3638 13.8144 62.8643 14.0146 63.1647 14.3149C63.465 14.6152 63.6652 15.1158 63.6652 15.5162V19.0198Z" fill="#FA8E44"/>
</svg>
