<svg width="25" height="25" viewBox="0 0 25 25" fill="none" xmlns="http://www.w3.org/2000/svg">
<path d="M16.8093 18.1515L13.0468 14.388C12.9093 14.2505 12.7468 14.2255 12.6593 14.2255C12.5718 14.2255 12.4093 14.2505 12.2718 14.388L8.49678 18.164C8.07178 18.5891 7.40928 19.2768 5.19678 19.2768L9.83428 23.903C10.5374 24.6054 11.4905 25 12.4843 25C13.478 25 14.4312 24.6054 15.1343 23.903L19.7843 19.2643C18.6468 19.2643 17.6968 19.0392 16.8093 18.1515ZM8.49678 6.836L12.2718 10.612C12.3718 10.712 12.5218 10.7745 12.6593 10.7745C12.7968 10.7745 12.9468 10.712 13.0468 10.612L16.7843 6.87352C17.6718 5.94827 18.6843 5.73571 19.8218 5.73571L15.1718 1.09699C14.4687 0.394552 13.5155 0 12.5218 0C11.528 0 10.5749 0.394552 9.87178 1.09699L5.23428 5.72321C7.43428 5.72321 8.10928 6.4484 8.49678 6.836Z" fill="#FFFAFF"/>
<path d="M23.8842 9.81181L21.0717 6.98607H19.4967C18.8217 6.98607 18.1467 7.26114 17.6842 7.74877L13.9342 11.4998C13.5842 11.8498 13.1217 12.0249 12.6592 12.0249C12.1829 12.0182 11.7271 11.8304 11.3842 11.4998L7.6092 7.71126C7.1342 7.23613 6.4842 6.96106 5.7967 6.96106H3.9592L1.0967 9.83682C0.394448 10.5401 0 11.4935 0 12.4875C0 13.4815 0.394448 14.4349 1.0967 15.1382L3.9592 18.014H5.8092C6.4842 18.014 7.1342 17.7389 7.6217 17.2638L11.3967 13.4878C11.7467 13.1377 12.2092 12.9626 12.6717 12.9626C13.1342 12.9626 13.5967 13.1377 13.9467 13.4878L17.7092 17.2513C18.1842 17.7264 18.8342 18.0015 19.5217 18.0015H21.0967L23.9092 15.1757C24.615 14.4601 25.0087 13.4939 25.004 12.4886C24.9993 11.4833 24.5967 10.5209 23.8842 9.81181Z" fill="#FFFAFF"/>
</svg>
