<svg width="32" height="29" viewBox="0 0 32 29" fill="none" xmlns="http://www.w3.org/2000/svg">
<path d="M20.2751 2L29.6084 5.125V12.9375H24.9417V25.4375C24.9417 25.8519 24.7778 26.2493 24.4861 26.5424C24.1944 26.8354 23.7987 27 23.3862 27H7.83062C7.41806 27 7.0224 26.8354 6.73068 26.5424C6.43895 26.2493 6.27507 25.8519 6.27507 25.4375V12.9375H1.6084V5.125L10.9417 2C10.9417 3.2432 11.4334 4.43549 12.3086 5.31456C13.1837 6.19364 14.3707 6.6875 15.6084 6.6875C16.8461 6.6875 18.0331 6.19364 18.9082 5.31456C19.7834 4.43549 20.2751 3.2432 20.2751 2Z" stroke="#222222" stroke-width="3" stroke-linecap="round" stroke-linejoin="round"/>
</svg>
