<svg width="29" height="28" viewBox="0 0 29 28" fill="none" xmlns="http://www.w3.org/2000/svg">
<path d="M21.9473 1.26904C22.012 1.26904 22.1238 1.29934 22.2588 1.39404C22.357 1.46294 22.4474 1.5521 22.5186 1.64697L22.583 1.74365L27.7959 10.6353C28.1231 11.1934 28.212 11.8557 28.043 12.4771C27.8739 13.0985 27.4602 13.6306 26.8906 13.9546L4.9668 26.4224C3.86576 27.0485 2.41147 26.761 1.71094 25.6812L1.58105 25.4546C1.09326 24.4837 0.741208 23.5458 0.598633 22.5728L0.550781 22.1528C0.470292 21.1587 0.620241 20.1716 1.00195 19.1147L1.17969 18.6577C1.78918 17.1965 2.8564 15.528 4.44531 13.436L4.64941 13.1685L4.47754 12.8784C4.37913 12.7125 4.33315 12.5221 4.3457 12.3315C4.35827 12.1409 4.42903 11.9577 4.54883 11.8052C4.66871 11.6526 4.83306 11.5373 5.02148 11.4761C5.20974 11.415 5.41262 11.4104 5.60352 11.4634L5.91992 11.5522L6.12695 11.2964C6.53744 10.7888 6.97136 10.2594 7.42871 9.7085L7.60742 9.49268L7.51758 9.22803C7.46591 9.07644 7.4526 8.91456 7.48047 8.75732C7.50833 8.60015 7.57634 8.45192 7.67773 8.32568C7.77921 8.1994 7.91153 8.09878 8.06348 8.03467C8.21539 7.9706 8.38176 7.94452 8.54688 7.95947L8.82715 7.98486L8.99414 7.75928C9.62225 6.91106 10.1736 6.07223 10.6104 5.37061L10.6113 5.36963C10.777 5.10234 10.9564 4.75063 11.123 4.44971C11.2999 4.13025 11.4797 3.83323 11.6768 3.59424C11.8751 3.35378 12.064 3.20701 12.2461 3.14209C12.4103 3.0836 12.6188 3.07325 12.9141 3.20752L12.9355 3.21729L12.958 3.2251H12.959C12.9596 3.22529 12.9608 3.22569 12.9619 3.22607C12.9641 3.22683 12.9676 3.2276 12.9717 3.229C12.9802 3.23194 12.993 3.23625 13.0088 3.2417C13.0407 3.25267 13.0865 3.2687 13.1416 3.2876C13.252 3.32547 13.4008 3.37627 13.5537 3.42822C13.8425 3.52632 14.1935 3.64513 14.2861 3.66846V3.66748C15.1298 3.88484 16.1336 4.02033 17.0107 3.84521H17.0117C18.1676 3.61102 19.2122 2.94813 20.0625 2.29639H20.0635C20.3439 2.08093 20.6895 1.81652 21.0479 1.60498C21.4209 1.38474 21.731 1.2692 21.9473 1.26904ZM21.0117 4.02588C19.9664 4.76161 18.8435 5.39562 17.6504 5.68506L17.4111 5.73779C16.0977 6.00221 14.7456 5.78598 13.7812 5.53857C13.6078 5.49412 13.4277 5.46298 13.252 5.47998C13.053 5.49928 12.884 5.57766 12.7461 5.70557C12.6285 5.81463 12.5475 5.94822 12.4922 6.04346L12.3018 6.37256C11.9311 6.97079 11.472 7.67438 10.9492 8.40771L10.6064 8.88916L11.1377 9.14795L11.3027 9.22803L11.3057 9.22998C11.4234 9.28636 11.5283 9.36471 11.6143 9.46045C11.7002 9.55619 11.766 9.66768 11.8076 9.7876C11.8491 9.90729 11.8657 10.0338 11.8574 10.1597C11.8491 10.2858 11.8159 10.4101 11.7588 10.5239C11.7017 10.6377 11.6214 10.7395 11.5234 10.8237C11.4254 10.908 11.3108 10.9731 11.1865 11.0142C11.0623 11.0551 10.9308 11.0712 10.7998 11.062C10.6687 11.0528 10.5408 11.0183 10.4238 10.9604L10.4219 10.9595L9.7168 10.6167L9.36426 10.4448L9.11328 10.7456C8.75774 11.1733 8.41964 11.5863 8.09766 11.9829L7.73145 12.4331L8.23047 12.728C8.44862 12.8572 8.60647 13.0626 8.67285 13.3003C8.73918 13.5378 8.7096 13.7914 8.59082 14.0093C8.4719 14.2274 8.27127 14.3947 8.02832 14.4731C7.78683 14.5511 7.52432 14.5344 7.29492 14.4282L6.83203 14.2036L6.46484 14.0249L6.2168 14.3491C4.69556 16.3317 3.69947 17.8464 3.12012 19.1323L3.00977 19.3862V19.3872C2.6429 20.2695 2.49669 21.01 2.50781 21.7046L2.52148 21.9995C2.58351 22.7689 2.842 23.5631 3.31348 24.5161L3.54883 24.9907L4.00879 24.729L25.8936 12.2837L26.334 12.0327L26.0781 11.5962L25.334 10.3257L25.084 9.8999L24.6553 10.144L18.21 13.8091C17.9821 13.9367 17.7111 13.9708 17.457 13.9028C17.2031 13.8349 16.9887 13.6713 16.8594 13.4507C16.7304 13.2304 16.6951 12.9697 16.7607 12.7251C16.8262 12.4812 16.9877 12.2707 17.2119 12.1401L23.6602 8.47314L24.1006 8.22217L23.8447 7.78564L21.7314 4.18115L21.4561 3.7124L21.0117 4.02588Z" fill="#222222" stroke="#222222"/>
</svg>
