<svg width="41" height="41" viewBox="0 0 41 41" fill="none" xmlns="http://www.w3.org/2000/svg">
<path d="M28.9063 18.75C28.9063 20.4497 28.4022 22.1112 27.4579 23.5244C26.5137 24.9377 25.1715 26.0391 23.6012 26.6896C22.0309 27.34 20.303 27.5102 18.636 27.1786C16.9689 26.847 15.4377 26.0286 14.2358 24.8267C13.034 23.6248 12.2155 22.0936 11.8839 20.4266C11.5523 18.7595 11.7225 17.0316 12.3729 15.4613C13.0234 13.891 14.1248 12.5489 15.5381 11.6046C16.9513 10.6603 18.6128 10.1562 20.3125 10.1562C22.5909 10.1588 24.7753 11.0651 26.3864 12.6762C27.9974 14.2872 28.9037 16.4716 28.9063 18.75ZM40.625 20.3125C40.625 24.3299 39.4337 28.2571 37.2017 31.5975C34.9698 34.9379 31.7974 37.5414 28.0858 39.0788C24.3741 40.6162 20.29 41.0185 16.3497 40.2347C12.4095 39.4509 8.79016 37.5164 5.9494 34.6756C3.10865 31.8349 1.17407 28.2155 0.390308 24.2753C-0.393454 20.335 0.00880109 16.2509 1.54621 12.5392C3.08361 8.82762 5.68712 5.65524 9.02749 3.42327C12.3679 1.19131 16.2951 0 20.3125 0C25.698 0.00568715 30.8612 2.14757 34.6693 5.95567C38.4774 9.76377 40.6193 14.927 40.625 20.3125ZM37.5 20.3125C37.4975 17.9991 37.0285 15.7099 36.121 13.582C35.2135 11.454 33.8862 9.53084 32.2184 7.92761C30.5506 6.32437 28.5766 5.07394 26.4145 4.2511C24.2524 3.42826 21.9465 3.04991 19.6348 3.13867C10.4356 3.49414 3.09962 11.1562 3.12501 20.3613C3.13383 24.5518 4.67935 28.5935 7.46876 31.7207C8.60474 30.0731 10.0477 28.6599 11.7188 27.5586C11.8612 27.4645 12.0306 27.4197 12.201 27.4309C12.3713 27.4422 12.5333 27.509 12.6621 27.6211C14.7855 29.4577 17.4992 30.4685 20.3067 30.4685C23.1141 30.4685 25.8278 29.4577 27.9512 27.6211C28.08 27.509 28.242 27.4422 28.4123 27.4309C28.5827 27.4197 28.7521 27.4645 28.8945 27.5586C30.5677 28.6593 32.0127 30.0725 33.1504 31.7207C35.9536 28.5821 37.5021 24.5207 37.5 20.3125Z" fill="#FA8E44"/>
</svg>
